# Blender v2.79 (sub 0) OBJ File: ''
# www.blender.org
mtllib model.mtl
o Shape_IndexedFaceSet.005
v -0.010882 -0.210645 0.327090
v 0.032136 -0.174355 0.428171
v 0.017890 -0.160114 0.428171
v -0.031949 -0.202826 0.428171
v -0.018201 -0.159418 0.327090
v 0.033031 -0.203323 0.327090
v 0.032136 -0.202826 0.428171
v 0.018387 -0.159418 0.327090
v -0.031949 -0.167237 0.428171
v -0.032845 -0.203323 0.327090
v -0.032845 -0.166740 0.327090
v 0.033031 -0.174056 0.327090
v 0.017890 -0.209949 0.364090
v -0.017703 -0.160114 0.428171
v -0.017703 -0.209949 0.364090
vn 0.0000 -0.9939 0.1105
vn 0.0000 0.0000 1.0000
vn 0.0000 0.0000 -1.0000
vn 1.0000 0.0000 0.0089
vn 0.7070 0.7072 0.0083
vn 0.0000 1.0000 0.0069
vn -1.0000 0.0000 0.0089
vn -0.4472 0.8944 0.0084
vn 0.7069 0.7072 0.0084
vn 0.1635 -0.9805 -0.1087
vn 0.4176 -0.9086 0.0082
vn -0.3160 -0.9479 -0.0404
vn -0.4176 -0.9086 0.0082
vn 0.0000 -0.9998 0.0188
usemtl Shape.005
s off
f 13//1 4//1 15//1
f 2//2 3//2 4//2
f 1//3 5//3 6//3
f 2//2 4//2 7//2
f 6//4 2//4 7//4
f 3//5 2//5 8//5
f 5//6 3//6 8//6
f 6//3 5//3 8//3
f 4//2 3//2 9//2
f 5//3 1//3 10//3
f 4//7 9//7 10//7
f 9//8 5//8 11//8
f 5//3 10//3 11//3
f 10//7 9//7 11//7
f 2//4 6//4 12//4
f 8//9 2//9 12//9
f 6//3 8//3 12//3
f 1//10 6//10 13//10
f 6//11 7//11 13//11
f 7//1 4//1 13//1
f 3//6 5//6 14//6
f 9//2 3//2 14//2
f 5//8 9//8 14//8
f 10//12 1//12 15//12
f 4//13 10//13 15//13
f 1//14 13//14 15//14
o Shape_IndexedFaceSet.004
v -0.011282 -0.393757 0.327090
v 0.010771 -0.209954 0.371198
v -0.010585 -0.209954 0.371198
v 0.011795 -0.396481 0.373246
v 0.011468 -0.204147 0.327090
v 0.019601 -0.396481 0.334245
v -0.019415 -0.396481 0.365446
v -0.017708 -0.209954 0.335609
v 0.017895 -0.209954 0.364081
v -0.019415 -0.396481 0.334245
v -0.011282 -0.204147 0.327090
v 0.019601 -0.396481 0.365446
v -0.017708 -0.209954 0.364081
v -0.011608 -0.396481 0.373246
v 0.017895 -0.209954 0.335609
v 0.011468 -0.393757 0.327090
vn 0.0000 -0.9346 -0.3558
vn 0.0000 0.0110 0.9999
vn 0.0000 0.9914 0.1305
vn 0.0000 -1.0000 -0.0000
vn 0.7067 0.0116 0.7074
vn 0.1313 0.9826 0.1314
vn -1.0000 0.0092 0.0000
vn -0.8021 0.0117 -0.5971
vn 0.0000 0.0000 -1.0000
vn -0.6605 0.0000 -0.7508
vn 0.7068 0.0116 0.7073
vn 1.0000 0.0091 0.0000
vn -0.7068 0.0116 0.7074
vn -0.6705 0.7419 0.0000
vn -0.1313 0.9826 0.1314
vn -0.7067 0.0116 0.7074
vn 0.8021 0.0117 -0.5971
vn 0.6704 0.7420 0.0000
vn 0.6605 0.0000 -0.7508
usemtl Shape.004
s off
f 21//15 16//15 31//15
f 17//16 18//16 19//16
f 18//17 17//17 20//17
f 21//18 19//18 22//18
f 17//19 19//19 24//19
f 20//20 17//20 24//20
f 16//15 21//15 25//15
f 21//18 22//18 25//18
f 22//21 23//21 25//21
f 25//22 23//22 26//22
f 20//23 16//23 26//23
f 18//17 20//17 26//17
f 16//24 25//24 26//24
f 19//18 21//18 27//18
f 24//25 19//25 27//25
f 21//26 24//26 27//26
f 22//27 18//27 28//27
f 23//21 22//21 28//21
f 26//28 23//28 28//28
f 18//29 26//29 28//29
f 19//16 18//16 29//16
f 18//30 22//30 29//30
f 22//18 19//18 29//18
f 21//31 20//31 30//31
f 20//32 24//32 30//32
f 24//26 21//26 30//26
f 16//23 20//23 31//23
f 20//33 21//33 31//33
o Shape_IndexedFaceSet.003
v 0.035835 0.007143 0.171513
v -0.114826 -0.396481 0.257849
v -0.107402 -0.396481 0.228224
v 0.115012 -0.396481 0.257849
v -0.104858 0.014889 0.324273
v 0.104115 0.013150 0.323554
v -0.104858 -0.377831 0.324273
v 0.003760 -0.396481 0.154085
v -0.068583 0.008219 0.190726
v 0.104115 -0.376093 0.323554
v 0.080939 0.006107 0.204254
v 0.070511 -0.396481 0.176342
v -0.070325 -0.396481 0.176342
v -0.102076 0.009684 0.249610
v -0.035869 0.008200 0.171112
v 0.095887 0.010175 0.229834
v 0.092762 -0.396481 0.198582
v -0.099977 -0.396481 0.205984
v -0.003145 0.007222 0.164972
v -0.040673 -0.396481 0.161504
v 0.102468 0.010070 0.256232
v -0.093897 0.006526 0.223613
v 0.040837 -0.396481 0.161504
v 0.061275 0.005338 0.185090
v 0.100141 -0.396481 0.213403
v -0.086613 0.004824 0.210933
v -0.003597 -0.396481 0.154085
v -0.061543 0.006723 0.184660
v 0.003304 0.006766 0.165161
vn 0.0312 0.0275 -0.9991
vn 0.0000 -1.0000 -0.0000
vn 0.0034 -0.0000 1.0000
vn 0.0000 -0.9628 0.2703
vn -0.9889 0.0000 0.1484
vn 0.9865 -0.0000 0.1636
vn 0.0090 -0.9546 0.2977
vn -0.9697 0.0255 -0.2430
vn -0.9988 0.0306 -0.0393
vn -0.0838 0.9938 -0.0724
vn -0.0350 0.9976 -0.0593
vn 0.0082 0.9994 -0.0324
vn 0.0151 0.9976 -0.0674
vn 0.0037 0.9991 -0.0420
vn 0.7066 0.0307 -0.7069
vn 0.8607 0.0324 -0.5081
vn -0.7067 0.0282 -0.7069
vn 0.0151 0.9968 -0.0781
vn -0.4473 0.0265 -0.8940
vn 0.9992 0.0307 -0.0259
vn 0.9699 0.0290 -0.2417
vn 0.2157 0.9752 -0.0499
vn -0.9525 0.0285 -0.3031
vn -0.3466 0.9119 -0.2198
vn -0.9482 0.0282 -0.3166
vn 0.1961 0.0267 -0.9802
vn 0.4471 0.0277 -0.8941
vn 0.4723 0.0300 -0.8809
vn 0.6970 0.0316 -0.7164
vn 0.2066 0.9428 -0.2617
vn 0.2486 0.9235 -0.2921
vn 0.9481 0.0227 -0.3172
vn 0.8949 0.0274 -0.4455
vn -0.7485 0.0331 -0.6623
vn -0.6181 0.6499 -0.4423
vn -0.8645 0.0350 -0.5013
vn 0.0000 0.0270 -0.9996
vn -0.1836 0.0267 -0.9826
vn -0.1961 0.0256 -0.9802
vn -0.6488 0.0298 -0.7604
vn -0.3524 0.7277 -0.5884
vn -0.4678 0.0284 -0.8834
vn 0.1913 0.0272 -0.9812
vn 0.0761 0.8933 -0.4430
usemtl Shape.003
s off
f 39//34 50//34 60//34
f 33//35 34//35 35//35
f 37//36 36//36 38//36
f 33//37 35//37 38//37
f 36//38 33//38 38//38
f 35//35 34//35 39//35
f 35//39 37//39 41//39
f 37//36 38//36 41//36
f 38//40 35//40 41//40
f 35//35 39//35 43//35
f 39//35 34//35 44//35
f 34//41 33//41 45//41
f 33//42 36//42 45//42
f 36//43 40//43 45//43
f 40//44 36//44 46//44
f 36//45 37//45 47//45
f 32//46 46//46 47//46
f 46//47 36//47 47//47
f 35//35 43//35 48//35
f 43//48 42//48 48//48
f 42//49 47//49 48//49
f 44//35 34//35 49//35
f 40//50 44//50 49//50
f 46//51 32//51 50//51
f 39//35 44//35 51//35
f 44//52 46//52 51//52
f 37//53 35//53 52//53
f 35//54 47//54 52//54
f 47//55 37//55 52//55
f 34//56 45//56 53//56
f 45//57 40//57 53//57
f 49//58 34//58 53//58
f 39//59 32//59 54//59
f 32//60 43//60 54//60
f 43//35 39//35 54//35
f 43//61 32//61 55//61
f 42//62 43//62 55//62
f 32//63 47//63 55//63
f 47//64 42//64 55//64
f 47//65 35//65 56//65
f 35//35 48//35 56//35
f 48//66 47//66 56//66
f 40//67 49//67 57//67
f 53//68 40//68 57//68
f 49//69 53//69 57//69
f 50//70 39//70 58//70
f 46//71 50//71 58//71
f 51//72 46//72 58//72
f 39//35 51//35 58//35
f 44//73 40//73 59//73
f 40//74 46//74 59//74
f 46//75 44//75 59//75
f 32//76 39//76 60//76
f 50//77 32//77 60//77
o Shape_IndexedFaceSet.002
v 0.053462 0.096256 0.129127
v -0.099660 0.136878 0.138713
v -0.104858 0.205616 0.134020
v 0.104115 0.204837 0.322732
v -0.104858 0.029586 0.323572
v 0.104115 0.030366 0.322732
v -0.104858 0.205616 0.323572
v 0.104115 0.204837 0.134859
v -0.035304 0.033920 0.170880
v 0.095426 0.032113 0.228796
v -0.093345 0.033830 0.222367
v -0.081776 0.110498 0.129127
v 0.089092 0.117601 0.129127
v 0.035233 0.034482 0.171270
v -0.101882 0.032082 0.248519
v 0.102277 0.031907 0.255153
v -0.053298 0.096256 0.129127
v -0.003085 0.034597 0.164962
v 0.098559 0.136629 0.139876
v 0.080158 0.034335 0.203185
v -0.067731 0.033630 0.190046
v -0.088906 0.117601 0.129127
v 0.060387 0.035084 0.184385
v -0.080754 0.033522 0.202935
vn -0.5754 -0.5704 -0.5862
vn 0.0040 0.0000 1.0000
vn 0.0037 1.0000 0.0000
vn -1.0000 0.0000 0.0000
vn 1.0000 0.0000 0.0000
vn 0.0037 -0.9998 -0.0189
vn -0.0010 -0.9996 -0.0288
vn 0.0042 0.0648 -0.9979
vn 0.0000 0.0000 -1.0000
vn 0.0082 -0.9987 -0.0497
vn 0.3571 -0.5960 -0.7192
vn -0.9918 -0.0817 -0.0980
vn -0.9982 -0.0442 -0.0410
vn -0.8976 -0.3097 -0.3137
vn 0.9992 -0.0300 -0.0279
vn 0.0642 -0.9976 -0.0245
vn -0.2946 -0.5891 -0.7525
vn 0.1301 -0.5847 -0.8008
vn 0.0083 -0.9976 -0.0688
vn 0.0000 -0.5025 -0.8646
vn -0.1356 -0.5781 -0.8046
vn 0.8329 -0.1078 -0.5428
vn 0.9107 -0.2832 -0.3008
vn 0.9896 -0.0889 -0.1127
vn 0.9397 -0.2376 -0.2461
vn 0.7240 -0.5002 -0.4750
vn -0.0107 -0.9994 -0.0332
vn -0.3978 -0.6134 -0.6823
vn -0.0125 -0.9994 -0.0337
vn -0.7570 -0.1013 -0.6455
vn -0.8838 -0.3263 -0.3353
vn 0.0000 0.0555 -0.9985
vn -0.5697 -0.5719 -0.5902
vn 0.0984 -0.9847 -0.1435
vn 0.3803 -0.6023 -0.7018
vn 0.1014 -0.9841 -0.1458
vn 0.5450 -0.5891 -0.5966
vn -0.2465 -0.9583 -0.1445
vn -0.0423 -0.9978 -0.0511
vn -0.7377 -0.4844 -0.4703
usemtl Shape.002
s off
f 82//78 81//78 84//78
f 64//79 65//79 66//79
f 64//80 63//80 67//80
f 65//79 64//79 67//79
f 63//81 65//81 67//81
f 63//80 64//80 68//80
f 64//82 66//82 68//82
f 66//83 65//83 70//83
f 65//84 69//84 70//84
f 63//85 68//85 73//85
f 61//86 72//86 73//86
f 70//87 69//87 74//87
f 61//88 73//88 74//88
f 63//89 62//89 75//89
f 65//90 63//90 75//90
f 62//91 71//91 75//91
f 68//92 66//92 76//92
f 66//93 70//93 76//93
f 69//94 72//94 77//94
f 72//86 61//86 77//86
f 61//95 74//95 78//95
f 74//96 69//96 78//96
f 77//97 61//97 78//97
f 69//98 77//98 78//98
f 73//99 68//99 79//99
f 70//100 73//100 79//100
f 68//101 76//101 79//101
f 76//102 70//102 79//102
f 73//103 70//103 80//103
f 69//104 65//104 81//104
f 72//105 69//105 81//105
f 65//106 75//106 81//106
f 62//107 63//107 82//107
f 71//108 62//108 82//108
f 63//109 73//109 82//109
f 73//86 72//86 82//86
f 72//110 81//110 82//110
f 70//111 74//111 83//111
f 74//112 73//112 83//112
f 80//113 70//113 83//113
f 73//114 80//114 83//114
f 75//115 71//115 84//115
f 81//116 75//116 84//116
f 71//117 82//117 84//117
o Shape_IndexedFaceSet.001
v -0.010581 0.089137 -0.326608
v 0.104115 0.205042 0.116005
v -0.104858 0.205791 0.117923
v -0.027655 0.085493 0.155039
v -0.104858 0.205791 -0.315424
v 0.110462 0.138933 -0.326608
v -0.017689 0.032163 -0.255325
v 0.089092 0.117607 0.129108
v 0.104115 0.205042 -0.313505
v -0.103145 0.131807 -0.326608
v -0.088906 0.117607 0.129108
v 0.017854 0.032163 -0.226865
v 0.110462 0.138933 0.129108
v 0.024984 0.089137 0.129108
v -0.100106 0.137296 0.108113
v 0.067723 0.103372 -0.326608
v -0.053298 0.067776 -0.205497
v 0.053462 0.067776 -0.205497
v 0.017854 0.032163 -0.255325
v -0.017689 0.032163 -0.226865
v 0.067723 0.103372 0.129108
v -0.067537 0.103372 -0.326608
v -0.081776 0.110498 0.129108
v 0.010745 0.089137 -0.326608
v 0.010745 0.032163 -0.219727
v 0.089092 0.117607 -0.326608
v -0.081776 0.110498 -0.326608
v -0.010581 0.032163 -0.219727
vn 0.0000 -1.0000 0.0000
vn 0.0098 0.3006 0.9537
vn 0.0036 1.0000 0.0000
vn 0.9954 0.0956 0.0000
vn 0.0097 0.1953 -0.9807
vn -0.9997 -0.0231 0.0000
vn 0.0000 0.0000 -1.0000
vn -0.0050 0.1494 -0.9888
vn -0.3663 0.0516 0.9291
vn 0.1043 0.2030 0.9736
vn 0.2813 -0.2819 0.9173
vn -0.9975 -0.0703 0.0079
vn -0.8747 -0.4845 0.0122
vn -0.9178 -0.1180 0.3790
vn -0.7403 -0.6705 -0.0498
vn -0.7944 -0.6073 0.0059
vn 0.6970 -0.7164 0.0325
vn 0.7061 -0.7075 0.0302
vn 0.7805 -0.6252 -0.0000
vn 0.0000 -0.7811 -0.6243
vn 0.7387 -0.6724 -0.0474
vn 0.7072 -0.7071 0.0000
vn -0.7071 -0.7071 0.0000
vn 0.3125 -0.4691 0.8260
vn 0.5522 -0.8290 0.0885
vn 0.2817 -0.8458 0.4530
vn 0.3127 -0.9389 0.1440
vn -0.1894 -0.7577 -0.6245
vn -0.5538 -0.5555 0.6203
vn -0.7057 -0.7078 0.0303
vn -0.4602 -0.8809 0.1110
vn -0.6971 -0.7163 0.0321
vn 0.1893 -0.7577 -0.6245
vn 0.1435 -0.9776 0.1538
vn 0.1538 -0.9762 0.1532
vn 0.5068 -0.7608 -0.4054
vn 0.6993 -0.7008 -0.1411
vn -0.6990 -0.7009 -0.1419
vn -0.3871 -0.7734 -0.5020
vn -0.1342 -0.9819 0.1336
vn 0.0000 -0.9900 0.1409
usemtl Shape.001
s off
f 104//118 109//118 112//118
f 86//119 87//119 88//119
f 87//120 86//120 89//120
f 89//120 86//120 93//120
f 86//121 90//121 93//121
f 90//122 89//122 93//122
f 87//123 89//123 94//123
f 90//124 85//124 94//124
f 89//125 90//125 94//125
f 88//126 87//126 95//126
f 86//127 88//127 97//127
f 90//121 86//121 97//121
f 88//128 92//128 97//128
f 87//129 94//129 99//129
f 94//130 95//130 99//130
f 95//131 87//131 99//131
f 85//124 90//124 100//124
f 94//132 91//132 101//132
f 95//133 94//133 101//133
f 92//134 96//134 102//134
f 97//135 92//135 102//135
f 90//136 97//136 102//136
f 91//137 85//137 103//137
f 96//118 91//118 103//118
f 90//138 102//138 103//138
f 102//139 96//139 103//139
f 91//118 96//118 104//118
f 101//140 91//140 104//140
f 92//141 88//141 105//141
f 96//142 92//142 105//142
f 88//143 98//143 105//143
f 98//144 96//144 105//144
f 85//145 91//145 106//145
f 94//124 85//124 106//124
f 88//146 95//146 107//146
f 95//147 101//147 107//147
f 104//148 88//148 107//148
f 101//149 104//149 107//149
f 85//124 100//124 108//124
f 103//137 85//137 108//137
f 100//150 103//150 108//150
f 98//151 88//151 109//151
f 96//152 98//152 109//152
f 104//118 96//118 109//118
f 100//124 90//124 110//124
f 103//153 100//153 110//153
f 90//154 103//154 110//154
f 91//155 94//155 111//155
f 106//156 91//156 111//156
f 94//124 106//124 111//124
f 88//157 104//157 112//157
f 109//158 88//158 112//158
o Shape_IndexedFaceSet
v 0.032123 -0.409327 0.399689
v -0.024819 -0.409327 0.136254
v -0.053290 -0.409327 0.143397
v -0.104858 -0.388490 0.325495
v 0.090415 -0.388611 0.217798
v 0.131824 -0.409327 0.243062
v 0.104115 -0.388580 0.324986
v -0.131637 -0.409327 0.299973
v -0.088879 -0.395091 0.164748
v -0.031937 -0.395091 0.399689
v 0.053476 -0.395091 0.143397
v -0.036485 -0.388671 0.171524
v -0.081787 -0.409327 0.378286
v 0.110419 -0.409327 0.349818
v -0.131637 -0.395091 0.235945
v 0.081973 -0.395091 0.378286
v 0.096183 -0.409327 0.171865
v 0.131824 -0.395091 0.243062
v -0.117376 -0.409327 0.200334
v -0.110232 -0.395091 0.349818
v 0.009884 -0.388832 0.362835
v -0.024819 -0.395091 0.136254
v 0.131824 -0.395091 0.299973
v 0.117562 -0.395091 0.200334
v -0.087630 -0.388900 0.212744
v 0.025005 -0.409327 0.136254
v 0.032123 -0.395091 0.399689
v -0.131637 -0.395091 0.299973
v 0.036625 -0.388683 0.171644
v -0.031937 -0.409327 0.399689
v 0.131824 -0.409327 0.299973
v -0.081787 -0.395091 0.378286
v 0.110419 -0.395091 0.349818
v 0.089065 -0.395091 0.164748
v -0.131637 -0.409327 0.235945
v 0.081973 -0.409327 0.378286
v -0.110232 -0.409327 0.349818
v -0.117376 -0.395091 0.200334
v 0.067738 -0.409327 0.150514
v -0.088879 -0.409327 0.164748
v 0.124680 -0.409327 0.214593
v 0.025005 -0.395091 0.136254
vn 0.0005 0.9840 -0.1783
vn -0.0000 -1.0000 0.0000
vn 0.0004 1.0000 -0.0003
vn -0.0000 1.0000 -0.0012
vn 0.1675 0.9856 -0.0217
vn 0.0004 1.0000 0.0078
vn -0.0379 0.9914 0.1254
vn -0.2433 0.0000 -0.9699
vn -0.3831 0.3340 -0.8612
vn -0.0924 0.9738 -0.2078
vn 0.2287 0.9735 0.0000
vn 1.0000 0.0000 0.0000
vn 0.1924 0.9792 -0.0642
vn -0.1048 0.9867 -0.1245
vn -0.0084 1.0000 -0.0049
vn -0.1532 0.9878 -0.0270
vn 0.0000 0.0000 -1.0000
vn 0.0000 0.0000 1.0000
vn 0.3945 0.0000 0.9189
vn 0.0630 0.9872 0.1468
vn 0.0522 0.9893 0.1365
vn 0.0000 0.9859 0.1674
vn -1.0000 0.0000 0.0000
vn -0.2393 0.9709 0.0000
vn -0.3799 0.9105 0.1632
vn -0.9189 0.0000 0.3946
vn 0.0002 1.0000 -0.0018
vn -0.3945 0.0000 0.9189
vn 0.9189 0.0000 0.3946
vn -0.0652 0.9863 0.1518
vn -0.2122 0.9540 0.2120
vn -0.7074 0.0000 0.7068
vn 0.2007 0.9589 0.2005
vn 0.7074 0.0000 0.7068
vn 0.3541 0.9228 0.1521
vn 0.1544 0.9802 -0.1237
vn 0.7782 0.0776 -0.6232
vn 0.1044 0.9869 -0.1232
vn 0.0984 0.9815 -0.1640
vn -0.9283 0.0000 -0.3718
vn -0.7806 0.0000 -0.6251
vn -0.1530 0.9806 -0.1225
vn -0.1751 0.9820 -0.0701
vn 0.3127 -0.1552 -0.9371
vn 0.5125 0.0864 -0.8543
vn 0.5973 -0.0992 -0.7958
vn -0.5145 0.0000 -0.8575
vn 0.9699 0.0000 -0.2434
vn 0.8239 -0.1384 -0.5495
vn 0.9371 0.1552 -0.3128
vn 0.0000 0.9838 -0.1791
vn 0.2433 0.0000 -0.9699
vn 0.0485 0.9799 -0.1934
usemtl Shape
s off
f 124//159 141//159 154//159
f 115//160 114//160 113//160
f 113//160 114//160 118//160
f 117//161 116//161 119//161
f 115//160 113//160 120//160
f 116//162 117//162 124//162
f 120//160 113//160 125//160
f 113//160 118//160 126//160
f 118//160 114//160 129//160
f 117//163 119//163 130//163
f 115//160 120//160 131//160
f 119//164 116//164 133//164
f 116//165 122//165 133//165
f 114//166 115//166 134//166
f 115//167 121//167 134//167
f 121//168 124//168 134//168
f 130//169 119//169 135//169
f 118//170 130//170 135//170
f 117//171 130//171 136//171
f 124//172 121//172 137//172
f 116//173 124//173 137//173
f 127//174 116//174 137//174
f 129//160 114//160 138//160
f 114//175 134//175 138//175
f 122//176 113//176 139//176
f 113//177 128//177 139//177
f 128//178 119//178 139//178
f 119//179 133//179 139//179
f 133//180 122//180 139//180
f 127//181 120//181 140//181
f 116//182 127//182 140//182
f 132//183 116//183 140//183
f 120//184 132//184 140//184
f 124//185 117//185 141//185
f 113//176 122//176 142//176
f 125//160 113//160 142//160
f 122//186 125//186 142//186
f 126//160 118//160 143//160
f 118//170 135//170 143//170
f 135//187 126//187 143//187
f 122//188 116//188 144//188
f 125//186 122//186 144//186
f 116//189 132//189 144//189
f 132//190 125//190 144//190
f 119//191 128//191 145//191
f 128//192 126//192 145//192
f 126//187 135//187 145//187
f 135//193 119//193 145//193
f 117//194 136//194 146//194
f 136//195 129//195 146//195
f 141//196 117//196 146//196
f 123//197 141//197 146//197
f 120//181 127//181 147//181
f 131//160 120//160 147//160
f 127//198 131//198 147//198
f 113//160 126//160 148//160
f 128//177 113//177 148//177
f 126//192 128//192 148//192
f 120//160 125//160 149//160
f 132//184 120//184 149//184
f 125//190 132//190 149//190
f 121//199 131//199 150//199
f 131//198 127//198 150//198
f 137//200 121//200 150//200
f 127//201 137//201 150//201
f 129//160 138//160 151//160
f 138//202 123//202 151//202
f 123//203 146//203 151//203
f 146//204 129//204 151//204
f 121//205 115//205 152//205
f 115//160 131//160 152//160
f 131//199 121//199 152//199
f 118//160 129//160 153//160
f 130//206 118//206 153//206
f 129//207 136//207 153//207
f 136//208 130//208 153//208
f 134//209 124//209 154//209
f 123//210 138//210 154//210
f 138//175 134//175 154//175
f 141//211 123//211 154//211
