# Blender v2.79 (sub 0) OBJ File: ''
# www.blender.org
mtllib model.mtl
o Shape_IndexedFaceSet.002
v 0.417942 0.170779 0.167593
v 0.429605 0.169415 0.179815
v -0.002656 0.169415 0.179815
v -0.002656 0.169415 0.071750
v 0.422773 -0.120576 0.073458
v 0.419746 -0.125232 0.179815
v 0.420494 0.172636 0.074028
v -0.002656 -0.125232 0.179815
v -0.002656 -0.125232 0.071750
v 0.331356 -0.135110 0.071750
v 0.321540 0.179262 0.071750
v 0.429605 -0.115446 0.179815
v 0.007853 0.171619 0.167829
v 0.407315 -0.125637 0.075006
vn 0.1242 -0.9922 -0.0109
vn 0.0000 0.0000 1.0000
vn 0.0931 0.9954 0.0223
vn 0.9963 0.0079 -0.0856
vn -1.0000 0.0000 0.0000
vn -0.0296 -0.9996 0.0000
vn 0.0000 -0.9958 0.0910
vn 0.0000 0.0000 -1.0000
vn 0.0663 0.9976 0.0216
vn 0.0232 0.0021 -0.9997
vn 0.0186 0.0006 -0.9998
vn 0.9979 0.0000 -0.0641
vn 0.7044 -0.7097 -0.0110
vn 0.0021 0.9940 0.1089
vn 0.0000 0.9835 0.1809
vn -0.2053 0.9787 0.0000
vn 0.0021 0.9963 0.0861
vn -0.0304 0.9993 -0.0196
vn 0.3080 -0.9508 -0.0329
vn 0.1063 -0.5732 -0.8125
usemtl Shape.002
s off
f 6//1 10//1 14//1
f 2//2 3//2 6//2
f 1//3 2//3 7//3
f 2//4 5//4 7//4
f 3//5 4//5 8//5
f 6//2 3//2 8//2
f 8//5 4//5 9//5
f 8//6 9//6 10//6
f 6//7 8//7 10//7
f 9//8 4//8 10//8
f 1//9 7//9 11//9
f 7//10 5//10 11//10
f 5//11 10//11 11//11
f 10//8 4//8 11//8
f 5//12 2//12 12//12
f 2//2 6//2 12//2
f 6//13 5//13 12//13
f 2//14 1//14 13//14
f 3//15 2//15 13//15
f 4//16 3//16 13//16
f 1//17 11//17 13//17
f 11//18 4//18 13//18
f 5//19 6//19 14//19
f 10//20 5//20 14//20
o Shape_IndexedFaceSet.001
v 0.420392 0.172561 0.064840
v 0.006595 -0.118927 -0.245508
v 0.010369 -0.125637 -0.233432
v 0.419476 -0.118329 -0.244849
v 0.321540 0.179262 -0.252446
v -0.014826 0.063553 0.080877
v 0.422694 -0.120522 0.066567
v 0.010369 -0.125637 0.061981
v -0.002656 0.061342 -0.252446
v 0.417598 0.170530 -0.243441
v 0.321540 0.179262 0.071750
v 0.407882 -0.126069 -0.233851
v 0.407315 -0.125637 0.061981
vn 0.3151 -0.9491 0.0020
vn -0.8716 -0.4902 -0.0000
vn -0.9911 -0.1329 0.0093
vn -0.0098 -0.1007 0.9949
vn 0.0017 -0.0384 -0.9993
vn 0.0083 -0.0228 -0.9997
vn -0.9980 -0.0526 -0.0361
vn -0.3418 0.9396 -0.0187
vn 0.0912 0.9958 -0.0074
vn 0.0938 0.0055 -0.9956
vn 0.9999 0.0078 -0.0091
vn 0.9999 0.0066 -0.0103
vn 0.0676 0.9977 0.0000
vn -0.3253 0.9456 0.0000
vn 0.0702 0.0064 0.9975
vn 0.0296 -0.0073 0.9995
vn -0.0015 -0.8743 -0.4854
vn 0.0021 -0.8188 -0.5740
vn 0.5476 -0.8367 -0.0116
vn -0.0011 -1.0000 -0.0000
vn 0.0000 -1.0000 0.0015
vn 0.0000 -0.6676 0.7446
usemtl Shape.001
s off
f 26//21 21//21 27//21
f 16//22 17//22 22//22
f 20//23 16//23 22//23
f 21//24 20//24 22//24
f 18//25 16//25 23//25
f 19//26 18//26 23//26
f 16//27 20//27 23//27
f 20//28 19//28 23//28
f 19//29 15//29 24//29
f 18//30 19//30 24//30
f 15//31 21//31 24//31
f 21//32 18//32 24//32
f 15//33 19//33 25//33
f 19//34 20//34 25//34
f 21//35 15//35 25//35
f 20//36 21//36 25//36
f 17//37 16//37 26//37
f 16//38 18//38 26//38
f 18//39 21//39 26//39
f 22//40 17//40 26//40
f 22//41 26//41 27//41
f 21//42 22//42 27//42
o Shape_IndexedFaceSet
v -0.425729 -0.118990 -0.243287
v -0.010586 0.164009 0.171886
v -0.012239 -0.118701 0.170233
v -0.002657 0.061342 -0.252446
v -0.425236 0.172243 0.160705
v -0.424255 0.171529 -0.241813
v -0.428035 -0.120562 0.163376
v -0.024945 -0.125637 -0.230156
v -0.002657 0.179262 0.081567
v -0.326830 0.179262 -0.252446
v -0.011803 -0.118997 -0.243299
v -0.425281 0.162865 0.170208
v -0.412599 -0.125637 0.157486
v -0.002657 0.179262 0.169914
v -0.015681 -0.125637 0.157486
v -0.425609 -0.109542 0.170537
v -0.412599 -0.125637 -0.230156
v -0.415899 -0.118711 0.170248
vn -0.3909 -0.4395 0.8087
vn -1.0000 0.0051 -0.0057
vn -1.0000 0.0095 -0.0025
vn -0.0100 -0.0274 -0.9996
vn -0.0793 0.9968 -0.0020
vn -0.1089 0.0056 -0.9940
vn 0.3245 0.8919 -0.3149
vn 0.9987 -0.0506 0.0011
vn -0.0000 -0.0507 -0.9987
vn -0.9999 0.0096 0.0047
vn 0.2543 -0.0071 0.9671
vn 0.9994 -0.0321 0.0090
vn 1.0000 -0.0000 0.0000
vn -0.0169 0.9998 0.0130
vn 0.0000 1.0000 0.0000
vn -0.0044 0.1305 0.9914
vn -0.0271 0.7116 0.7021
vn 0.8948 -0.4464 0.0013
vn 0.4425 -0.8967 -0.0106
vn 0.0000 -1.0000 0.0000
vn 0.0006 -0.0059 1.0000
vn -0.0040 0.0012 1.0000
vn -0.9478 0.0015 0.3188
vn -0.4469 -0.8946 -0.0060
vn -0.0000 -0.8922 -0.4516
vn 0.0000 -0.8926 -0.4509
vn -0.3123 -0.9500 -0.0000
vn -0.1195 -0.8852 0.4495
vn 0.0000 -0.8784 0.4779
vn 0.0000 -0.8789 0.4770
vn 0.0000 -0.0315 0.9995
usemtl Shape
s off
f 43//43 34//43 45//43
f 33//44 28//44 34//44
f 32//45 33//45 34//45
f 31//46 28//46 37//46
f 33//47 32//47 37//47
f 28//48 33//48 37//48
f 36//49 31//49 37//49
f 31//50 30//50 38//50
f 28//51 31//51 38//51
f 32//52 34//52 39//52
f 29//53 30//53 41//53
f 30//54 31//54 41//54
f 31//55 36//55 41//55
f 37//56 32//56 41//56
f 36//57 37//57 41//57
f 39//58 29//58 41//58
f 32//59 39//59 41//59
f 38//60 30//60 42//60
f 35//61 38//61 42//61
f 40//62 35//62 42//62
f 30//63 29//63 43//63
f 29//64 39//64 43//64
f 39//65 34//65 43//65
f 34//66 28//66 44//66
f 28//67 38//67 44//67
f 38//68 35//68 44//68
f 40//69 34//69 44//69
f 35//62 40//62 44//62
f 34//70 40//70 45//70
f 42//71 30//71 45//71
f 40//72 42//72 45//72
f 30//73 43//73 45//73
