# Blender v2.79 (sub 0) OBJ File: ''
# www.blender.org
mtllib model.mtl
o Shape_IndexedFaceSet.001
v 0.184348 0.064461 0.025544
v -0.183563 -0.061597 -0.032411
v -0.185424 -0.061989 0.025603
v 0.160114 -0.344222 0.038690
v 0.028502 0.112090 -0.177360
v -0.019851 0.258630 0.151790
v -0.064679 -0.344222 -0.153938
v -0.053967 -0.344222 0.156484
v -0.088425 0.270281 -0.111162
v 0.138690 -0.344222 -0.089690
v 0.127185 0.271479 -0.062516
v 0.114413 -0.061346 0.149626
v -0.161007 -0.344222 0.038690
v -0.143688 0.101086 0.111101
v -0.138379 0.272581 0.025899
v 0.107065 0.270288 0.094162
v 0.152596 0.034313 -0.108730
v -0.114660 0.053111 -0.146245
v 0.063746 -0.344222 -0.153938
v -0.048540 0.044243 0.179248
v 0.053074 -0.344222 0.156484
v -0.139583 -0.344222 -0.089690
v 0.047618 0.053858 0.179140
v -0.163493 0.139978 -0.061048
v 0.065902 0.251913 -0.136209
v -0.142462 -0.041959 0.119626
v 0.181812 -0.070994 -0.032253
v -0.058228 -0.061569 -0.176892
v 0.152408 0.015164 0.111141
v 0.085614 -0.051699 -0.166076
v 0.138690 -0.344222 0.092236
v 0.145410 0.258942 0.045020
v -0.058923 0.259554 -0.140030
v -0.139583 -0.344222 0.092236
v -0.098463 0.261200 0.114001
v -0.174495 0.131650 0.025438
v 0.104473 0.148665 0.139616
v 0.174466 0.142120 -0.022976
v -0.162775 -0.061244 -0.089445
v -0.114970 0.015134 0.149192
v 0.114133 0.120224 -0.137205
v 0.039025 0.273091 0.134485
v 0.057453 -0.061671 -0.177366
v 0.047246 -0.070731 0.177762
v -0.029311 0.111699 -0.176843
v 0.160114 -0.344222 -0.046884
v -0.161007 -0.344222 -0.036143
v -0.113821 -0.070287 -0.145162
v -0.173162 0.015329 0.073212
v 0.048897 0.273059 -0.131924
v 0.180951 -0.042114 0.044219
v -0.143585 0.253687 -0.041658
v 0.125081 -0.061670 -0.138716
v -0.096775 -0.344222 0.135081
v -0.143406 0.110359 -0.108338
v -0.076793 0.129680 0.158764
v 0.143230 0.139779 0.101823
v 0.028682 0.258667 -0.149263
v 0.173022 0.054042 -0.070979
v 0.123039 0.252372 -0.088929
v 0.152737 -0.061346 -0.108831
v -0.048012 -0.070605 0.177295
v 0.028595 0.151267 0.170761
v 0.095882 -0.344222 0.135081
vn 0.7050 -0.0824 0.7044
vn 0.0000 -1.0000 0.0000
vn 0.7698 -0.0628 0.6352
vn 0.3431 0.9379 0.0512
vn -0.8726 0.2387 0.4262
vn -0.9979 0.0563 -0.0316
vn -0.8881 0.2263 0.4001
vn -0.9896 0.0818 -0.1180
vn 0.4946 0.0647 0.8667
vn 0.6405 0.0668 0.7651
vn 0.9776 0.1859 0.0984
vn 0.9436 0.3069 -0.1241
vn -0.9387 0.0449 -0.3419
vn -0.7620 0.0320 0.6468
vn 0.4072 0.1559 -0.8999
vn 0.4166 0.0829 -0.9053
vn 0.0494 0.9987 0.0139
vn -0.1306 0.9330 0.3352
vn -0.1109 0.9780 0.1766
vn 0.4962 0.2947 0.8167
vn 0.0000 -0.0826 -0.9966
vn -0.0042 -0.0808 -0.9967
vn -0.0041 -0.0006 -1.0000
vn 0.3917 -0.0674 -0.9176
vn 0.3534 0.0589 -0.9336
vn 0.0000 -0.0776 0.9970
vn 0.3931 -0.0630 0.9173
vn 0.3877 -0.0114 0.9217
vn 0.0022 -0.0111 0.9999
vn -0.3747 0.0628 -0.9250
vn -0.0090 0.0018 -1.0000
vn -0.4178 0.1398 -0.8977
vn 0.9969 -0.0792 0.0000
vn -0.9963 -0.0791 -0.0325
vn -0.9963 -0.0862 0.0000
vn -0.9371 -0.0703 -0.3420
vn -0.9258 -0.0756 -0.3704
vn -0.6483 -0.0921 -0.7558
vn -0.4878 -0.0596 -0.8709
vn -0.4944 -0.0110 -0.8692
vn -0.7547 -0.0613 -0.6532
vn -0.7521 -0.0109 -0.6590
vn -0.9358 -0.0649 0.3464
vn -0.8180 0.0272 0.5746
vn -0.9264 -0.0669 0.3706
vn -0.8622 -0.0539 0.5038
vn -0.9850 0.0557 0.1632
vn -0.9132 0.1458 0.3804
vn -0.0241 0.9994 -0.0255
vn -0.0817 0.9041 -0.4195
vn 0.0196 0.9998 0.0006
vn -0.0027 1.0000 -0.0002
vn 0.9994 -0.0280 0.0218
vn 0.9969 -0.0694 0.0374
vn 0.9296 0.0347 0.3668
vn 0.9261 -0.0707 0.3705
vn 0.8998 -0.0571 0.4326
vn -0.5016 0.8424 -0.1969
vn -0.9687 0.2482 0.0052
vn -0.9762 0.1890 -0.1060
vn 0.6476 -0.0999 -0.7554
vn 0.5551 -0.0759 -0.8283
vn 0.6586 0.0459 -0.7511
vn 0.5763 0.0415 -0.8162
vn -0.7056 -0.0706 0.7050
vn -0.6674 -0.0629 0.7421
vn -0.6442 0.2085 -0.7359
vn -0.6218 0.1907 -0.7596
vn -0.7821 0.0197 -0.6228
vn -0.9059 0.0560 -0.4199
vn -0.7856 0.2602 -0.5614
vn -0.8348 0.2313 -0.4995
vn -0.2310 0.1540 0.9607
vn -0.4154 0.2310 0.8798
vn -0.6173 0.1604 0.7702
vn -0.4367 0.0706 0.8968
vn -0.6135 0.1395 0.7773
vn 0.9129 0.0969 0.3965
vn 0.9246 0.1500 0.3502
vn 0.7903 0.2518 0.5586
vn 0.7057 0.2348 0.6685
vn 0.7065 0.1044 0.7000
vn 0.3540 0.1756 -0.9186
vn -0.0101 0.1883 -0.9821
vn -0.1000 0.2215 -0.9700
vn 0.3670 0.4591 -0.8090
vn -0.0550 0.7989 -0.5989
vn 0.9922 0.0326 -0.1199
vn 0.9913 0.0501 -0.1217
vn 0.9180 0.2387 -0.3168
vn 0.7936 0.1609 -0.5867
vn 0.6190 0.2324 -0.7503
vn 0.5278 0.5548 -0.6432
vn 0.5064 0.6590 -0.5562
vn 0.8304 0.1610 -0.5334
vn 0.9038 0.1932 -0.3817
vn 0.8918 -0.0745 -0.4463
vn 0.9312 -0.0546 -0.3604
vn 0.7319 -0.0821 -0.6764
vn 0.7339 0.0018 -0.6792
vn 0.8791 0.0018 -0.4766
vn 0.9320 -0.0459 -0.3596
vn -0.4058 -0.0174 0.9138
vn -0.0050 -0.0757 0.9971
vn -0.0049 -0.0170 0.9998
vn -0.4464 -0.0582 0.8929
vn -0.4483 -0.0577 0.8920
vn -0.0820 0.1374 0.9871
vn -0.0073 0.0843 0.9964
vn 0.3797 0.1526 0.9124
vn 0.2123 0.2621 0.9414
vn 0.3760 0.2347 0.8964
vn 0.4459 -0.0751 0.8919
usemtl Shape.001
s off
f 31//1 12//1 64//1
f 7//2 4//2 8//2
f 4//2 7//2 10//2
f 7//2 8//2 13//2
f 10//2 7//2 19//2
f 8//2 4//2 21//2
f 7//2 13//2 22//2
f 21//2 4//2 31//2
f 29//3 12//3 31//3
f 11//4 16//4 32//4
f 13//2 8//2 34//2
f 15//5 14//5 35//5
f 2//6 3//6 36//6
f 14//7 15//7 36//7
f 24//8 2//8 36//8
f 23//9 12//9 37//9
f 12//10 29//10 37//10
f 32//11 1//11 38//11
f 11//12 32//12 38//12
f 2//13 24//13 39//13
f 14//14 26//14 40//14
f 5//15 25//15 41//15
f 30//16 5//16 41//16
f 16//17 11//17 42//17
f 35//18 6//18 42//18
f 15//19 35//19 42//19
f 37//20 16//20 42//20
f 19//21 7//21 43//21
f 7//22 28//22 43//22
f 28//23 5//23 43//23
f 30//24 19//24 43//24
f 5//25 30//25 43//25
f 8//26 21//26 44//26
f 21//27 12//27 44//27
f 12//28 23//28 44//28
f 23//29 20//29 44//29
f 28//30 18//30 45//30
f 5//31 28//31 45//31
f 18//32 33//32 45//32
f 4//2 10//2 46//2
f 27//33 4//33 46//33
f 3//34 2//34 47//34
f 13//35 3//35 47//35
f 22//2 13//2 47//2
f 2//36 39//36 47//36
f 39//37 22//37 47//37
f 7//38 22//38 48//38
f 28//39 7//39 48//39
f 18//40 28//40 48//40
f 22//41 39//41 48//41
f 39//42 18//42 48//42
f 3//43 13//43 49//43
f 26//44 14//44 49//44
f 13//45 34//45 49//45
f 34//46 26//46 49//46
f 36//47 3//47 49//47
f 14//48 36//48 49//48
f 9//49 15//49 50//49
f 33//50 9//50 50//50
f 42//51 11//51 50//51
f 15//52 42//52 50//52
f 27//53 1//53 51//53
f 4//54 27//54 51//54
f 1//55 29//55 51//55
f 31//56 4//56 51//56
f 29//57 31//57 51//57
f 15//58 9//58 52//58
f 36//59 15//59 52//59
f 24//60 36//60 52//60
f 10//61 19//61 53//61
f 19//62 30//62 53//62
f 41//63 17//63 53//63
f 30//64 41//64 53//64
f 34//2 8//2 54//2
f 26//65 34//65 54//65
f 40//66 26//66 54//66
f 9//67 33//67 55//67
f 33//68 18//68 55//68
f 18//69 39//69 55//69
f 39//70 24//70 55//70
f 52//71 9//71 55//71
f 24//72 52//72 55//72
f 20//73 6//73 56//73
f 6//74 35//74 56//74
f 35//75 14//75 56//75
f 40//76 20//76 56//76
f 14//77 40//77 56//77
f 29//78 1//78 57//78
f 1//79 32//79 57//79
f 32//80 16//80 57//80
f 16//81 37//81 57//81
f 37//82 29//82 57//82
f 25//83 5//83 58//83
f 5//84 45//84 58//84
f 45//85 33//85 58//85
f 50//86 25//86 58//86
f 33//87 50//87 58//87
f 1//88 27//88 59//88
f 38//89 1//89 59//89
f 11//90 38//90 60//90
f 17//91 41//91 60//91
f 41//92 25//92 60//92
f 25//93 50//93 60//93
f 50//94 11//94 60//94
f 59//95 17//95 60//95
f 38//96 59//96 60//96
f 46//97 10//97 61//97
f 27//98 46//98 61//98
f 10//99 53//99 61//99
f 53//100 17//100 61//100
f 17//101 59//101 61//101
f 59//102 27//102 61//102
f 20//103 40//103 62//103
f 8//104 44//104 62//104
f 44//105 20//105 62//105
f 54//106 8//106 62//106
f 40//107 54//107 62//107
f 6//108 20//108 63//108
f 20//109 23//109 63//109
f 23//110 37//110 63//110
f 42//111 6//111 63//111
f 37//112 42//112 63//112
f 12//113 21//113 64//113
f 21//2 31//2 64//2
o Shape_IndexedFaceSet
v -0.123652 -0.372383 0.252999
v -0.103130 -0.372383 -0.291550
v -0.144227 -0.372383 -0.281263
v 0.141764 -0.332507 0.033878
v -0.318956 -0.341567 -0.075724
v 0.225593 -0.372383 0.057748
v 0.081726 -0.341567 -0.270975
v 0.030342 -0.341567 0.252999
v -0.318956 -0.372383 0.047460
v -0.226421 -0.341567 0.201614
v 0.194730 -0.372383 -0.168206
v -0.144227 -0.341567 -0.281263
v 0.225593 -0.341567 0.057748
v 0.122823 -0.372383 0.211848
v -0.115538 -0.333455 -0.088180
v -0.277806 -0.372383 -0.178493
v 0.225593 -0.341567 -0.096299
v -0.041904 -0.332652 0.138991
v 0.082665 -0.332674 -0.119840
v 0.081726 -0.372383 -0.270975
v -0.318956 -0.341567 0.047460
v 0.184442 -0.341567 0.150229
v -0.267572 -0.372383 0.160517
v -0.277806 -0.341567 -0.178493
v -0.123652 -0.341567 0.252999
v 0.174208 -0.341567 -0.199069
v 0.020054 -0.341567 -0.291550
v 0.030342 -0.372383 0.252999
v -0.308669 -0.372383 -0.116821
v -0.205846 -0.341567 -0.250400
v -0.143422 -0.333403 0.022184
v 0.071439 -0.341567 0.242711
v 0.225593 -0.372383 -0.096299
v -0.298381 -0.341567 0.109132
v 0.083103 -0.332609 0.120086
v 0.215305 -0.372383 0.098845
v -0.051281 -0.333175 -0.135900
v -0.195559 -0.372383 0.222136
v 0.133111 -0.372383 -0.240166
v 0.020054 -0.372383 -0.291550
v -0.205846 -0.372383 -0.250400
v 0.131788 -0.332539 -0.062629
v 0.122823 -0.341567 0.211848
v -0.103130 -0.341567 -0.291550
v -0.318956 -0.372383 -0.075724
v 0.184442 -0.372383 0.150229
v -0.267572 -0.341567 0.160517
v 0.133111 -0.341567 -0.240166
v -0.116295 -0.333253 0.087554
v 0.043791 -0.332789 -0.138309
v 0.215305 -0.341567 0.098845
v -0.154515 -0.341567 0.242711
v 0.215305 -0.341567 -0.127109
v -0.298381 -0.372383 0.109132
v -0.308669 -0.341567 -0.116821
v 0.071439 -0.372383 0.242711
v 0.044261 -0.332691 0.138669
v 0.174208 -0.372383 -0.199069
v -0.226421 -0.372383 0.201614
v 0.132005 -0.332515 0.062775
v -0.142877 -0.333507 -0.023841
vn -0.0426 0.9990 -0.0107
vn 0.0000 -1.0000 0.0000
vn -0.2428 0.0000 -0.9701
vn 0.1075 0.9942 0.0000
vn 1.0000 0.0000 0.0000
vn -1.0000 0.0000 0.0000
vn 0.0000 0.0000 1.0000
vn 0.0000 0.9970 0.0780
vn 0.3165 0.0000 -0.9486
vn -0.8943 0.0000 -0.4475
vn -0.4478 0.0000 -0.8941
vn -0.0321 0.9990 -0.0321
vn -0.7068 0.0000 -0.7074
vn -0.0465 0.9989 0.0000
vn 0.2428 0.0000 0.9701
vn -0.9486 0.0000 0.3165
vn -0.0443 0.9989 0.0148
vn 0.9701 0.0000 0.2428
vn -0.0219 0.9988 -0.0437
vn -0.0293 0.9990 -0.0336
vn -0.0058 1.0000 -0.0019
vn -0.0054 1.0000 -0.0017
vn 0.5142 0.0000 -0.8577
vn 0.0000 0.0000 -1.0000
vn 0.0923 0.9957 -0.0099
vn -0.0009 1.0000 -0.0002
vn -0.0017 1.0000 -0.0009
vn 0.0544 0.9973 -0.0491
vn 0.7071 0.0000 0.7071
vn 0.5149 0.0000 0.8573
vn 0.0678 0.9954 0.0678
vn 0.0463 0.9959 0.0772
vn -0.0124 0.9987 -0.0497
vn -0.9701 0.0000 -0.2428
vn 0.8573 0.0000 0.5149
vn -0.7066 0.0000 0.7076
vn -0.8577 0.0000 0.5142
vn 0.0353 0.9976 -0.0589
vn 0.0519 0.9973 -0.0519
vn 0.7071 0.0000 -0.7071
vn -0.0350 0.9986 0.0390
vn -0.0091 1.0000 0.0015
vn -0.0437 0.9989 0.0159
vn -0.0370 0.9986 0.0371
vn -0.0426 0.9988 0.0255
vn -0.0024 1.0000 -0.0012
vn 0.0250 0.9980 -0.0589
vn 0.0201 0.9980 -0.0603
vn -0.0041 1.0000 -0.0018
vn 0.0000 0.9984 -0.0572
vn -0.0054 0.9986 -0.0521
vn 0.1003 0.9946 0.0251
vn -0.0303 0.9981 0.0529
vn -0.3162 0.0000 0.9487
vn -0.0210 0.9978 0.0630
vn -0.3929 -0.0879 0.9154
vn -0.4946 0.0810 0.8654
vn 0.8655 0.0813 -0.4943
vn 0.9154 -0.0872 -0.3929
vn 0.9485 0.0000 -0.3167
vn 0.0856 0.9959 -0.0286
vn 0.0747 0.9963 -0.0427
vn -0.0391 0.9990 -0.0195
vn 0.0007 0.9970 0.0775
vn 0.0200 0.9966 0.0798
vn 0.0005 1.0000 0.0054
vn 0.0343 0.9965 0.0761
vn 0.8327 0.0000 -0.5537
vn -0.5537 0.0000 0.8327
vn -0.0008 1.0000 0.0000
vn -0.0001 1.0000 0.0015
vn 0.0698 0.9957 0.0612
vn 0.0942 0.9950 0.0321
vn 0.0858 0.9950 0.0515
vn -0.0449 0.9990 -0.0028
vn -0.0074 1.0000 -0.0023
vn -0.0396 0.9991 -0.0160
usemtl Shape
s off
f 119//114 69//114 125//114
f 67//115 66//115 65//115
f 65//115 66//115 70//115
f 67//115 65//115 73//115
f 70//115 66//115 75//115
f 66//116 67//116 76//116
f 65//115 70//115 78//115
f 67//115 73//115 80//115
f 68//117 77//117 81//117
f 77//118 70//118 81//118
f 75//115 66//115 84//115
f 69//119 73//119 85//119
f 73//115 65//115 87//115
f 65//120 72//120 89//120
f 72//121 82//121 89//121
f 71//122 84//122 91//122
f 72//120 65//120 92//120
f 65//115 78//115 92//115
f 80//115 73//115 93//115
f 88//123 80//123 93//123
f 76//124 67//124 94//124
f 88//125 79//125 94//125
f 80//126 88//126 94//126
f 69//127 85//127 95//127
f 72//128 92//128 96//128
f 70//115 75//115 97//115
f 81//118 70//118 97//118
f 85//129 73//129 98//129
f 95//130 85//130 98//130
f 70//131 77//131 100//131
f 78//115 70//115 100//115
f 76//132 94//132 101//132
f 94//133 79//133 101//133
f 79//134 95//134 101//134
f 95//135 82//135 101//135
f 87//115 65//115 102//115
f 84//136 71//136 103//136
f 75//115 84//115 103//115
f 84//115 66//115 104//115
f 66//137 91//137 104//137
f 91//122 84//122 104//122
f 67//115 80//115 105//115
f 94//124 67//124 105//124
f 80//126 94//126 105//126
f 68//138 81//138 106//138
f 82//139 68//139 106//139
f 83//140 82//140 106//140
f 90//141 83//141 106//141
f 78//142 86//142 107//142
f 96//143 78//143 107//143
f 86//144 99//144 107//144
f 99//145 96//145 107//145
f 66//116 76//116 108//116
f 91//137 66//137 108//137
f 76//146 101//146 108//146
f 73//119 69//119 109//119
f 69//147 93//147 109//147
f 93//115 73//115 109//115
f 86//142 78//142 110//142
f 78//115 100//115 110//115
f 100//148 86//148 110//148
f 87//149 74//149 111//149
f 98//150 87//150 111//150
f 71//151 83//151 112//151
f 83//152 90//152 112//152
f 103//136 71//136 112//136
f 90//153 103//153 112//153
f 74//154 82//154 113//154
f 82//155 95//155 113//155
f 95//156 98//156 113//156
f 111//157 74//157 113//157
f 98//158 111//158 113//158
f 82//159 83//159 114//159
f 83//160 71//160 114//160
f 71//161 91//161 114//161
f 101//162 82//162 114//162
f 91//163 108//163 114//163
f 108//164 101//164 114//164
f 77//165 68//165 115//165
f 100//131 77//131 115//131
f 86//148 100//148 115//148
f 82//166 74//166 116//166
f 65//167 89//167 116//167
f 89//168 82//168 116//168
f 102//169 65//169 116//169
f 74//170 102//170 116//170
f 75//171 90//171 117//171
f 97//172 75//172 117//172
f 81//173 97//173 117//173
f 106//174 81//174 117//174
f 90//175 106//175 117//175
f 73//115 87//115 118//115
f 98//129 73//129 118//129
f 87//150 98//150 118//150
f 79//176 88//176 119//176
f 93//147 69//147 119//147
f 88//123 93//123 119//123
f 92//115 78//115 120//115
f 78//143 96//143 120//143
f 96//128 92//128 120//128
f 82//177 72//177 121//177
f 72//178 96//178 121//178
f 99//179 82//179 121//179
f 96//180 99//180 121//180
f 90//181 75//181 122//181
f 75//115 103//115 122//115
f 103//153 90//153 122//153
f 74//149 87//149 123//149
f 87//115 102//115 123//115
f 102//182 74//182 123//182
f 68//183 82//183 124//183
f 82//184 99//184 124//184
f 99//185 86//185 124//185
f 115//186 68//186 124//186
f 86//187 115//187 124//187
f 69//188 95//188 125//188
f 95//189 79//189 125//189
f 79//190 119//190 125//190
