# Blender v2.79 (sub 0) OBJ File: ''
# www.blender.org
mtllib model.mtl
o Shape_IndexedFaceSet.004
v 0.271624 0.004350 -0.148242
v 0.461321 0.007801 0.089788
v 0.461321 -0.009445 0.089788
v 0.271624 0.014703 -0.034376
v 0.271624 -0.009445 -0.034376
v 0.309582 -0.005994 -0.141298
v 0.354411 0.007801 -0.068883
v 0.444069 0.011250 0.069075
v 0.271624 -0.009445 -0.075756
v 0.309582 0.004350 -0.141298
v 0.409566 -0.009445 0.006981
v 0.454413 0.007801 0.089788
v 0.285422 0.014703 -0.041296
v 0.461321 0.007801 0.082868
v 0.271624 -0.005994 -0.148242
v 0.454413 -0.009445 0.089788
v 0.288876 0.007801 -0.127528
v 0.275079 0.014703 -0.030951
v 0.340614 0.011250 -0.041296
v 0.461321 -0.009445 0.082868
v 0.316472 -0.009445 -0.061986
v 0.271624 0.011250 -0.093045
v 0.275079 -0.009445 -0.030951
v 0.437161 0.011250 0.072523
v 0.302674 0.014703 -0.027503
v 0.440615 0.007801 0.051833
v 0.313018 0.007801 -0.110287
v 0.395768 0.011250 0.013878
v 0.281987 0.004350 -0.148242
v 0.271624 0.007801 -0.130977
v 0.440615 -0.009445 0.051833
v 0.281987 -0.005994 -0.148242
vn 0.0000 0.0000 -1.0000
vn -1.0000 0.0000 0.0000
vn 0.0000 -1.0000 -0.0000
vn 0.0000 0.0000 1.0000
vn 1.0000 0.0000 0.0000
vn 0.1960 0.9806 0.0000
vn -0.7040 0.0000 0.7102
vn 0.0000 1.0000 0.0000
vn -0.5585 0.0000 0.8295
vn 0.0137 -0.9989 -0.0447
vn 0.0344 -0.9983 -0.0464
vn -0.0295 0.9978 -0.0587
vn 0.0432 0.9960 -0.0780
vn 0.0582 0.9915 0.1166
vn 0.0000 0.9806 0.1959
vn -0.2545 0.8674 0.4276
vn -0.0052 0.9991 0.0415
vn 0.0103 0.9997 0.0207
vn 0.3512 0.9021 -0.2508
vn 0.8275 0.0000 -0.5614
vn 0.4269 0.8514 -0.3048
vn 0.3809 0.8890 -0.2541
vn 0.8319 0.0000 -0.5550
vn 0.1233 0.9847 -0.1232
vn 0.0854 0.9892 -0.1195
vn 0.0553 0.9955 -0.0775
vn 0.0828 0.9931 -0.0828
vn 0.0603 0.9953 -0.0754
vn 0.0633 0.9952 -0.0751
vn 0.1098 0.9893 -0.0961
vn 0.0605 0.9968 -0.0529
vn 0.0665 0.9956 -0.0664
vn 0.2440 0.0000 -0.9698
vn 0.0450 0.9829 -0.1787
vn 0.0351 0.9838 -0.1756
vn 0.0181 0.9957 -0.0905
vn 0.0000 0.9806 -0.1960
vn 0.6943 -0.5357 -0.4806
vn 0.0116 -0.9989 -0.0459
vn 0.0000 -0.9989 -0.0476
usemtl Shape.004
s off
f 15//1 29//1 32//1
f 4//2 1//2 5//2
f 5//2 1//2 9//2
f 3//3 5//3 9//3
f 3//3 9//3 11//3
f 3//4 2//4 12//4
f 2//5 3//5 14//5
f 8//6 2//6 14//6
f 9//2 1//2 15//2
f 5//3 3//3 16//3
f 3//4 12//4 16//4
f 4//7 5//7 18//7
f 13//8 4//8 18//8
f 16//9 12//9 18//9
f 3//3 11//3 20//3
f 14//5 3//5 20//5
f 9//10 6//10 21//10
f 11//3 9//3 21//3
f 6//11 11//11 21//11
f 1//2 4//2 22//2
f 4//12 13//12 22//12
f 13//13 17//13 22//13
f 5//3 16//3 23//3
f 18//7 5//7 23//7
f 16//9 18//9 23//9
f 2//14 8//14 24//14
f 12//15 2//15 24//15
f 18//16 12//16 24//16
f 18//17 24//17 25//17
f 13//8 18//8 25//8
f 24//18 8//18 25//18
f 7//19 8//19 26//19
f 6//20 10//20 26//20
f 10//21 7//21 26//21
f 8//22 14//22 26//22
f 14//23 20//23 26//23
f 7//24 10//24 27//24
f 10//25 17//25 27//25
f 17//26 13//26 27//26
f 19//27 7//27 27//27
f 13//28 25//28 27//28
f 25//29 19//29 27//29
f 8//30 7//30 28//30
f 7//27 19//27 28//27
f 25//31 8//31 28//31
f 19//32 25//32 28//32
f 10//33 6//33 29//33
f 15//1 1//1 29//1
f 17//34 10//34 29//34
f 17//35 29//35 30//35
f 1//2 22//2 30//2
f 22//36 17//36 30//36
f 29//37 1//37 30//37
f 11//38 6//38 31//38
f 20//3 11//3 31//3
f 6//20 26//20 31//20
f 26//23 20//23 31//23
f 6//39 9//39 32//39
f 9//40 15//40 32//40
f 29//33 6//33 32//33
o Shape_IndexedFaceSet.003
v 0.271606 0.014703 -0.051676
v 0.061174 -0.005995 -0.199971
v 0.061174 0.004354 -0.199971
v 0.061174 -0.009445 -0.058564
v 0.271606 -0.005995 -0.148228
v 0.061585 0.018099 -0.058793
v 0.271606 -0.009445 -0.034418
v 0.271606 0.007801 -0.130985
v 0.143999 0.018153 -0.075806
v 0.264705 0.014703 -0.034418
v 0.230203 -0.009445 -0.089613
v 0.074974 0.007801 -0.186164
v 0.268125 0.004354 -0.151679
v 0.061174 0.018153 -0.082709
v 0.061174 -0.009445 -0.103404
v 0.071555 -0.005995 -0.199971
v 0.178440 0.018153 -0.062015
v 0.268125 -0.005995 -0.151679
v 0.130178 0.004354 -0.186164
v 0.271606 -0.009445 -0.079258
v 0.250905 0.011251 -0.106855
v 0.264705 -0.009445 -0.034418
v 0.271606 0.014703 -0.034418
v 0.061174 0.007801 -0.186164
v 0.071555 0.004354 -0.199971
v 0.123277 0.018153 -0.079258
v 0.178440 0.018153 -0.058564
v 0.240523 0.011251 -0.110307
v 0.233623 0.014703 -0.075806
vn 0.0402 0.9953 -0.0883
vn -1.0000 0.0000 0.0000
vn 1.0000 0.0000 0.0000
vn -0.1190 0.0100 0.9928
vn -0.0000 -1.0000 -0.0000
vn 0.9468 0.2514 -0.2011
vn 0.0483 0.9839 -0.1720
vn -0.9997 0.0151 0.0172
vn 0.0029 -0.9994 -0.0354
vn 0.0000 0.0000 -1.0000
vn 0.0000 -0.9994 -0.0357
vn -0.0000 1.0000 -0.0000
vn 0.7040 0.0000 -0.7102
vn 0.0119 -0.9988 -0.0483
vn 0.2382 -0.0558 -0.9696
vn 0.0605 0.9684 -0.2419
vn 0.2425 0.0000 -0.9701
vn 0.0495 -0.9975 -0.0499
vn 0.0120 -0.9988 -0.0482
vn 0.0648 0.9941 -0.0865
vn 0.0372 0.9950 -0.0930
vn -0.1178 0.0000 0.9930
vn 0.0000 0.0000 1.0000
vn 0.0370 0.9993 0.0000
vn 0.0000 0.9702 -0.2422
vn 0.0000 0.9950 -0.0996
vn 0.2292 0.0000 -0.9734
vn 0.0602 0.9649 -0.2558
vn 0.0173 0.9944 -0.1041
vn 0.0055 0.9951 -0.0988
vn -0.0007 0.9896 0.1440
vn -0.0005 1.0000 0.0023
vn 0.0000 0.9899 0.1414
vn 0.0327 0.9927 -0.1165
vn 0.0308 0.9932 -0.1124
vn 0.0367 0.9932 -0.1105
vn 0.0343 0.9941 -0.1030
vn 0.0447 0.9965 -0.0704
vn 0.0519 0.9953 -0.0817
usemtl Shape.003
s off
f 53//41 49//41 61//41
f 35//42 34//42 36//42
f 37//43 33//43 39//43
f 33//43 37//43 40//43
f 38//44 36//44 42//44
f 39//45 36//45 43//45
f 40//46 37//46 45//46
f 44//47 40//47 45//47
f 35//42 36//42 46//42
f 36//48 38//48 46//48
f 36//42 34//42 47//42
f 43//45 36//45 47//45
f 43//49 47//49 48//49
f 34//50 35//50 48//50
f 47//51 34//51 48//51
f 41//52 46//52 49//52
f 45//53 37//53 50//53
f 43//54 48//54 50//54
f 50//55 48//55 51//55
f 44//56 45//56 51//56
f 45//57 50//57 51//57
f 37//43 39//43 52//43
f 39//45 43//45 52//45
f 50//58 37//58 52//58
f 43//59 50//59 52//59
f 33//60 40//60 53//60
f 41//61 49//61 53//61
f 36//45 39//45 54//45
f 42//62 36//62 54//62
f 39//63 42//63 54//63
f 39//43 33//43 55//43
f 42//63 39//63 55//63
f 33//64 49//64 55//64
f 44//65 35//65 56//65
f 35//42 46//42 56//42
f 46//66 44//66 56//66
f 35//65 44//65 57//65
f 48//50 35//50 57//50
f 51//67 48//67 57//67
f 44//68 51//68 57//68
f 41//69 44//69 58//69
f 46//52 41//52 58//52
f 44//70 46//70 58//70
f 38//71 42//71 59//71
f 46//72 38//72 59//72
f 49//52 46//52 59//52
f 42//73 55//73 59//73
f 55//64 49//64 59//64
f 40//74 44//74 60//74
f 44//75 41//75 60//75
f 53//76 40//76 60//76
f 41//77 53//77 60//77
f 49//78 33//78 61//78
f 33//79 53//79 61//79
o Shape_IndexedFaceSet.002
v -0.015869 0.003859 -0.257192
v 0.061174 0.021596 -0.055119
v 0.061174 -0.009437 -0.055119
v -0.031960 -0.012882 0.065640
v -0.007821 0.031952 0.065640
v 0.012872 -0.033593 0.065640
v 0.026671 -0.005992 -0.262064
v -0.039897 -0.005113 -0.190851
v -0.003156 0.025051 -0.174413
v -0.049217 0.007802 -0.193059
v 0.033576 0.007796 0.065640
v 0.061174 0.007796 -0.189581
v -0.011268 -0.033593 0.051832
v -0.025066 -0.005985 -0.265472
v -0.028503 0.018151 0.065640
v 0.015170 0.025242 -0.171781
v 0.017913 -0.017229 -0.167188
v 0.061174 -0.009437 -0.106872
v 0.009414 0.031952 0.065640
v 0.012422 0.000787 -0.274825
v 0.030118 -0.019792 0.065640
v -0.041990 0.000774 -0.008089
v -0.021015 -0.017311 -0.158502
v -0.030620 -0.017592 -0.113496
v -0.018671 0.022293 -0.165907
v -0.037837 0.016975 -0.066850
v -0.028503 -0.019786 0.065640
v 0.029686 -0.017118 -0.143093
v -0.007821 -0.005985 -0.279315
v 0.023224 0.025048 0.065640
v -0.040624 -0.005473 -0.011048
v 0.002993 -0.017247 -0.176217
v 0.012872 -0.033593 0.051832
v -0.018162 0.028500 0.065640
v -0.018162 -0.030135 0.065640
v 0.051331 -0.005070 -0.184266
v -0.006472 0.022521 -0.188279
v -0.006863 0.000780 -0.277356
v 0.033576 -0.009437 0.065640
v 0.009414 0.031952 0.051832
v 0.009414 -0.005985 -0.279315
v 0.018259 0.025275 -0.165727
v -0.031960 0.011248 0.065640
v 0.061174 0.021596 -0.062005
v -0.007821 0.031952 0.051832
v -0.008956 -0.017244 -0.173252
v 0.019777 -0.030141 0.065640
v -0.027016 -0.017314 -0.143508
v -0.012740 0.022567 -0.182173
v 0.026671 0.021596 0.065640
v 0.002860 0.003858 -0.266462
v -0.038768 -0.007806 -0.116165
v 0.016319 -0.005985 -0.275872
v -0.011268 -0.033593 0.065640
v 0.018787 0.000775 -0.267315
v 0.009025 0.025178 -0.174719
vn 0.0330 0.9730 -0.2283
vn 0.0000 0.0000 1.0000
vn 0.9749 0.0000 0.2228
vn 1.0000 0.0000 0.0000
vn -0.5374 0.7773 -0.3272
vn -0.7894 -0.5953 -0.1499
vn 0.2663 0.9362 -0.2293
vn -0.4068 0.9131 -0.0297
vn -0.9067 0.4186 0.0513
vn 0.2063 -0.9737 -0.0963
vn 0.4442 0.8886 0.1142
vn -0.9643 -0.2510 0.0847
vn -0.9735 -0.2268 0.0294
vn -0.8927 -0.4470 0.0577
vn -0.7662 -0.6425 0.0012
vn 0.0000 -1.0000 0.0000
vn 0.1528 -0.9858 -0.0701
vn 0.2960 -0.9536 -0.0551
vn 0.0000 -0.9974 -0.0715
vn 0.0456 -0.9963 -0.0734
vn -0.3803 0.9245 -0.0239
vn -0.7067 0.7062 0.0435
vn -0.4907 -0.8709 -0.0269
vn -0.7074 -0.7068 -0.0003
vn 0.7276 -0.6488 -0.2229
vn 0.7600 -0.6362 -0.1326
vn 0.3382 -0.9361 -0.0961
vn 0.3386 -0.9360 -0.0959
vn -0.5187 0.7797 -0.3507
vn -0.5972 0.3000 -0.7439
vn -0.1931 0.9534 -0.2318
vn 0.9270 -0.3096 0.2118
vn 0.1962 0.9806 0.0000
vn 0.0000 1.0000 0.0000
vn 0.0000 -0.9941 -0.1086
vn 0.0000 0.2782 -0.9605
vn 0.1114 0.5143 -0.8503
vn 0.2967 0.9421 -0.1565
vn 0.0457 0.9985 -0.0288
vn -0.9909 0.0000 0.1348
vn -0.8926 0.4470 0.0589
vn -0.8947 0.4427 0.0588
vn 0.3263 0.9398 -0.1017
vn 0.1440 0.9893 -0.0245
vn -0.1929 0.9806 -0.0339
vn -0.3166 0.9485 0.0000
vn -0.3457 0.9380 -0.0244
vn -0.0838 -0.9938 -0.0730
vn -0.1170 -0.9881 -0.1002
vn -0.0852 -0.9907 -0.1061
vn -0.0183 -0.9972 -0.0726
vn -0.0265 -0.9940 -0.1058
vn 0.4473 -0.8944 -0.0000
vn 0.7022 -0.7017 0.1204
vn 0.4472 -0.8945 0.0000
vn 0.4472 -0.8944 -0.0000
vn -0.4947 -0.8646 -0.0882
vn -0.1700 -0.9831 -0.0682
vn -0.2335 -0.9678 -0.0936
vn -0.5338 -0.8426 -0.0719
vn -0.3458 -0.9370 -0.0502
vn -0.3096 0.9256 -0.2179
vn -0.2058 0.9768 -0.0586
vn -0.3446 0.9323 -0.1099
vn -0.2150 0.9497 -0.2279
vn -0.1354 0.9799 -0.1464
vn 0.8665 0.4335 0.2476
vn 0.6936 0.6926 0.1982
vn 0.1073 0.9667 -0.2323
vn 0.0396 0.9518 -0.3042
vn -0.0420 0.9707 -0.2367
vn -0.8101 -0.5862 -0.0089
vn -0.7669 -0.6417 -0.0115
vn -0.8262 -0.5634 -0.0021
vn -0.7686 -0.6398 0.0006
vn 0.1380 -0.9850 -0.1039
vn 0.0639 -0.9926 -0.1036
vn 0.4150 0.3675 -0.8323
vn 0.0525 -0.9931 -0.1052
vn -0.4484 -0.8939 0.0000
vn 0.7352 0.5097 -0.4469
vn 0.2826 0.9292 -0.2380
vn 0.7251 0.4231 -0.5434
vn 0.6719 0.4746 -0.5687
vn -0.0147 0.9843 -0.1761
vn 0.0039 0.9995 -0.0299
vn -0.0112 0.9995 -0.0307
vn 0.0000 0.9996 -0.0299
vn 0.1007 0.9676 -0.2316
usemtl Shape.002
s off
f 112//80 98//80 117//80
f 66//81 65//81 67//81
f 64//82 63//82 72//82
f 66//81 67//81 72//81
f 63//83 64//83 73//83
f 71//84 62//84 75//84
f 69//85 71//85 75//85
f 65//81 66//81 76//81
f 73//83 64//83 79//83
f 66//81 72//81 80//81
f 77//86 73//86 81//86
f 72//81 67//81 82//81
f 86//87 71//87 87//87
f 71//88 83//88 87//88
f 67//81 65//81 88//81
f 78//89 68//89 89//89
f 63//90 80//90 91//90
f 80//81 72//81 91//81
f 65//91 83//91 92//91
f 83//92 71//92 92//92
f 88//93 65//93 92//93
f 85//94 88//94 92//94
f 67//95 74//95 94//95
f 78//96 89//96 94//96
f 89//97 79//97 94//97
f 74//98 93//98 94//98
f 93//99 78//99 94//99
f 76//81 66//81 95//81
f 86//100 87//100 95//100
f 87//101 76//101 95//101
f 85//102 74//102 96//102
f 67//81 88//81 96//81
f 88//103 85//103 96//103
f 68//104 73//104 97//104
f 73//105 79//105 97//105
f 89//106 68//106 97//106
f 79//107 89//107 97//107
f 75//108 62//108 99//108
f 90//109 75//109 99//109
f 62//110 98//110 99//110
f 64//82 72//82 100//82
f 82//111 64//111 100//111
f 72//81 82//81 100//81
f 80//112 63//112 101//112
f 66//113 80//113 101//113
f 93//114 90//114 102//114
f 90//115 99//115 102//115
f 99//116 81//116 102//116
f 73//117 77//117 103//117
f 77//118 101//118 103//118
f 65//81 76//81 104//81
f 83//119 65//119 104//119
f 76//120 87//120 104//120
f 87//121 83//121 104//121
f 63//83 73//83 105//83
f 101//112 63//112 105//112
f 73//122 103//122 105//122
f 103//123 101//123 105//123
f 70//124 86//124 106//124
f 95//125 66//125 106//125
f 86//126 95//126 106//126
f 66//113 101//113 106//113
f 74//127 84//127 107//127
f 84//128 75//128 107//128
f 75//129 90//129 107//129
f 93//130 74//130 107//130
f 90//131 93//131 107//131
f 79//132 64//132 108//132
f 64//133 82//133 108//133
f 82//81 67//81 108//81
f 67//134 94//134 108//134
f 94//135 79//135 108//135
f 69//136 75//136 109//136
f 84//137 74//137 109//137
f 75//138 84//138 109//138
f 85//139 69//139 109//139
f 74//140 85//140 109//140
f 62//141 71//141 110//141
f 86//142 70//142 110//142
f 71//143 86//143 110//143
f 98//144 62//144 110//144
f 70//145 98//145 110//145
f 72//146 63//146 111//146
f 63//147 91//147 111//147
f 91//81 72//81 111//81
f 77//148 81//148 112//148
f 81//149 99//149 112//149
f 99//150 98//150 112//150
f 71//151 69//151 113//151
f 69//152 85//152 113//152
f 92//153 71//153 113//153
f 85//154 92//154 113//154
f 68//155 78//155 114//155
f 78//156 93//156 114//156
f 102//157 81//157 114//157
f 93//158 102//158 114//158
f 74//95 67//95 115//95
f 67//81 96//81 115//81
f 96//159 74//159 115//159
f 73//160 68//160 116//160
f 81//161 73//161 116//161
f 68//162 114//162 116//162
f 114//163 81//163 116//163
f 98//164 70//164 117//164
f 101//165 77//165 117//165
f 70//166 106//166 117//166
f 106//167 101//167 117//167
f 77//168 112//168 117//168
o Shape_IndexedFaceSet.001
v -0.238941 0.014699 -0.044751
v -0.071212 -0.004820 -0.195744
v -0.049217 -0.009442 -0.055111
v -0.049217 0.021599 -0.058559
v -0.245850 -0.009442 -0.044751
v -0.245850 0.004356 -0.158577
v -0.049217 0.007802 -0.193077
v -0.245850 -0.005990 -0.158577
v -0.245850 0.011250 -0.110316
v -0.049217 -0.009442 -0.113764
v -0.169919 0.018148 -0.068905
v -0.063018 0.004356 -0.203437
v -0.245850 -0.009442 -0.086162
v -0.049217 0.021599 -0.055111
v -0.058009 -0.004911 -0.196342
v -0.245850 0.014699 -0.068905
v -0.066482 0.021599 -0.062008
v -0.080283 0.007802 -0.186180
v -0.245850 0.014699 -0.044751
v -0.049217 0.004356 -0.203437
v -0.238941 0.007802 -0.141336
v -0.149247 0.018148 -0.075801
v -0.183738 0.018148 -0.058559
v -0.238941 -0.009442 -0.044751
v -0.066482 0.021599 -0.055111
v -0.235495 -0.009442 -0.089610
v -0.052682 0.007802 -0.193077
v -0.135466 0.004356 -0.186180
v -0.056127 -0.009442 -0.113764
v -0.238941 0.014699 -0.075801
vn -0.0475 0.9977 -0.0476
vn 1.0000 0.0000 0.0000
vn -1.0000 0.0000 0.0000
vn 0.0000 -1.0000 -0.0000
vn -0.1720 -0.5382 -0.8251
vn 0.0545 0.0000 0.9985
vn -0.0105 -0.9967 -0.0809
vn -0.0397 -0.6209 -0.7829
vn 0.0204 0.9946 -0.1020
vn 0.0000 1.0000 0.0000
vn 0.0000 0.0000 1.0000
vn 0.0000 0.8323 0.5543
vn 0.0000 0.9489 -0.3156
vn 0.6767 -0.7277 -0.1120
vn 0.0000 -0.6079 -0.7940
vn -0.1395 0.9803 -0.1400
vn -0.0499 0.9830 -0.1765
vn -0.0333 0.9925 -0.1177
vn -0.0343 0.9941 -0.1027
vn -0.0277 0.9962 -0.0830
vn -0.0308 0.9932 -0.1123
vn -0.0306 0.9987 -0.0409
vn -0.0554 0.9985 0.0000
vn -0.0294 0.9996 0.0000
vn -0.0323 0.9941 0.1031
vn -0.0159 -0.9987 -0.0476
vn 0.0000 0.9945 -0.1047
vn -0.0236 0.9940 -0.1071
vn -0.0276 0.9935 -0.1104
vn -0.2426 0.0000 -0.9701
vn -0.2300 -0.1222 -0.9655
vn -0.0605 0.9684 -0.2418
vn -0.0617 0.9639 -0.2591
vn -0.0605 0.9684 -0.2420
vn -0.0053 -0.9985 -0.0547
vn 0.0000 -0.9985 -0.0548
vn -0.0066 -0.9988 -0.0490
vn -0.0406 0.9950 -0.0913
vn -0.0826 0.9931 -0.0827
vn -0.0440 0.9973 -0.0587
usemtl Shape.001
s off
f 133//169 140//169 147//169
f 121//170 120//170 124//170
f 122//171 123//171 125//171
f 123//171 122//171 126//171
f 120//172 122//172 127//172
f 124//170 120//170 127//170
f 119//173 125//173 129//173
f 122//171 125//171 130//171
f 127//172 122//172 130//172
f 118//174 120//174 131//174
f 120//170 121//170 131//170
f 125//175 119//175 132//175
f 119//176 129//176 132//176
f 126//171 122//171 133//171
f 121//177 124//177 134//177
f 131//178 121//178 134//178
f 122//179 118//179 136//179
f 118//180 131//180 136//180
f 133//171 122//171 136//171
f 124//170 127//170 137//170
f 129//181 124//181 137//181
f 127//182 132//182 137//182
f 132//183 129//183 137//183
f 123//184 126//184 138//184
f 135//185 123//185 138//185
f 126//186 135//186 138//186
f 126//187 128//187 139//187
f 128//188 134//188 139//188
f 135//189 126//189 139//189
f 134//190 128//190 140//190
f 133//191 136//191 140//191
f 120//174 118//174 141//174
f 118//179 122//179 141//179
f 122//172 120//172 141//172
f 131//178 134//178 142//178
f 136//180 131//180 142//180
f 134//192 140//192 142//192
f 140//193 136//193 142//193
f 130//194 125//194 143//194
f 127//172 130//172 143//172
f 124//181 129//181 144//181
f 134//195 124//195 144//195
f 139//196 134//196 144//196
f 135//197 139//197 144//197
f 125//198 123//198 145//198
f 129//199 125//199 145//199
f 123//200 135//200 145//200
f 144//201 129//201 145//201
f 135//202 144//202 145//202
f 125//203 132//203 146//203
f 132//204 127//204 146//204
f 143//205 125//205 146//205
f 127//172 143//172 146//172
f 128//206 126//206 147//206
f 126//207 133//207 147//207
f 140//208 128//208 147//208
o Shape_IndexedFaceSet
v -0.318313 0.011250 -0.065420
v -0.245850 0.014703 -0.044734
v -0.249308 0.014703 -0.041282
v -0.245850 -0.009445 -0.044734
v -0.466632 -0.009445 0.089764
v -0.314855 -0.005994 -0.141310
v -0.449364 0.011250 0.069054
v -0.245850 0.004350 -0.155117
v -0.314855 0.004350 -0.141310
v -0.245850 -0.005994 -0.155117
v -0.459716 0.007801 0.089764
v -0.297631 -0.009445 -0.072324
v -0.466632 0.007801 0.082861
v -0.249308 0.014703 -0.068872
v -0.414851 -0.009445 0.006970
v -0.459716 -0.009445 0.089764
v -0.307983 0.014703 -0.027523
v -0.294173 0.007801 -0.127503
v -0.359677 0.007801 -0.068872
v -0.245850 -0.009445 -0.086130
v -0.466632 -0.009445 0.082861
v -0.249308 -0.009445 -0.041282
v -0.245850 0.007801 -0.137859
v -0.442449 0.011250 0.072505
v -0.401085 0.011250 0.013874
v -0.259660 0.004350 -0.155117
v -0.445928 0.007801 0.051819
v -0.259660 -0.005994 -0.155117
v -0.318313 0.007801 -0.110269
v -0.256202 0.011250 -0.106817
v -0.304504 0.014703 -0.020619
v -0.404499 -0.009445 -0.003361
v -0.445928 -0.009445 0.051819
v -0.276906 0.014703 -0.051637
vn -0.0556 0.9954 -0.0779
vn 0.7065 0.0000 0.7077
vn 1.0000 0.0000 0.0000
vn 0.0000 -1.0000 -0.0000
vn -0.6797 0.2726 0.6810
vn -0.1096 0.9879 0.1098
vn 0.0000 1.0000 0.0000
vn 0.5287 0.0000 0.8488
vn 0.0000 0.0000 1.0000
vn -0.0125 -0.9988 -0.0468
vn -1.0000 0.0000 0.0000
vn 0.4585 0.8863 -0.0657
vn 0.2170 0.8925 0.3955
vn -0.0658 0.9891 0.1318
vn -0.0689 0.9950 -0.0719
vn -0.0605 0.9968 -0.0529
vn -0.1101 0.9892 -0.0963
vn -0.2427 0.0000 -0.9701
vn 0.0000 0.0000 -1.0000
vn -0.0447 0.9829 -0.1787
vn 0.0000 0.9806 -0.1961
vn -0.0360 0.9851 -0.1681
vn -0.8274 0.0000 -0.5616
vn -0.3806 0.8892 -0.2538
vn -0.3505 0.9025 -0.2505
vn -0.4241 0.8534 -0.3030
vn -0.8319 0.0000 -0.5549
vn 0.0000 -0.9988 -0.0500
vn -0.0119 -0.9988 -0.0476
vn -0.0853 0.9892 -0.1195
vn -0.1233 0.9847 -0.1232
vn -0.0733 0.9944 -0.0765
vn -0.0830 0.9931 -0.0829
vn -0.0456 0.9956 -0.0823
vn 0.0388 0.9945 -0.0975
vn -0.0255 0.9926 -0.1188
vn -0.0182 0.9998 0.0092
vn 0.0310 0.9961 0.0829
vn -0.0106 0.9997 0.0213
vn -0.0278 -0.9987 -0.0430
vn -0.0707 -0.9950 -0.0708
vn -0.6875 -0.5480 -0.4764
vn -0.0581 0.9955 -0.0749
vn -0.0495 0.9956 -0.0793
vn -0.0575 0.9954 -0.0765
usemtl Shape
s off
f 165//209 176//209 181//209
f 149//210 150//210 151//210
f 149//211 151//211 155//211
f 155//211 151//211 157//211
f 151//212 152//212 159//212
f 152//213 158//213 160//213
f 158//214 154//214 160//214
f 150//215 149//215 161//215
f 159//212 152//212 162//212
f 152//212 151//212 163//212
f 150//216 158//216 163//216
f 158//217 152//217 163//217
f 150//215 161//215 164//215
f 157//211 151//211 167//211
f 151//212 159//212 167//212
f 159//218 153//218 167//218
f 152//219 160//219 168//219
f 162//212 152//212 168//212
f 151//210 150//210 169//210
f 150//216 163//216 169//216
f 163//212 151//212 169//212
f 149//211 155//211 170//211
f 161//220 149//220 170//220
f 158//221 150//221 171//221
f 154//222 158//222 171//222
f 164//223 148//223 172//223
f 154//224 164//224 172//224
f 166//225 154//225 172//225
f 153//226 156//226 173//226
f 155//227 157//227 173//227
f 156//228 165//228 173//228
f 170//229 155//229 173//229
f 165//230 170//230 173//230
f 156//231 153//231 174//231
f 160//232 154//232 174//232
f 154//233 166//233 174//233
f 166//234 156//234 174//234
f 168//235 160//235 174//235
f 157//236 167//236 175//236
f 167//237 153//237 175//237
f 153//226 173//226 175//226
f 173//227 157//227 175//227
f 165//238 156//238 176//238
f 156//239 166//239 176//239
f 172//240 148//240 176//240
f 166//241 172//241 176//241
f 165//242 161//242 177//242
f 161//243 170//243 177//243
f 170//244 165//244 177//244
f 164//245 154//245 178//245
f 150//215 164//215 178//215
f 171//246 150//246 178//246
f 154//247 171//247 178//247
f 153//248 159//248 179//248
f 159//212 162//212 179//212
f 162//249 153//249 179//249
f 153//250 162//250 180//250
f 162//212 168//212 180//212
f 174//231 153//231 180//231
f 168//235 174//235 180//235
f 148//251 164//251 181//251
f 164//215 161//215 181//215
f 161//252 165//252 181//252
f 176//253 148//253 181//253
