# Blender v2.79 (sub 0) OBJ File: ''
# www.blender.org
mtllib model.mtl
o Shape_IndexedFaceSet
v -0.067886 -0.383359 -0.212697
v 0.032199 0.206089 0.232035
v -0.034304 0.205869 0.231842
v 0.032347 0.296471 -0.212869
v 0.232331 -0.349265 0.021104
v -0.210339 -0.335590 0.109039
v -0.212594 0.296007 -0.034430
v 0.211383 0.297560 0.043631
v 0.076678 -0.382326 0.209858
v 0.173514 -0.289487 -0.164741
v -0.197815 -0.311760 -0.132183
v -0.132497 0.191662 -0.198255
v 0.206783 0.191317 -0.121382
v -0.154452 0.290339 0.152333
v 0.174458 0.192049 0.163511
v -0.122999 -0.381839 0.187431
v 0.134032 -0.420560 -0.113621
v -0.169970 -0.420798 -0.046030
v 0.032114 -0.336980 -0.233562
v -0.234301 0.195127 0.043280
v 0.077493 0.298770 0.200907
v 0.207373 -0.312636 0.119607
v 0.131115 0.193016 -0.199315
v 0.100177 -0.420318 0.145147
v -0.234144 -0.326686 -0.034323
v -0.220727 0.192329 -0.088898
v -0.164733 0.190744 0.173520
v -0.056376 -0.325838 0.231285
v 0.230581 0.193389 0.065110
v -0.045440 0.194816 -0.234016
v 0.231285 -0.325857 -0.056373
v 0.119647 -0.312651 0.207356
v -0.158375 0.299306 -0.147145
v -0.088910 -0.301941 -0.220696
v 0.186071 0.291972 -0.111127
v 0.229797 0.192531 -0.067002
v 0.043315 0.195122 -0.234296
v 0.109083 -0.335618 -0.210314
v 0.200027 -0.406639 0.054798
v -0.147047 -0.419776 0.100037
v -0.121379 -0.290043 0.206786
v 0.054304 -0.326132 0.231543
v 0.119943 0.192665 0.207868
v 0.043546 -0.406374 -0.202005
v 0.187422 -0.381849 -0.122999
v -0.121379 0.191301 0.206786
v -0.045738 0.297066 0.211106
v -0.223151 -0.371246 0.054419
v -0.146473 -0.407147 -0.146516
v -0.212019 0.195072 0.109923
v -0.056820 -0.406011 0.199677
v -0.143618 -0.334432 -0.187540
v -0.188879 0.193843 -0.144716
v -0.191644 0.298534 0.099858
v 0.163441 -0.367409 0.163455
v -0.164733 -0.289535 0.173520
v -0.046128 -0.420787 -0.170009
v -0.234029 0.194829 -0.045344
v 0.206783 -0.290058 -0.121382
v -0.233603 -0.314969 0.043147
v 0.153546 0.293144 0.153514
v -0.101541 0.297139 -0.190947
v -0.212707 -0.383372 -0.067836
v 0.207885 0.192650 0.119904
vn 0.7730 0.2188 0.5955
vn 0.7175 0.0132 -0.6964
vn 0.0010 -1.0000 0.0011
vn -0.9368 -0.0126 -0.3497
vn -0.0029 -0.0009 1.0000
vn 0.9677 -0.0173 0.2516
vn 0.0108 0.9999 -0.0118
vn 0.0060 1.0000 -0.0026
vn -0.8675 0.2829 -0.4090
vn -0.1428 -0.1332 -0.9807
vn -0.3802 0.0085 -0.9249
vn -0.1106 -0.0170 -0.9937
vn 0.0595 0.9972 -0.0457
vn 0.5156 0.3924 -0.7617
vn 0.7032 0.2138 -0.6781
vn 0.9837 0.1798 -0.0070
vn 1.0000 0.0037 -0.0060
vn 0.9999 0.0026 -0.0127
vn 0.9278 0.3353 -0.1639
vn 0.8958 0.2235 -0.3841
vn 0.3649 0.2302 -0.9021
vn -0.0038 0.2065 -0.9784
vn -0.0032 -0.0013 -1.0000
vn 0.5809 -0.0073 -0.8139
vn 0.3702 0.0039 -0.9289
vn 0.2893 -0.0074 -0.9572
vn 0.8909 -0.3029 0.3384
vn 0.1544 -0.9878 0.0211
vn -0.0036 -1.0000 0.0076
vn -0.4317 -0.1788 0.8841
vn -0.0023 -0.0010 1.0000
vn -0.0031 -0.3611 0.9325
vn 0.3761 -0.1994 0.9049
vn 0.3473 -0.0012 0.9377
vn 0.2864 0.1764 0.9418
vn 0.6311 -0.0012 0.7757
vn 0.2670 0.0102 0.9636
vn 0.0019 -0.4137 -0.9104
vn 0.2756 -0.3599 -0.8913
vn 0.4768 -0.5244 -0.7054
vn 0.8599 -0.4853 -0.1582
vn 0.6642 -0.2225 -0.7137
vn 0.8275 -0.5450 -0.1347
vn 0.5623 -0.8126 -0.1532
vn 0.4247 -0.7190 -0.5502
vn -0.5949 0.2255 0.7715
vn -0.2781 0.0105 0.9605
vn -0.6088 -0.0000 0.7934
vn -0.3527 -0.0000 0.9357
vn -0.0036 0.2213 0.9752
vn 0.0752 0.2843 0.9558
vn -0.2993 0.1757 0.9378
vn -0.4679 0.3007 0.8311
vn -0.7096 -0.5022 0.4943
vn -0.6557 -0.6098 0.4452
vn -0.5755 -0.8122 0.0960
vn -0.7784 0.2065 0.5928
vn 0.1084 -0.8396 0.5323
vn -0.0059 -0.3667 0.9303
vn -0.2923 -0.3493 0.8902
vn -0.3786 -0.8064 0.4542
vn -0.0324 -0.9857 0.1655
vn -0.4207 -0.1957 -0.8859
vn -0.5154 -0.0066 -0.8569
vn -0.7398 -0.3083 -0.5980
vn -0.5135 -0.4062 -0.7558
vn -0.8686 0.0031 -0.4955
vn -0.8472 0.2340 -0.4770
vn -0.6739 0.1784 -0.7170
vn -0.7155 -0.0047 -0.6986
vn -0.6886 -0.0002 -0.7251
vn -0.9400 0.3107 0.1408
vn -0.0753 0.9971 -0.0070
vn -0.0020 1.0000 0.0029
vn -0.2201 0.9279 0.3009
vn -0.0115 0.9995 0.0283
vn -0.9267 0.2126 0.3100
vn -0.7816 0.2110 0.5869
vn 0.7151 -0.0142 0.6988
vn 0.4250 -0.7047 0.5681
vn 0.6992 -0.0138 0.7148
vn 0.4898 -0.2723 0.8282
vn 0.8431 -0.3483 0.4096
vn 0.4988 -0.7479 0.4380
vn -0.7138 -0.2227 0.6639
vn -0.6026 -0.1545 0.7830
vn -0.8152 -0.0035 0.5791
vn -0.8025 -0.0000 0.5967
vn 0.0010 -1.0000 0.0009
vn -0.0995 -0.7728 -0.6269
vn 0.0735 -0.9702 -0.2310
vn -0.1721 -0.9699 -0.1720
vn -0.2400 -0.7873 -0.5680
vn -0.9782 0.2076 -0.0037
vn -1.0000 0.0002 -0.0031
vn -0.9565 -0.0060 -0.2918
vn -0.9274 0.2284 -0.2963
vn 0.7934 0.0000 -0.6087
vn 0.9209 0.0000 -0.3897
vn 0.9349 -0.0046 -0.3549
vn 0.7829 -0.1545 -0.6027
vn 0.8841 -0.1789 -0.4317
vn -1.0000 -0.0014 0.0072
vn -0.9474 -0.1162 0.2981
vn -0.9838 -0.1760 0.0335
vn -0.9433 -0.0035 0.3319
vn -0.9484 -0.0014 0.3171
vn 0.1448 0.9827 0.1157
vn 0.5242 0.2629 0.8100
vn 0.6194 0.2031 0.7584
vn -0.3795 0.1743 -0.9086
vn -0.1520 0.3115 -0.9380
vn -0.0039 0.9985 -0.0545
vn -0.5891 0.2266 -0.7756
vn -0.9221 -0.1342 -0.3628
vn -0.6637 -0.7478 0.0175
vn -0.9433 -0.3284 -0.0480
vn -0.7687 -0.3316 -0.5469
vn -0.5675 -0.7877 -0.2397
vn 0.7937 -0.0012 0.6084
vn 0.8952 0.2421 0.3741
vn 0.9239 -0.0012 0.3827
vn 0.8386 0.3018 0.4535
usemtl Shape
s off
f 61//1 15//1 64//1
f 13//2 10//2 23//2
f 18//3 17//3 24//3
f 11//4 25//4 26//4
f 2//5 3//5 28//5
f 22//6 5//6 29//6
f 8//7 4//7 33//7
f 21//8 8//8 33//8
f 26//9 7//9 33//9
f 19//10 1//10 34//10
f 12//11 30//11 34//11
f 30//12 19//12 34//12
f 4//13 8//13 35//13
f 23//14 4//14 35//14
f 13//15 23//15 35//15
f 8//16 29//16 36//16
f 29//17 5//17 36//17
f 5//18 31//18 36//18
f 35//19 8//19 36//19
f 13//20 35//20 36//20
f 4//21 23//21 37//21
f 30//22 4//22 37//22
f 19//23 30//23 37//23
f 23//24 10//24 38//24
f 37//25 23//25 38//25
f 19//26 37//26 38//26
f 5//27 22//27 39//27
f 24//28 17//28 39//28
f 18//29 24//29 40//29
f 16//30 28//30 41//30
f 2//31 28//31 42//31
f 28//32 9//32 42//32
f 9//33 32//33 42//33
f 42//34 32//34 43//34
f 21//35 2//35 43//35
f 32//36 15//36 43//36
f 2//37 42//37 43//37
f 1//38 19//38 44//38
f 19//39 38//39 44//39
f 44//40 38//40 45//40
f 31//41 5//41 45//41
f 38//42 10//42 45//42
f 5//43 39//43 45//43
f 39//44 17//44 45//44
f 17//45 44//45 45//45
f 14//46 27//46 46//46
f 28//47 3//47 46//47
f 27//48 41//48 46//48
f 41//49 28//49 46//49
f 3//50 2//50 47//50
f 2//51 21//51 47//51
f 46//52 3//52 47//52
f 14//53 46//53 47//53
f 16//54 6//54 48//54
f 40//55 16//55 48//55
f 18//56 40//56 48//56
f 27//57 14//57 50//57
f 24//58 9//58 51//58
f 9//59 28//59 51//59
f 28//60 16//60 51//60
f 16//61 40//61 51//61
f 40//62 24//62 51//62
f 34//63 1//63 52//63
f 12//64 34//64 52//64
f 49//65 11//65 52//65
f 1//66 49//66 52//66
f 11//67 26//67 53//67
f 26//68 33//68 53//68
f 33//69 12//69 53//69
f 52//70 11//70 53//70
f 12//71 52//71 53//71
f 7//72 20//72 54//72
f 33//73 7//73 54//73
f 21//74 33//74 54//74
f 14//75 47//75 54//75
f 47//76 21//76 54//76
f 20//77 50//77 54//77
f 50//78 14//78 54//78
f 22//79 15//79 55//79
f 9//80 24//80 55//80
f 15//81 32//81 55//81
f 32//82 9//82 55//82
f 39//83 22//83 55//83
f 24//84 39//84 55//84
f 6//85 16//85 56//85
f 16//86 41//86 56//86
f 41//48 27//48 56//48
f 50//87 6//87 56//87
f 27//88 50//88 56//88
f 17//89 18//89 57//89
f 1//90 44//90 57//90
f 44//91 17//91 57//91
f 18//92 49//92 57//92
f 49//93 1//93 57//93
f 20//94 7//94 58//94
f 25//95 20//95 58//95
f 26//96 25//96 58//96
f 7//97 26//97 58//97
f 10//98 13//98 59//98
f 13//99 36//99 59//99
f 36//100 31//100 59//100
f 45//101 10//101 59//101
f 31//102 45//102 59//102
f 20//103 25//103 60//103
f 48//104 6//104 60//104
f 25//105 48//105 60//105
f 6//106 50//106 60//106
f 50//107 20//107 60//107
f 8//108 21//108 61//108
f 21//109 43//109 61//109
f 43//110 15//110 61//110
f 30//111 12//111 62//111
f 4//112 30//112 62//112
f 33//113 4//113 62//113
f 12//114 33//114 62//114
f 25//115 11//115 63//115
f 18//116 48//116 63//116
f 48//117 25//117 63//117
f 11//118 49//118 63//118
f 49//119 18//119 63//119
f 15//120 22//120 64//120
f 29//121 8//121 64//121
f 22//122 29//122 64//122
f 8//123 61//123 64//123
