# Blender v2.79 (sub 0) OBJ File: ''
# www.blender.org
mtllib model.mtl
o Shape_IndexedFaceSet.005
v 0.402447 -0.150912 -0.126820
v 0.440747 0.100987 0.037955
v 0.313349 -0.016156 -0.157283
v 0.309076 -0.146927 0.037262
v 0.450289 -0.150912 0.032529
v 0.306834 -0.015433 0.040499
v 0.450289 0.072240 -0.031235
v 0.311868 -0.141963 -0.159422
v 0.410437 0.104119 0.040499
v 0.450289 -0.150912 -0.039206
v 0.398672 0.003444 -0.116749
v 0.306834 -0.007470 -0.078997
v 0.370614 -0.150912 -0.150732
v 0.322800 0.000469 -0.150732
v 0.434323 -0.150912 -0.086968
v 0.440321 -0.146927 0.037262
v 0.450289 0.096130 0.008617
v 0.327865 -0.016156 -0.157283
v 0.424969 0.022996 -0.082963
v 0.418399 0.104119 0.024558
v 0.371933 -0.003494 -0.136180
v 0.346686 0.032348 0.040499
v 0.410437 -0.150912 -0.118850
v 0.410437 0.104119 0.032529
v 0.419274 0.024083 -0.090217
vn 0.7895 0.0601 -0.6108
vn 0.0000 -1.0000 0.0000
vn 1.0000 -0.0000 0.0000
vn -0.9999 -0.0170 -0.0011
vn -0.9963 0.0132 -0.0844
vn -0.9995 -0.0285 -0.0149
vn -0.0278 -0.9995 0.0121
vn -0.1466 -0.9888 -0.0270
vn 0.5993 0.0667 -0.7978
vn -0.8396 0.5279 -0.1284
vn 0.9484 0.0113 -0.3170
vn 0.4279 -0.0033 0.9038
vn 0.0000 -0.7650 0.6441
vn 0.0000 -0.0246 0.9997
vn 0.0833 -0.0029 0.9965
vn 0.0131 -0.0113 0.9999
vn 0.9520 0.0295 0.3047
vn -0.0009 0.8577 -0.5142
vn 0.0000 0.0170 -0.9999
vn 0.1461 -0.0018 -0.9893
vn 0.0000 0.3666 -0.9304
vn 0.8737 0.0581 -0.4830
vn 0.1071 0.9928 0.0535
vn 0.1955 0.9758 -0.0980
vn -0.0307 0.8676 -0.4963
vn 0.5733 0.0754 -0.8159
vn 0.2577 0.6819 -0.6845
vn 0.4101 0.0860 -0.9080
vn 0.2884 0.4258 -0.8576
vn 0.0000 0.0000 1.0000
vn -0.7673 0.6399 0.0426
vn -0.7474 0.6638 0.0280
vn 0.7048 0.0633 -0.7066
vn 0.7990 0.0568 -0.5986
vn -0.7328 0.6804 0.0000
vn -0.6925 0.7176 -0.0747
vn 0.0000 1.0000 0.0000
vn -0.3368 0.8795 -0.3364
vn 0.7840 0.2103 -0.5840
vn 0.2850 0.6636 -0.6917
vn 0.3898 0.5553 -0.7346
vn 0.7622 0.0669 -0.6439
usemtl Shape.005
s off
f 19//1 23//1 25//1
f 5//2 1//2 10//2
f 7//3 5//3 10//3
f 4//4 6//4 12//4
f 3//5 8//5 12//5
f 8//6 4//6 12//6
f 5//7 4//7 13//7
f 1//2 5//2 13//2
f 4//8 8//8 13//8
f 11//9 1//9 13//9
f 3//10 12//10 14//10
f 10//2 1//2 15//2
f 7//11 10//11 15//11
f 5//12 2//12 16//12
f 4//13 5//13 16//13
f 6//14 4//14 16//14
f 2//15 9//15 16//15
f 9//16 6//16 16//16
f 2//17 5//17 17//17
f 5//3 7//3 17//3
f 7//18 14//18 17//18
f 8//19 3//19 18//19
f 13//20 8//20 18//20
f 3//21 14//21 18//21
f 7//22 15//22 19//22
f 9//23 2//23 20//23
f 2//24 17//24 20//24
f 17//25 14//25 20//25
f 11//26 13//26 21//26
f 14//27 7//27 21//27
f 13//28 18//28 21//28
f 18//29 14//29 21//29
f 6//30 9//30 22//30
f 12//31 6//31 22//31
f 9//32 12//32 22//32
f 1//33 11//33 23//33
f 15//2 1//2 23//2
f 19//34 15//34 23//34
f 12//35 9//35 24//35
f 14//36 12//36 24//36
f 9//37 20//37 24//37
f 20//38 14//38 24//38
f 7//39 19//39 25//39
f 21//40 7//40 25//40
f 11//41 21//41 25//41
f 23//42 11//42 25//42
o Shape_IndexedFaceSet.004
v 0.306834 -0.007457 -0.086968
v 0.004649 -0.146927 -0.160938
v 0.004649 -0.146927 0.034744
v -0.003984 -0.007457 -0.110879
v 0.298200 -0.146927 -0.160938
v 0.307392 -0.023209 0.040871
v 0.298200 -0.146927 0.034744
v -0.003984 -0.023409 0.032529
v 0.298556 -0.018829 -0.161175
v 0.003877 -0.018658 -0.161453
v -0.000451 -0.032458 0.038144
v 0.295336 -0.012764 -0.151629
v 0.298832 -0.015433 -0.007324
v 0.007514 -0.012764 -0.151629
vn 0.0000 0.8575 -0.5145
vn 0.0000 -1.0000 0.0000
vn 0.9984 -0.0558 -0.0112
vn 0.9973 -0.0741 0.0000
vn 0.0000 -0.0495 0.9988
vn -0.9976 -0.0697 0.0000
vn -0.9982 -0.0594 -0.0066
vn 0.9939 -0.0030 -0.1104
vn 0.0009 -0.0019 -1.0000
vn -0.9883 -0.0066 -0.1522
vn 0.0000 -0.0040 -1.0000
vn -0.0080 -0.0300 0.9995
vn -0.8816 -0.0532 0.4690
vn -0.0232 0.5206 0.8535
vn 0.0064 0.9965 -0.0829
vn 0.7195 0.6699 -0.1829
vn 0.0010 0.8442 -0.5360
vn -0.0076 0.9951 0.0989
vn 0.2134 0.9697 0.1186
vn -0.0116 0.9938 0.1105
vn -0.0049 0.9871 0.1601
vn -0.5640 0.7834 -0.2612
vn 0.0000 0.9916 -0.1291
usemtl Shape.004
s off
f 37//43 35//43 39//43
f 28//44 27//44 30//44
f 30//45 26//45 31//45
f 30//46 31//46 32//46
f 28//44 30//44 32//44
f 31//47 28//47 32//47
f 27//48 28//48 33//48
f 29//49 27//49 33//49
f 26//50 30//50 34//50
f 34//51 30//51 35//51
f 27//52 29//52 35//52
f 30//53 27//53 35//53
f 28//54 31//54 36//54
f 33//55 28//55 36//55
f 31//56 33//56 36//56
f 29//57 26//57 37//57
f 26//58 34//58 37//58
f 34//59 35//59 37//59
f 26//60 29//60 38//60
f 31//61 26//61 38//61
f 29//62 33//62 38//62
f 33//63 31//63 38//63
f 35//64 29//64 39//64
f 29//65 37//65 39//65
o Shape_IndexedFaceSet.003
v -0.003984 -0.007457 -0.110879
v -0.298421 -0.146927 -0.160938
v -0.298421 -0.146927 0.034744
v -0.306833 -0.007457 -0.086968
v -0.012397 -0.146927 0.034744
v -0.003984 -0.023409 0.032529
v -0.012397 -0.146927 -0.160938
v -0.307395 -0.023202 0.040884
v -0.298733 -0.018843 -0.161151
v -0.011644 -0.018658 -0.161453
v -0.007427 -0.032458 0.038144
v -0.295630 -0.012764 -0.151629
v -0.298859 -0.015433 -0.007324
v -0.015188 -0.012764 -0.151629
vn 0.0000 0.8575 -0.5145
vn 0.0000 -1.0000 0.0000
vn 0.9983 -0.0579 -0.0064
vn 0.9977 -0.0680 0.0000
vn -0.9974 -0.0723 0.0000
vn -0.9985 -0.0543 -0.0111
vn 0.0000 -0.0496 0.9988
vn -0.9941 -0.0026 -0.1081
vn 0.9889 -0.0064 -0.1484
vn 0.0000 -0.0040 -1.0000
vn -0.0011 -0.0017 -1.0000
vn 0.8866 -0.0521 0.4596
vn 0.0082 -0.0300 0.9995
vn 0.0239 0.5205 0.8535
vn -0.0065 0.9965 -0.0829
vn -0.7321 0.6568 -0.1807
vn -0.0011 0.8430 -0.5378
vn 0.0078 0.9951 0.0989
vn 0.0119 0.9938 0.1105
vn -0.2134 0.9697 0.1185
vn 0.0051 0.9871 0.1600
vn 0.5740 0.7768 -0.2590
vn 0.0000 0.9916 -0.1291
usemtl Shape.003
s off
f 49//66 51//66 53//66
f 42//67 41//67 44//67
f 40//68 45//68 46//68
f 44//67 41//67 46//67
f 45//69 44//69 46//69
f 41//70 42//70 47//70
f 43//71 41//71 47//71
f 42//72 44//72 47//72
f 41//73 43//73 48//73
f 40//74 46//74 49//74
f 46//75 41//75 49//75
f 41//76 48//76 49//76
f 44//77 45//77 50//77
f 47//78 44//78 50//78
f 45//79 47//79 50//79
f 43//80 40//80 51//80
f 48//81 43//81 51//81
f 49//82 48//82 51//82
f 40//83 43//83 52//83
f 45//84 40//84 52//84
f 43//85 47//85 52//85
f 47//86 45//86 52//86
f 40//87 49//87 53//87
f 51//88 40//88 53//88
o Shape_IndexedFaceSet.002
v -0.434322 -0.150912 -0.086968
v -0.410436 0.104119 0.040499
v -0.410436 0.104119 0.032529
v -0.309075 -0.146927 0.037262
v -0.313348 -0.016156 -0.157283
v -0.450288 -0.150912 0.032529
v -0.450288 0.072240 -0.031235
v -0.311867 -0.141963 -0.159422
v -0.306833 -0.015433 0.040499
v -0.398681 0.003441 -0.116743
v -0.370613 -0.150912 -0.150732
v -0.440746 0.100987 0.037955
v -0.306833 -0.007470 -0.078997
v -0.322799 0.000469 -0.150732
v -0.450288 -0.150912 -0.039206
v -0.440320 -0.146927 0.037262
v -0.450288 0.096130 0.008617
v -0.327864 -0.016156 -0.157283
v -0.424970 0.022999 -0.082964
v -0.410436 -0.150912 -0.118850
v -0.371932 -0.003494 -0.136180
v -0.418398 0.104119 0.024558
v -0.346685 0.032348 0.040499
v -0.402460 -0.150912 -0.126820
v -0.419273 0.024083 -0.090217
vn -0.3899 0.5551 -0.7347
vn 0.0000 -1.0000 0.0000
vn 0.0278 -0.9995 0.0121
vn 0.1466 -0.9888 -0.0270
vn 0.7328 0.6804 0.0000
vn 0.9995 -0.0285 -0.0149
vn 0.9963 0.0132 -0.0844
vn 0.9999 -0.0170 -0.0011
vn 0.6925 0.7176 -0.0747
vn 0.8396 0.5279 -0.1284
vn -0.9484 0.0113 -0.3170
vn -1.0000 -0.0000 0.0000
vn 0.0000 -0.7650 0.6441
vn -0.0131 -0.0113 0.9999
vn 0.0000 -0.0246 0.9997
vn -0.0833 -0.0029 0.9965
vn -0.4279 -0.0033 0.9038
vn -0.9520 0.0295 0.3047
vn 0.0009 0.8577 -0.5142
vn 0.0000 0.0170 -0.9999
vn -0.1461 -0.0018 -0.9893
vn 0.0000 0.3666 -0.9304
vn -0.8737 0.0581 -0.4829
vn -0.7990 0.0567 -0.5986
vn -0.5733 0.0754 -0.8159
vn -0.2577 0.6819 -0.6845
vn -0.4101 0.0860 -0.9080
vn -0.2884 0.4258 -0.8576
vn 0.0000 1.0000 0.0000
vn -0.1071 0.9928 0.0535
vn 0.3368 0.8795 -0.3364
vn -0.1955 0.9758 -0.0980
vn 0.0307 0.8676 -0.4963
vn -0.0000 0.0000 1.0000
vn 0.7474 0.6638 0.0280
vn 0.7673 0.6399 0.0426
vn -0.5991 0.0668 -0.7979
vn -0.7054 0.0634 -0.7060
vn -0.7838 0.2107 -0.5842
vn -0.7623 0.0668 -0.6438
vn -0.7893 0.0601 -0.6110
vn -0.2850 0.6636 -0.6917
usemtl Shape.002
s off
f 74//89 63//89 78//89
f 59//90 54//90 64//90
f 57//91 59//91 64//91
f 61//92 57//92 64//92
f 56//93 55//93 66//93
f 57//94 61//94 66//94
f 61//95 58//95 66//95
f 62//96 57//96 66//96
f 56//97 66//97 67//97
f 66//98 58//98 67//98
f 54//90 59//90 68//90
f 60//99 54//99 68//99
f 59//100 60//100 68//100
f 59//101 57//101 69//101
f 62//102 55//102 69//102
f 57//103 62//103 69//103
f 55//104 65//104 69//104
f 65//105 59//105 69//105
f 60//100 59//100 70//100
f 59//106 65//106 70//106
f 67//107 60//107 70//107
f 58//108 61//108 71//108
f 61//109 64//109 71//109
f 67//110 58//110 71//110
f 54//111 60//111 72//111
f 64//90 54//90 73//90
f 54//112 72//112 73//112
f 64//113 63//113 74//113
f 60//114 67//114 74//114
f 71//115 64//115 74//115
f 67//116 71//116 74//116
f 55//117 56//117 75//117
f 65//118 55//118 75//118
f 56//119 67//119 75//119
f 70//120 65//120 75//120
f 67//121 70//121 75//121
f 55//122 62//122 76//122
f 66//123 55//123 76//123
f 62//124 66//124 76//124
f 63//125 64//125 77//125
f 73//126 63//126 77//126
f 64//90 73//90 77//90
f 72//127 60//127 78//127
f 63//128 73//128 78//128
f 73//129 72//129 78//129
f 60//130 74//130 78//130
o Shape_IndexedFaceSet.001
v 0.432390 -0.143642 0.058419
v 0.331854 0.166496 0.149120
v 0.010893 -0.140019 0.156080
v -0.010050 -0.032543 0.038895
v -0.003984 0.175846 0.144116
v 0.410428 0.112036 0.040519
v 0.310468 -0.131542 0.152979
v 0.001458 -0.146927 0.041977
v 0.436876 -0.146927 0.041977
v 0.397017 0.134738 0.111391
v 0.010893 0.164954 0.156080
v 0.387636 -0.137720 0.118590
v 0.434325 0.120000 0.048500
v 0.322749 0.167850 0.128178
v -0.003984 0.167850 0.136135
v 0.310468 0.156476 0.152979
v 0.354898 -0.133985 0.139575
v 0.420925 0.120772 0.081627
v 0.397017 -0.139456 0.111391
v 0.354898 0.151751 0.139575
v 0.410428 0.143957 0.088356
v 0.420925 -0.140737 0.081627
v 0.432390 0.107606 0.058419
v 0.387636 0.140632 0.118590
v -0.003984 0.151889 0.128178
v 0.410428 0.120000 0.048500
vn 0.0000 0.8571 -0.5152
vn -0.9894 -0.0413 0.1389
vn -0.9914 -0.0974 0.0879
vn 0.0056 -0.0051 -1.0000
vn 0.0000 -0.9982 0.0604
vn 0.0000 -0.0269 -0.9996
vn 0.0109 0.7461 0.6658
vn -0.6267 0.0000 0.7793
vn 0.0104 0.0000 0.9999
vn 0.3088 0.0262 -0.9508
vn 0.0270 0.9982 0.0528
vn -0.9965 0.0587 -0.0588
vn -0.0680 0.7048 -0.7061
vn 0.1776 0.0000 0.9841
vn 0.0190 0.3238 0.9459
vn 0.2884 -0.0083 0.9575
vn 0.0300 -0.9611 0.2747
vn 0.0148 -0.9932 0.1154
vn 0.6088 0.0000 0.7933
vn 0.0281 -0.9726 0.2308
vn 0.2096 -0.8526 0.4787
vn 0.7796 -0.0000 0.6262
vn 0.3827 0.0000 0.9239
vn 0.5396 0.0000 0.8419
vn 0.2442 0.9687 -0.0435
vn 0.8078 0.2054 0.5525
vn 0.8869 0.2994 0.3518
vn 0.3081 -0.9133 0.2665
vn 0.8966 -0.0000 0.4429
vn 0.2627 -0.9316 0.2511
vn 0.9647 0.0000 0.2632
vn 0.9804 0.0046 0.1970
vn 0.9176 0.1510 0.3677
vn 0.5823 0.4900 0.6487
vn 0.5748 0.6445 0.5042
vn 0.7035 0.4161 0.5761
vn -0.1461 0.4349 -0.8885
vn -0.3655 0.4153 -0.8330
vn -0.1449 0.4415 -0.8855
vn -0.0674 0.7062 -0.7047
vn 0.0000 0.7079 -0.7064
vn -0.0044 0.8552 -0.5184
vn -0.0004 0.8571 -0.5152
usemtl Shape.001
s off
f 99//131 91//131 104//131
f 82//132 81//132 83//132
f 81//133 82//133 86//133
f 82//134 84//134 87//134
f 81//135 86//135 87//135
f 86//136 82//136 87//136
f 80//137 83//137 89//137
f 83//138 81//138 89//138
f 81//139 85//139 89//139
f 87//140 84//140 91//140
f 83//141 80//141 92//141
f 82//142 83//142 93//142
f 83//143 84//143 93//143
f 85//144 80//144 94//144
f 80//145 89//145 94//145
f 89//139 85//139 94//139
f 80//146 85//146 95//146
f 85//147 81//147 95//147
f 81//148 87//148 97//148
f 88//149 90//149 97//149
f 95//150 81//150 97//150
f 90//151 95//151 97//151
f 96//152 88//152 97//152
f 80//153 95//153 98//153
f 95//154 90//154 98//154
f 92//155 80//155 99//155
f 88//156 96//156 99//156
f 96//157 91//157 99//157
f 87//158 79//158 100//158
f 79//159 96//159 100//159
f 97//160 87//160 100//160
f 96//152 97//152 100//152
f 79//161 87//161 101//161
f 87//162 91//162 101//162
f 96//159 79//159 101//159
f 91//163 96//163 101//163
f 90//149 88//149 102//149
f 80//164 98//164 102//164
f 98//154 90//154 102//154
f 99//165 80//165 102//165
f 88//166 99//166 102//166
f 84//167 82//167 103//167
f 82//168 93//168 103//168
f 93//169 84//169 103//169
f 84//170 83//170 104//170
f 91//171 84//171 104//171
f 83//172 92//172 104//172
f 92//173 99//173 104//173
o Shape_IndexedFaceSet
v -0.420907 -0.140521 0.081653
v -0.018596 0.164954 0.156080
v -0.003984 0.175846 0.144116
v -0.009330 -0.146927 0.041977
v -0.410439 0.112036 0.040519
v -0.018596 -0.140019 0.156080
v -0.331975 0.166339 0.149070
v -0.310848 -0.131406 0.152929
v 0.001973 -0.032543 0.038895
v -0.436973 -0.146927 0.041977
v -0.410439 0.143957 0.088356
v -0.387679 -0.137445 0.118556
v -0.434338 0.120000 0.048500
v -0.397039 0.134550 0.111374
v -0.003984 0.167850 0.136135
v -0.310848 0.156340 0.152929
v -0.335755 -0.136464 0.147504
v -0.322737 0.167850 0.128178
v -0.355067 0.151502 0.139505
v -0.420907 0.120619 0.081653
v -0.355067 -0.133722 0.139505
v -0.432375 -0.143500 0.058457
v -0.397039 -0.139223 0.111374
v -0.432375 0.107519 0.058457
v -0.387679 0.140398 0.118556
v -0.003984 0.151889 0.128178
v -0.410439 0.120000 0.048500
vn 0.0004 0.8571 -0.5152
vn 0.6335 0.0000 0.7737
vn -0.0116 0.7464 0.6654
vn -0.0108 0.0000 0.9999
vn 0.9898 -0.0406 0.1365
vn 0.9917 -0.0957 0.0863
vn 0.0000 -0.9982 0.0604
vn 0.0000 -0.0269 -0.9996
vn -0.0057 -0.0050 -1.0000
vn -0.3088 0.0263 -0.9508
vn 0.0693 0.7047 -0.7061
vn 0.9967 0.0577 -0.0578
vn -0.0197 0.3234 0.9460
vn -0.1797 0.0000 0.9837
vn -0.0276 -0.6647 0.7466
vn -0.2124 -0.0024 0.9772
vn -0.0142 -0.9936 0.1121
vn -0.0280 0.9978 0.0598
vn -0.2462 0.9684 -0.0388
vn -0.3827 -0.0000 0.9239
vn -0.8871 0.2963 0.3539
vn -0.8077 0.2034 0.5533
vn -0.7797 -0.0000 0.6262
vn -0.3744 -0.6168 0.6924
vn -0.5405 0.0000 0.8414
vn -0.3325 -0.9006 0.2800
vn -0.8964 0.0000 0.4432
vn -0.2739 -0.9258 0.2604
vn -0.6088 -0.0000 0.7934
vn -0.0306 -0.9913 0.1277
vn -0.3199 -0.7343 0.5987
vn -0.9799 0.0048 0.1992
vn -0.9173 0.1500 0.3688
vn -0.9632 -0.0000 0.2687
vn -0.5766 0.6385 0.5098
vn -0.7027 0.4143 0.5784
vn -0.5831 0.4897 0.6482
vn 0.1489 0.4348 -0.8881
vn 0.1476 0.4413 -0.8851
vn 0.3713 0.4143 -0.8310
vn 0.0687 0.7062 -0.7047
vn 0.0000 0.7079 -0.7064
vn 0.0000 0.8571 -0.5152
vn 0.0045 0.8551 -0.5184
usemtl Shape
s off
f 115//174 122//174 131//174
f 107//175 106//175 110//175
f 106//176 107//176 111//176
f 110//177 106//177 112//177
f 107//178 110//178 113//178
f 110//179 108//179 113//179
f 108//180 110//180 114//180
f 113//181 108//181 114//181
f 109//182 113//182 114//182
f 109//183 114//183 117//183
f 109//184 107//184 119//184
f 107//185 113//185 119//185
f 106//186 111//186 120//186
f 112//177 106//177 120//177
f 111//187 112//187 120//187
f 110//188 112//188 121//188
f 112//189 111//189 121//189
f 114//190 110//190 121//190
f 111//191 107//191 122//191
f 115//192 111//192 122//192
f 121//193 111//193 123//193
f 115//194 117//194 124//194
f 118//195 115//195 124//195
f 105//196 118//196 124//196
f 116//197 121//197 125//197
f 123//198 116//198 125//198
f 121//193 123//193 125//193
f 114//199 105//199 126//199
f 105//200 124//200 126//200
f 105//201 114//201 127//201
f 118//196 105//196 127//196
f 116//202 118//202 127//202
f 114//203 121//203 127//203
f 121//204 116//204 127//204
f 117//205 114//205 128//205
f 124//206 117//206 128//206
f 114//207 126//207 128//207
f 126//200 124//200 128//200
f 111//208 115//208 129//208
f 115//209 118//209 129//209
f 118//202 116//202 129//202
f 123//210 111//210 129//210
f 116//198 123//198 129//198
f 113//211 109//211 130//211
f 109//212 119//212 130//212
f 119//213 113//213 130//213
f 107//214 109//214 131//214
f 109//215 117//215 131//215
f 117//216 115//216 131//216
f 122//217 107//217 131//217
