# File produced by Open Asset Import Library (http://www.assimp.sf.net)
# (assimp v3.2.202087883)

mtllib officedesk.mtl

# 37 vertex positions
v 0.049569 0.120410 -0.392254
v 0.266936 0.120410 0.049569
v 0.266936 0.120410 -0.392254
v 0.049569 0.120410 0.049569
v 0.266936 -0.033647 0.049569
v 0.266936 -0.033647 -0.392254
v 0.049569 0.120410 -0.090125
v 0.266936 0.120410 0.266936
v 0.276386 -0.153662 -0.392254
v 0.049569 0.129860 -0.090125
v -0.090125 0.120410 0.049569
v 0.049569 0.120410 0.266936
v 0.276386 -0.153662 0.049569
v 0.276386 -0.033647 -0.392254
v 0.049569 -0.153662 -0.392254
v 0.049569 0.129860 -0.401705
v -0.090125 0.129860 0.049569
v 0.049569 -0.033647 0.266936
v 0.049569 -0.153662 0.049569
v 0.276386 -0.033647 0.049569
v 0.049569 -0.153662 -0.401705
v 0.276386 -0.153662 -0.401705
v -0.401705 0.129860 0.049569
v -0.392254 0.120410 0.266936
v 0.049569 -0.153662 0.276386
v 0.276386 0.129860 0.276386
v 0.276386 0.129860 -0.401705
v -0.392254 0.120410 0.049569
v 0.049569 -0.033647 0.276386
v -0.392254 -0.033647 0.266936
v 0.276386 -0.153662 0.276386
v -0.392254 -0.033647 0.276386
v -0.401705 0.129860 0.276386
v -0.392254 -0.153662 0.049569
v -0.401705 -0.153662 0.276386
v -0.401705 -0.153662 0.049569
v -0.392254 -0.153662 0.276386

# 0 UV coordinates

# 8 vertex normals
vn 0 0.0254 0
vn 0 -0.0254 -0
vn 0.0254 -0 -0
vn 0 0 -0.0254
vn 0 0 0.0254
vn 0.0179605 0 0.0179605
vn -0.0254 0 0
vn -0.0179605 0 -0.0179605

# Mesh 'mesh1_mesh1-geometry' with 76 faces
g mesh1_mesh1-geometry
usemtl material_0_24
f  1//1 2//1 3//1
f  2//1 1//1 4//1
f  3//2 2//2 1//2
f  4//2 1//2 2//2
f  2//3 5//3 3//3
f  6//4 1//4 3//4
f  4//1 1//1 7//1
f  7//2 1//2 4//2
f  4//1 8//1 2//1
f  2//5 4//5 5//5
f  6//3 3//3 5//3
f  9//4 1//4 6//4
f  7//3 1//3 10//3
f  4//1 7//1 11//1
f  11//2 7//2 4//2
f  8//1 4//1 12//1
f  5//5 4//5 13//5
f  14//2 5//2 6//2
f  6//1 5//1 14//1
f  1//4 9//4 15//4
f  14//4 9//4 6//4
f  10//3 1//3 16//3
f  17//6 7//6 10//6
f  7//6 17//6 11//6
f  4//1 11//1 12//1
f  12//2 11//2 4//2
f  18//3 4//3 12//3
f  19//5 13//5 4//5
f  5//5 13//5 20//5
f  5//2 14//2 20//2
f  20//1 14//1 5//1
f  21//2 9//2 15//2
f  15//1 9//1 21//1
f  1//3 15//3 16//3
f  14//7 22//7 9//7
f  17//5 23//5 11//5
f  12//1 11//1 24//1
f  24//2 11//2 12//2
f  18//3 25//3 4//3
f  12//5 24//5 18//5
f  13//2 25//2 19//2
f  19//1 25//1 13//1
f  19//3 4//3 25//3
f  13//7 26//7 20//7
f  20//7 26//7 14//7
f  9//2 21//2 22//2
f  22//1 21//1 9//1
f  21//3 16//3 15//3
f  22//7 14//7 27//7
f  27//5 16//5 22//5
f  11//5 23//5 28//5
f  24//1 11//1 28//1
f  28//2 11//2 24//2
f  29//3 25//3 18//3
f  30//5 18//5 24//5
f  25//2 13//2 31//2
f  31//1 13//1 25//1
f  31//7 26//7 13//7
f  26//7 27//7 14//7
f  21//5 22//5 16//5
f  26//4 32//4 33//4
f  28//5 23//5 34//5
f  29//4 26//4 25//4
f  30//1 29//1 18//1
f  18//2 29//2 30//2
f  31//4 25//4 26//4
f  33//4 32//4 35//4
f  32//4 26//4 29//4
f  36//5 34//5 23//5
f  29//1 30//1 32//1
f  32//2 30//2 29//2
f  37//4 35//4 32//4
f  34//2 35//2 36//2
f  36//1 35//1 34//1
f  35//2 34//2 37//2
f  37//1 34//1 35//1

# Mesh 'mesh1_mesh1-geometry' with 40 faces
g mesh1_mesh1-geometry
usemtl material_2_24
f  3//7 5//7 2//7
f  3//5 1//5 6//5
f  5//4 4//4 2//4
f  5//7 3//7 6//7
f  6//5 1//5 9//5
f  10//7 1//7 7//7
f  13//4 4//4 5//4
f  15//5 9//5 1//5
f  6//5 9//5 14//5
f  16//7 1//7 10//7
f  10//8 7//8 17//8
f  11//8 17//8 7//8
f  12//7 4//7 18//7
f  4//4 13//4 19//4
f  20//4 13//4 5//4
f  16//7 15//7 1//7
f  11//4 23//4 17//4
f  4//7 25//7 18//7
f  18//4 24//4 12//4
f  25//7 4//7 19//7
f  15//7 16//7 21//7
f  22//4 16//4 27//4
f  28//4 23//4 11//4
f  18//7 25//7 29//7
f  24//4 18//4 30//4
f  16//4 22//4 21//4
f  34//4 23//4 28//4
f  33//3 36//3 23//3
f  23//7 36//7 33//7
f  24//7 28//7 30//7
f  30//3 28//3 24//3
f  23//4 34//4 36//4
f  37//7 28//7 34//7
f  34//3 28//3 37//3
f  36//3 33//3 35//3
f  35//7 33//7 36//7
f  28//7 37//7 30//7
f  30//3 37//3 28//3
f  30//7 37//7 32//7
f  32//3 37//3 30//3

# Mesh 'mesh1_mesh1-geometry' with 12 faces
g mesh1_mesh1-geometry
usemtl material_3_24
f  2//2 8//2 4//2
f  12//2 4//2 8//2
f  16//2 27//2 10//2
f  10//1 27//1 16//1
f  10//2 26//2 17//2
f  17//1 26//1 10//1
f  26//2 10//2 27//2
f  27//1 10//1 26//1
f  17//2 26//2 33//2
f  33//1 26//1 17//1
f  17//2 33//2 23//2
f  23//1 33//1 17//1

# Mesh 'mesh1_mesh1-geometry' with 12 faces
g mesh1_mesh1-geometry
usemtl material_1_24
f  9//3 22//3 14//3
f  20//3 26//3 13//3
f  14//3 26//3 20//3
f  27//3 14//3 22//3
f  13//3 26//3 31//3
f  14//3 27//3 26//3
f  33//5 32//5 26//5
f  25//5 26//5 29//5
f  26//5 25//5 31//5
f  35//5 32//5 33//5
f  29//5 26//5 32//5
f  32//5 35//5 37//5

# Mesh 'mesh2_mesh2-geometry' with 7 faces
g mesh2_mesh2-geometry
usemtl material_0_0
l  3 2
l  3 1
l  1 7
l  11 7
l  28 11
l  24 28
l  12 24

# Mesh 'mesh3_mesh3-geometry' with 3 faces
g mesh3_mesh3-geometry
usemtl material_0_0
l  37 34
l  35 37
l  35 36

# Mesh 'mesh4_mesh4-geometry' with 4 faces
g mesh4_mesh4-geometry
usemtl material_0_0
l  32 30
l  29 32
l  30 18
l  18 29

# Mesh 'mesh5_mesh5-geometry' with 1 faces
g mesh5_mesh5-geometry
usemtl material_0_0
l  25 31

# Mesh 'mesh6_mesh6-geometry' with 1 faces
g mesh6_mesh6-geometry
usemtl material_0_0
l  5 6

