# File produced by Open Asset Import Library (http://www.assimp.sf.net)
# (assimp v3.2.202087883)

mtllib model_normalized.mtl

# 74 vertex positions
v 0.219904 -0.267434 0.179509
v 0.214937 -0.267434 0.052829
v 0.225761 -0.267434 0.115822
v 0.197767 -0.267434 0.239493
v 0.225761 0.246961 0.115822
v 0.219904 0.246961 0.179509
v 0.197767 0.246961 0.239493
v 0.188171 -0.267434 -0.005264
v 0.214937 0.246961 0.052829
v 0.160857 0.246961 0.291723
v 0.160857 -0.267434 0.291723
v 0.147286 -0.267434 -0.054409
v 0.188171 0.246961 -0.005264
v 0.111690 -0.267434 0.332612
v 0.111690 0.246961 0.332612
v 0.095069 -0.267434 -0.091325
v 0.147286 0.246961 -0.054409
v 0.053617 -0.267434 0.359383
v 0.095069 0.246961 -0.091325
v 0.053617 0.246961 0.359383
v 0.035079 -0.267434 -0.113467
v 0.035079 -0.140285 -0.113467
v -0.009405 -0.267434 0.370184
v 0.035079 -0.103609 -0.113467
v -0.009405 0.246961 0.370184
v -0.028597 -0.267434 -0.119330
v -0.028597 0.246961 -0.119330
v 0.035079 -0.116469 -0.157365
v 0.035079 0.141341 -0.113467
v -0.073081 -0.267434 0.364321
v 0.035079 -0.148789 -0.165427
v 0.035079 0.178150 -0.113467
v -0.073081 0.246961 0.364321
v -0.091619 -0.267434 -0.108491
v -0.091619 0.246961 -0.108491
v 0.035079 -0.114068 -0.203076
v 0.035079 0.154200 -0.157365
v 0.035079 0.246961 -0.113467
v -0.133071 -0.267434 0.342217
v 0.035079 -0.140776 -0.217426
v 0.035079 0.186653 -0.165427
v -0.133071 0.246961 0.342217
v -0.149692 -0.267434 -0.081758
v -0.149692 0.246961 -0.081758
v 0.035079 -0.096677 -0.245393
v 0.035079 0.151799 -0.203076
v -0.185289 -0.267434 0.305301
v 0.035079 -0.117037 -0.264410
v 0.035079 0.178641 -0.217426
v -0.185289 0.246961 0.305301
v -0.198860 -0.267434 -0.040869
v -0.198860 0.246961 -0.040869
v 0.035079 -0.066258 -0.279570
v 0.035079 0.134408 -0.245393
v -0.226175 0.246961 0.256118
v -0.226175 -0.267434 0.256118
v 0.035079 -0.079909 -0.301712
v 0.035079 0.154901 -0.264410
v -0.235768 -0.267434 0.011361
v 0.035079 -0.026239 -0.301750
v 0.035079 0.103988 -0.279570
v -0.252938 0.246961 0.198063
v -0.252938 -0.267434 0.198063
v -0.235768 0.246961 0.011361
v 0.035079 0.018866 -0.309427
v 0.035079 0.117773 -0.301712
v -0.257906 -0.267434 0.071345
v 0.035079 -0.033047 -0.325667
v 0.035079 0.063970 -0.301750
v -0.263762 0.246961 0.135032
v -0.263762 -0.267434 0.135032
v -0.257906 0.246961 0.071345
v 0.035079 0.070912 -0.325667
v 0.035079 0.018932 -0.333922

# 154 UV coordinates
vt -0.006084 7.57101 0
vt -0.008197 7.51714 0
vt -0.003594 7.54394 0
vt -0.015498 7.59653 0
vt -7.40728 -0.03125 0
vt -7.43447 0.1875 0
vt -7.43447 -0.03125 0
vt -7.51256 -0.03125 0
vt -7.53975 0.1875 0
vt -7.53975 -0.03125 0
vt -7.10495 -0.03125 0
vt -7.13214 0.1875 0
vt -7.13214 -0.03125 0
vt -0.019579 7.49244 0
vt -7.40728 0.1875 0
vt -7.51256 0.1875 0
vt -7.10495 0.1875 0
vt -6.23941 0.1875 0
vt -6.21222 -0.03125 0
vt -6.21222 0.1875 0
vt -0.031194 7.61873 0
vt -6.79628 -0.03125 0
vt -6.82347 0.1875 0
vt -6.82347 -0.03125 0
vt -6.23941 -0.03125 0
vt -0.036966 7.47153 0
vt -6.79628 0.1875 0
vt -4.89521 0.1875 0
vt -4.9224 -0.03125 0
vt -4.89521 -0.03125 0
vt -0.052103 7.63612 0
vt -5.72119 -0.03125 0
vt -5.74838 0.1875 0
vt -5.74838 -0.03125 0
vt -4.9224 0.1875 0
vt -0.059171 7.45584 0
vt -5.72119 0.1875 0
vt -3.24367 0.1875 0
vt -3.27087 -0.03125 0
vt -3.24367 -0.03125 0
vt -0.076799 7.6475 0
vt -4.25529 0.1875 0
vt -4.28248 -0.03125 0
vt -4.25529 -0.03125 0
vt -4.28248 0.1875 0
vt -3.27087 0.1875 0
vt -0.084683 7.44642 0
vt -2.52567 -0.03125 0
vt -2.49847 0.022821 0
vt -2.52567 0.1875 0
vt -1.37016 0.1875 0
vt -1.39735 -0.03125 0
vt -1.37016 -0.03125 0
vt -0.1036 7.6521 0
vt -2.49847 -0.03125 0
vt -2.49847 0.038418 0
vt -1.39735 0.1875 0
vt -0.111761 7.44393 0
vt -0.597654 -0.03125 0
vt -0.570461 0.1875 0
vt -0.597654 0.022821 0
vt -0.597654 0.038418 0
vt -7.44642 0.022821 0
vt -7.42775 0.032949 0
vt -7.44642 0.038418 0
vt -2.49847 0.142584 0
vt 0.597654 0.1875 0
vt 0.570461 -0.03125 0
vt 0.597654 -0.03125 0
vt -0.130678 7.64961 0
vt -0.570461 -0.03125 0
vt -0.597654 0.142584 0
vt -7.42433 0.019205 0
vt -2.49847 0.158238 0
vt 0.570461 0.1875 0
vt -0.138562 7.44853 0
vt 1.37016 -0.03125 0
vt 1.39735 0.1875 0
vt 1.37016 0.1875 0
vt -0.597654 0.158238 0
vt -7.40832 0.03397 0
vt -7.42775 0.148053 0
vt -7.44642 0.158238 0
vt -7.44642 0.142584 0
vt -2.49847 0.1875 0
vt 2.52567 0.1875 0
vt 2.49847 -0.03125 0
vt 2.52567 -0.03125 0
vt -0.15619 7.6402 0
vt 1.39735 -0.03125 0
vt -0.597654 0.1875 0
vt -7.40221 0.022612 0
vt -7.42433 0.161854 0
vt 2.49847 0.1875 0
vt -0.163258 7.45992 0
vt 3.24367 -0.03125 0
vt 3.27087 0.1875 0
vt 3.24367 0.1875 0
vt -7.39032 0.041366 0
vt -7.40832 0.147032 0
vt 4.28248 0.1875 0
vt 4.25529 -0.03125 0
vt 4.28248 -0.03125 0
vt -0.178395 7.6245 0
vt 3.27087 -0.03125 0
vt -7.38224 0.032708 0
vt -7.40221 0.158447 0
vt 4.25529 0.1875 0
vt -0.184166 7.4773 0
vt 4.89521 -0.03125 0
vt 4.9224 0.1875 0
vt 4.89521 0.1875 0
vt -7.37579 0.054302 0
vt -7.39032 0.139636 0
vt 5.72119 0.1875 0
vt 5.74838 -0.03125 0
vt 5.74838 0.1875 0
vt -0.195782 7.60359 0
vt 4.9224 -0.03125 0
vt -7.36637 0.048497 0
vt -7.38224 0.148351 0
vt 5.72119 -0.03125 0
vt -0.199863 7.49951 0
vt 6.23941 -0.03125 0
vt 6.21222 0.1875 0
vt 6.21222 -0.03125 0
vt -7.36635 0.07132 0
vt -7.37579 0.1267 0
vt 6.79628 0.1875 0
vt 6.82347 -0.03125 0
vt 6.82347 0.1875 0
vt -0.207164 7.5789 0
vt 6.23941 0.1875 0
vt -7.36309 0.090501 0
vt -7.36637 0.132562 0
vt 6.79628 -0.03125 0
vt -0.209277 7.52502 0
vt 7.13214 -0.03125 0
vt 7.10495 0.1875 0
vt 7.10495 -0.03125 0
vt -7.35618 0.068425 0
vt -7.36635 0.109682 0
vt 7.40728 0.1875 0
vt 7.43447 -0.03125 0
vt 7.43447 0.1875 0
vt -0.211767 7.5521 0
vt 7.13214 0.1875 0
vt 7.40728 -0.03125 0
vt 7.53975 -0.03125 0
vt 7.51256 0.1875 0
vt 7.51256 -0.03125 0
vt -7.35618 0.112634 0
vt 7.53975 0.1875 0
vt -7.35267 0.090529 0

# 30 vertex normals
vn 0 -0.0254 0
vn 0 0.0254 0
vn 0.0242581 0 -0.00753013
vn 0.0253805 0 -0.00099507
vn -0.0253805 0 0.00099507
vn -0.0242581 0 0.00753013
vn 0.0247732 0 0.00560779
vn -0.0247732 0 -0.00560779
vn 0.0224777 0 0.0118285
vn -0.0224777 0 -0.0118285
vn 0.0186504 0 0.0172431
vn -0.0186504 0 -0.0172431
vn 0.0214826 0 -0.013552
vn -0.0214826 0 0.013552
vn 0.013552 0 0.0214826
vn -0.013552 0 -0.0214826
vn 0.0172431 0 -0.0186504
vn -0.0172431 0 0.0186504
vn 0.00753013 0 0.0242581
vn -0.00753013 0 -0.0242581
vn 0.0118285 -0 -0.0224777
vn -0.0118285 0 0.0224777
vn 0.0151543 0 -0.020384
vn -0.0151543 0 0.020384
vn 0.00099507 0 0.0253805
vn -0.00099507 0 -0.0253805
vn 0.00560779 -0 -0.0247732
vn -0.00560779 0 0.0247732
vn 0.0254 0 0
vn -0.0254 0 0

# Mesh 'mesh1_mesh1-geometry' with 204 faces
g mesh1_mesh1-geometry
usemtl material_0_1_8
f  1/1/1 2/2/1 3/3/1
f  2/2/1 1/1/1 4/4/1
f  3/3/2 2/2/2 1/1/2
f  4/4/2 1/1/2 2/2/2
f  2/5/3 5/6/4 3/7/4
f  3/7/5 5/6/5 2/5/6
f  3/8/4 6/9/7 1/10/7
f  1/10/8 6/9/8 3/8/5
f  1/11/7 7/12/9 4/13/9
f  4/13/10 7/12/10 1/11/8
f  2/2/1 4/4/1 8/14/1
f  8/14/2 4/4/2 2/2/2
f  5/6/4 2/5/3 9/15/3
f  9/15/6 2/5/6 5/6/5
f  6/9/7 3/8/4 5/16/4
f  5/16/5 3/8/5 6/9/8
f  7/12/9 1/11/7 6/17/7
f  6/17/8 1/11/8 7/12/10
f  10/18/11 4/19/9 7/20/9
f  7/20/10 4/19/10 10/18/12
f  8/14/1 4/4/1 11/21/1
f  11/21/2 4/4/2 8/14/2
f  8/22/13 9/23/3 2/24/3
f  2/24/6 9/23/6 8/22/14
f  4/19/9 10/18/11 11/25/11
f  11/25/12 10/18/12 4/19/10
f  8/14/1 11/21/1 12/26/1
f  12/26/2 11/21/2 8/14/2
f  9/23/3 8/22/13 13/27/13
f  13/27/14 8/22/14 9/23/6
f  10/28/11 14/29/15 11/30/11
f  11/30/12 14/29/16 10/28/12
f  12/26/1 11/21/1 14/31/1
f  14/31/2 11/21/2 12/26/2
f  12/32/17 13/33/13 8/34/13
f  8/34/14 13/33/14 12/32/18
f  14/29/15 10/28/11 15/35/15
f  15/35/16 10/28/12 14/29/16
f  12/26/1 14/31/1 16/36/1
f  16/36/2 14/31/2 12/26/2
f  13/33/13 12/32/17 17/37/17
f  17/37/18 12/32/18 13/33/14
f  15/38/15 18/39/19 14/40/15
f  14/40/16 18/39/20 15/38/16
f  16/36/1 14/31/1 18/41/1
f  18/41/2 14/31/2 16/36/2
f  19/42/21 12/43/17 16/44/21
f  16/44/22 12/43/18 19/42/22
f  12/43/17 19/42/21 17/45/17
f  17/45/18 19/42/22 12/43/18
f  18/39/19 15/38/15 20/46/19
f  20/46/20 15/38/16 18/39/20
f  16/36/1 18/41/1 21/47/1
f  21/47/2 18/41/2 16/36/2
f  16/48/21 22/49/23 19/50/21
f  19/50/22 22/49/24 16/48/22
f  20/51/19 23/52/25 18/53/19
f  18/53/20 23/52/26 20/51/20
f  21/47/1 18/41/1 23/54/1
f  23/54/2 18/41/2 21/47/2
f  22/49/23 16/48/21 21/55/27
f  21/55/28 16/48/22 22/49/24
f  19/50/21 22/49/23 24/56/23
f  24/56/24 22/49/24 19/50/22
f  23/52/25 20/51/19 25/57/25
f  25/57/26 20/51/20 23/52/26
f  21/47/1 23/54/1 26/58/1
f  26/58/2 23/54/2 21/47/2
f  21/59/27 27/60/26 22/61/23
f  22/61/24 27/60/25 21/59/28
f  22/61/23 27/60/26 24/62/23
f  24/62/24 27/60/25 22/61/24
f  22/63/23 28/64/29 24/65/23
f  24/65/24 28/64/30 22/63/24
f  19/50/21 24/56/23 29/66/23
f  29/66/24 24/56/24 19/50/22
f  25/67/25 30/68/28 23/69/25
f  23/69/26 30/68/27 25/67/26
f  26/58/1 23/54/1 30/70/1
f  30/70/2 23/54/2 26/58/2
f  27/60/26 21/59/27 26/71/26
f  26/71/25 21/59/28 27/60/25
f  24/62/23 27/60/26 29/72/23
f  29/72/24 27/60/25 24/62/24
f  31/73/29 28/64/29 22/63/23
f  22/63/24 28/64/30 31/73/30
f  19/50/21 29/66/23 32/74/23
f  32/74/24 29/66/24 19/50/22
f  30/68/28 25/67/25 33/75/28
f  33/75/27 25/67/26 30/68/27
f  26/58/1 30/70/1 34/76/1
f  34/76/2 30/70/2 26/58/2
f  26/77/26 35/78/20 27/79/26
f  27/79/25 35/78/19 26/77/25
f  29/72/23 27/60/26 32/80/23
f  32/80/24 27/60/25 29/72/24
f  31/73/29 36/81/29 28/64/29
f  28/64/30 36/81/30 31/73/30
f  37/82/29 32/83/23 29/84/23
f  29/84/24 32/83/24 37/82/30
f  19/50/21 32/74/23 38/85/27
f  38/85/28 32/74/24 19/50/22
f  33/86/28 39/87/22 30/88/28
f  30/88/27 39/87/21 33/86/27
f  34/76/1 30/70/1 39/89/1
f  39/89/2 30/70/2 34/76/2
f  35/78/20 26/77/26 34/90/20
f  34/90/19 26/77/25 35/78/19
f  32/80/23 27/60/26 38/91/27
f  38/91/28 27/60/25 32/80/24
f  40/92/29 36/81/29 31/73/29
f  31/73/30 36/81/30 40/92/30
f  37/82/29 41/93/29 32/83/23
f  32/83/24 41/93/30 37/82/30
f  39/87/22 33/86/28 42/94/22
f  42/94/21 33/86/27 39/87/21
f  34/76/1 39/89/1 43/95/1
f  43/95/2 39/89/2 34/76/2
f  34/96/20 44/97/16 35/98/20
f  35/98/19 44/97/15 34/96/19
f  40/92/29 45/99/29 36/81/29
f  36/81/30 45/99/30 40/92/30
f  46/100/29 41/93/29 37/82/29
f  37/82/30 41/93/30 46/100/30
f  42/101/22 47/102/18 39/103/22
f  39/103/21 47/102/17 42/101/21
f  43/95/1 39/89/1 47/104/1
f  47/104/2 39/89/2 43/95/2
f  44/97/16 34/96/20 43/105/16
f  43/105/15 34/96/19 44/97/15
f  48/106/29 45/99/29 40/92/29
f  40/92/30 45/99/30 48/106/30
f  46/100/29 49/107/29 41/93/29
f  41/93/30 49/107/30 46/100/30
f  47/102/18 42/101/22 50/108/18
f  50/108/17 42/101/21 47/102/17
f  43/95/1 47/104/1 51/109/1
f  51/109/2 47/104/2 43/95/2
f  43/110/16 52/111/12 44/112/16
f  44/112/15 52/111/11 43/110/15
f  48/106/29 53/113/29 45/99/29
f  45/99/30 53/113/30 48/106/30
f  54/114/29 49/107/29 46/100/29
f  46/100/30 49/107/30 54/114/30
f  55/115/14 47/116/18 50/117/18
f  50/117/17 47/116/17 55/115/13
f  51/109/1 47/104/1 56/118/1
f  56/118/2 47/104/2 51/109/2
f  52/111/12 43/110/16 51/119/12
f  51/119/11 43/110/15 52/111/11
f  57/120/29 53/113/29 48/106/29
f  48/106/30 53/113/30 57/120/30
f  54/114/29 58/121/29 49/107/29
f  49/107/30 58/121/30 54/114/30
f  47/116/18 55/115/14 56/122/14
f  56/122/13 55/115/13 47/116/17
f  51/109/1 56/118/1 59/123/1
f  59/123/2 56/118/2 51/109/2
f  59/124/10 52/125/12 51/126/12
f  51/126/11 52/125/11 59/124/9
f  57/120/29 60/127/29 53/113/29
f  53/113/30 60/127/30 57/120/30
f  61/128/29 58/121/29 54/114/29
f  54/114/30 58/121/30 61/128/30
f  62/129/6 56/130/14 55/131/14
f  55/131/13 56/130/13 62/129/3
f  59/123/1 56/118/1 63/132/1
f  63/132/2 56/118/2 59/123/2
f  52/125/12 59/124/10 64/133/10
f  64/133/9 59/124/9 52/125/11
f  57/120/29 65/134/29 60/127/29
f  60/127/30 65/134/30 57/120/30
f  61/128/29 66/135/29 58/121/29
f  58/121/30 66/135/30 61/128/30
f  56/130/14 62/129/6 63/136/6
f  63/136/3 62/129/3 56/130/13
f  59/123/1 63/132/1 67/137/1
f  67/137/2 63/132/2 59/123/2
f  67/138/8 64/139/10 59/140/10
f  59/140/9 64/139/9 67/138/7
f  65/134/29 57/120/29 68/141/29
f  68/141/30 57/120/30 65/134/30
f  69/142/29 66/135/29 61/128/29
f  61/128/30 66/135/30 69/142/30
f  70/143/5 63/144/6 62/145/6
f  62/145/3 63/144/3 70/143/4
f  67/137/1 63/132/1 71/146/1
f  71/146/2 63/132/2 67/137/2
f  64/139/10 67/138/8 72/147/8
f  72/147/7 67/138/7 64/139/9
f  68/141/29 66/135/29 65/134/29
f  65/134/30 66/135/30 68/141/30
f  65/134/29 66/135/29 69/142/29
f  69/142/30 66/135/30 65/134/30
f  63/144/6 70/143/5 71/148/5
f  71/148/4 70/143/4 63/144/3
f  71/149/5 72/150/8 67/151/8
f  67/151/7 72/150/7 71/149/4
f  68/141/29 73/152/29 66/135/29
f  66/135/30 73/152/30 68/141/30
f  72/150/8 71/149/5 70/153/5
f  70/153/4 71/149/4 72/150/7
f  73/152/29 68/141/29 74/154/29
f  74/154/30 68/141/30 73/152/30

