# Blender v2.79 (sub 0) OBJ File: ''
# www.blender.org
mtllib model.mtl
o Shape_IndexedFaceSet.001
v -0.221439 0.093148 -0.020890
v -0.219970 0.114271 -0.020206
v 0.353883 -0.027282 0.017415
v -0.174081 -0.132319 0.237344
v -0.208876 -0.133542 -0.020080
v 0.382991 -0.133311 0.227454
v -0.150106 0.111937 0.257231
v 0.342534 0.120335 0.210462
v 0.035851 -0.140879 -0.028003
v 0.251612 -0.140879 0.278603
v -0.236721 0.120335 0.153637
v 0.382177 -0.132934 0.077059
v -0.168498 0.120335 -0.028003
v 0.194802 0.143071 0.221809
v 0.399279 0.074890 0.187738
v 0.331185 0.097626 0.278603
v -0.097506 -0.131026 0.267964
v -0.202545 0.143071 0.096963
v -0.209608 -0.133869 0.184684
v -0.121011 0.102610 0.269531
v 0.408165 -0.069617 0.108997
v 0.035851 -0.015887 -0.028003
v 0.337857 -0.132143 0.034713
v -0.179847 0.143071 0.028792
v 0.387930 0.040814 0.119657
v 0.319771 -0.027282 0.006068
v -0.185966 0.102935 0.237836
v -0.043348 0.131918 0.235167
v 0.408125 -0.069608 0.195996
v 0.372323 0.070990 0.248977
v 0.399279 -0.015914 0.074209
v 0.396400 -0.134499 0.119909
v 0.358584 -0.131854 0.247602
v 0.308422 0.131703 0.221809
v -0.179847 0.131703 -0.016626
v -0.096846 0.111675 0.267469
v -0.140994 -0.131698 0.258048
v -0.160477 0.122419 0.236057
v 0.331185 -0.015914 0.017415
v -0.210359 0.103922 0.206429
v -0.213894 0.131703 -0.016626
v 0.207325 0.121057 0.255657
v 0.328992 -0.133159 0.259563
v 0.396688 -0.134628 0.185000
v -0.185147 -0.132512 0.226799
v 0.365232 0.108967 0.210462
v 0.311090 -0.128893 0.026504
v 0.351499 -0.133700 0.044429
v 0.047264 -0.038623 -0.028003
v 0.407684 -0.036918 0.109022
v 0.407796 -0.036931 0.195922
v -0.074172 0.121049 0.255649
v -0.223411 0.082817 -0.000002
v 0.395391 -0.069189 0.076658
v 0.353883 0.108967 0.199115
v -0.202545 0.143071 0.028792
v 0.399279 0.040814 0.130974
v 0.384526 0.071340 0.227995
v -0.182862 0.122994 0.215374
v 0.387930 0.086258 0.187738
v 0.360397 0.092124 0.248436
v -0.197783 0.114068 0.216737
v 0.370445 -0.068355 0.045182
vn 0.7710 -0.1637 -0.6154
vn -0.9925 0.0722 -0.0982
vn -0.1546 0.0427 -0.9871
vn -0.1278 -0.0106 -0.9917
vn -0.0331 -0.0259 -0.9991
vn -0.0300 -0.9995 -0.0017
vn -0.0177 -0.9998 0.0125
vn -0.0245 -0.9986 0.0459
vn -0.9943 -0.1065 -0.0037
vn -0.0200 0.0067 0.9998
vn -0.0307 -0.0098 0.9995
vn 0.0000 0.0000 -1.0000
vn 0.0000 1.0000 -0.0000
vn 0.1244 0.1867 -0.9745
vn 0.3092 -0.2006 -0.9296
vn -0.0394 0.9913 0.1254
vn 0.8015 -0.0211 0.5976
vn 0.0249 -0.9995 -0.0175
vn 0.9233 -0.2203 -0.3145
vn 0.1548 -0.9540 0.2566
vn 0.6342 -0.0482 0.7717
vn 0.5650 -0.0439 0.8239
vn 0.0870 0.8692 0.4867
vn 0.3987 0.8481 0.3490
vn 0.0977 0.9770 -0.1897
vn 0.1177 0.9633 -0.2411
vn 0.2542 0.7991 -0.5448
vn 0.1806 0.9113 -0.3699
vn -0.1506 0.5831 0.7984
vn -0.0164 0.2633 0.9646
vn -0.0272 -0.9969 0.0733
vn -0.0341 -0.9759 0.2158
vn -0.3925 -0.0116 0.9197
vn -0.2218 -0.0289 0.9747
vn -0.5299 -0.0285 0.8476
vn -0.4728 -0.0147 0.8810
vn -0.0784 0.9824 0.1696
vn 0.3592 0.7171 -0.5972
vn 0.2634 0.7741 -0.5757
vn 0.2670 0.5332 -0.8028
vn 0.2262 0.5650 -0.7935
vn -0.8991 -0.0427 0.4357
vn -0.9327 0.3460 -0.1019
vn -0.1742 0.2560 -0.9509
vn 0.0000 0.9701 -0.2428
vn 0.0000 0.7074 -0.7068
vn 0.0625 0.8471 0.5278
vn 0.0052 0.7136 0.7006
vn 0.2458 -0.0820 0.9658
vn 0.1732 -0.9290 0.3270
vn 0.3766 -0.0797 0.9230
vn 0.0793 -0.9952 0.0565
vn 0.9275 -0.2149 0.3059
vn 0.9849 -0.1733 0.0005
vn 0.0417 -0.9991 -0.0022
vn 0.9838 -0.1792 -0.0047
vn -0.0297 -0.9983 0.0494
vn -0.6891 -0.0363 0.7238
vn -0.8630 -0.0487 0.5028
vn -0.7899 -0.0315 0.6125
vn 0.4196 0.8379 0.3491
vn 0.1860 -0.5404 -0.8206
vn 0.1987 -0.2095 -0.9574
vn 0.2630 -0.2118 -0.9413
vn 0.5497 -0.2171 -0.8066
vn 0.0842 -0.9587 -0.2718
vn 0.0291 -0.9992 -0.0279
vn 0.0979 -0.9928 -0.0688
vn 0.1246 -0.0139 -0.9921
vn 0.1213 0.0609 -0.9907
vn 0.9739 0.0145 -0.2264
vn 0.9999 0.0101 0.0005
vn 0.8403 0.0097 0.5421
vn 0.9971 0.0759 -0.0013
vn 0.9999 0.0147 -0.0013
vn -0.0167 0.8934 0.4490
vn -0.0926 0.8590 0.5036
vn -0.0948 0.8729 0.4786
vn -0.0719 0.9218 0.3810
vn -0.0000 0.8383 0.5452
vn -0.0000 0.7835 0.6213
vn -0.9911 -0.0554 -0.1209
vn -0.9960 0.0105 -0.0888
vn -0.9956 -0.0602 -0.0715
vn 0.9120 -0.1913 -0.3628
vn 0.7865 -0.0855 -0.6116
vn 0.9264 -0.0845 -0.3670
vn 0.2545 0.7986 -0.5455
vn 0.2612 0.7852 -0.5615
vn -0.5539 0.8326 0.0000
vn -0.6364 0.7706 -0.0339
vn 0.5757 0.5790 -0.5773
vn 0.5774 0.5775 -0.5771
vn 0.9887 0.1287 -0.0773
vn 0.9781 0.1473 -0.1472
vn 0.7687 0.5479 0.3300
vn 0.9318 0.0966 0.3500
vn 0.8636 0.0366 0.5029
vn -0.2821 0.9370 0.2058
vn -0.1502 0.9703 0.1895
vn 0.4089 0.8165 -0.4075
vn 0.7077 0.7065 0.0008
vn 0.4072 0.8160 -0.4103
vn 0.3464 0.7802 -0.5208
vn 0.4843 0.7277 -0.4857
vn 0.6515 0.6504 -0.3905
vn 0.6924 0.4060 0.5964
vn 0.5481 0.7365 0.3964
vn 0.7625 0.5499 0.3410
vn 0.7703 0.4463 0.4554
vn -0.4856 0.6311 0.6050
vn -0.4472 0.6950 0.5631
vn -0.7534 0.4192 0.5066
vn -0.7422 0.3240 0.5866
vn -0.4542 0.8144 0.3612
vn -0.4193 0.7735 0.4753
vn 0.6911 -0.1923 -0.6967
vn 0.7162 -0.1999 -0.6687
vn 0.7780 -0.1050 -0.6194
usemtl Shape.001
s off
f 54//1 12//1 63//1
f 2//2 1//2 11//2
f 1//3 2//3 13//3
f 5//4 1//4 13//4
f 9//5 5//5 13//5
f 5//6 9//6 19//6
f 9//7 10//7 19//7
f 10//8 4//8 19//8
f 11//9 5//9 19//9
f 10//10 16//10 20//10
f 17//11 10//11 20//11
f 9//12 13//12 22//12
f 18//13 14//13 24//13
f 22//14 13//14 26//14
f 3//15 23//15 26//15
f 14//16 18//16 28//16
f 6//17 29//17 30//17
f 10//18 9//18 32//18
f 12//19 21//19 32//19
f 10//20 6//20 33//20
f 6//21 30//21 33//21
f 30//22 16//22 33//22
f 14//23 16//23 34//23
f 16//24 8//24 34//24
f 24//25 14//25 34//25
f 24//26 34//26 35//26
f 8//27 13//27 35//27
f 34//28 8//28 35//28
f 7//29 20//29 36//29
f 20//30 16//30 36//30
f 4//31 10//31 37//31
f 10//32 17//32 37//32
f 20//33 7//33 37//33
f 17//34 20//34 37//34
f 27//35 4//35 37//35
f 7//36 27//36 37//36
f 28//37 18//37 38//37
f 25//38 3//38 39//38
f 13//39 25//39 39//39
f 3//40 26//40 39//40
f 26//41 13//41 39//41
f 11//42 19//42 40//42
f 2//43 11//43 41//43
f 13//44 2//44 41//44
f 24//45 35//45 41//45
f 35//46 13//46 41//46
f 16//47 14//47 42//47
f 36//48 16//48 42//48
f 16//49 10//49 43//49
f 10//50 33//50 43//50
f 33//51 16//51 43//51
f 6//52 10//52 44//52
f 29//53 6//53 44//53
f 21//54 29//54 44//54
f 10//55 32//55 44//55
f 32//56 21//56 44//56
f 19//57 4//57 45//57
f 4//58 27//58 45//58
f 40//59 19//59 45//59
f 27//60 40//60 45//60
f 8//61 16//61 46//61
f 23//62 9//62 47//62
f 9//63 26//63 47//63
f 26//64 23//64 47//64
f 23//65 3//65 48//65
f 9//66 23//66 48//66
f 32//67 9//67 48//67
f 12//68 32//68 48//68
f 9//12 22//12 49//12
f 26//69 9//69 49//69
f 22//70 26//70 49//70
f 21//71 31//71 50//71
f 29//72 21//72 51//72
f 30//73 29//73 51//73
f 50//74 15//74 51//74
f 21//75 50//75 51//75
f 14//76 28//76 52//76
f 7//77 36//77 52//77
f 38//78 7//78 52//78
f 28//79 38//79 52//79
f 42//80 14//80 52//80
f 36//81 42//81 52//81
f 1//82 5//82 53//82
f 11//83 1//83 53//83
f 5//84 11//84 53//84
f 21//85 12//85 54//85
f 3//86 31//86 54//86
f 31//87 21//87 54//87
f 13//88 8//88 55//88
f 25//89 13//89 55//89
f 11//90 18//90 56//90
f 18//13 24//13 56//13
f 41//91 11//91 56//91
f 24//45 41//45 56//45
f 3//92 25//92 57//92
f 31//93 3//93 57//93
f 15//94 50//94 57//94
f 50//95 31//95 57//95
f 15//96 46//96 58//96
f 51//97 15//97 58//97
f 30//98 51//98 58//98
f 18//99 11//99 59//99
f 38//100 18//100 59//100
f 8//101 46//101 60//101
f 46//102 15//102 60//102
f 55//103 8//103 60//103
f 25//104 55//104 60//104
f 57//105 25//105 60//105
f 15//106 57//106 60//106
f 16//107 30//107 61//107
f 46//108 16//108 61//108
f 58//109 46//109 61//109
f 30//110 58//110 61//110
f 27//111 7//111 62//111
f 7//112 38//112 62//112
f 11//113 40//113 62//113
f 40//114 27//114 62//114
f 59//115 11//115 62//115
f 38//116 59//116 62//116
f 48//117 3//117 63//117
f 12//118 48//118 63//118
f 3//119 54//119 63//119
o Shape_IndexedFaceSet
v 0.035871 -0.027255 -0.028074
v -0.219360 -0.134067 -0.038154
v -0.236721 0.108994 -0.436843
v 0.035871 0.052182 -0.436843
v -0.225354 -0.140879 -0.425491
v 0.024504 -0.140879 -0.436843
v 0.018355 -0.133891 -0.038415
v -0.226463 0.111360 -0.043887
v -0.179913 0.143071 -0.073525
v -0.179913 0.143071 -0.323278
v -0.179913 0.131703 -0.028074
v -0.134472 0.074918 -0.448278
v 0.035871 -0.072699 -0.380081
v -0.168546 0.108994 -0.436843
v 0.035871 0.040842 -0.448278
v -0.168546 0.131703 -0.039467
v 0.024504 -0.015887 -0.028074
v 0.035871 0.052182 -0.425491
v 0.035871 0.018106 -0.448278
v -0.202647 0.120335 -0.425491
v -0.215198 0.121085 -0.066050
v -0.168546 0.131703 -0.357376
vn 0.2226 0.9374 -0.2679
vn -0.9989 -0.0447 0.0162
vn 0.0012 -0.0967 0.9953
vn 0.0008 -0.9998 0.0176
vn 0.0008 -0.9998 0.0175
vn -0.9993 -0.0283 0.0263
vn 0.3882 0.9216 0.0000
vn -0.5144 0.8575 0.0000
vn -0.0252 -0.0342 0.9991
vn -0.3266 0.0126 0.9451
vn -0.4518 0.8655 0.2165
vn -0.1277 -0.0508 -0.9905
vn -0.0452 -0.0861 -0.9953
vn 1.0000 -0.0000 0.0000
vn 0.9862 -0.1641 0.0212
vn 0.9836 -0.1792 0.0183
vn 0.0000 0.3181 -0.9480
vn 0.0772 0.3857 -0.9194
vn 0.1936 0.6966 -0.6908
vn 0.2363 0.9426 0.2358
vn 0.5055 0.7001 0.5043
vn -0.0000 -0.0000 1.0000
vn 0.5272 0.8432 0.1055
vn 0.5946 0.7895 0.1522
vn 0.7002 0.7001 0.1399
vn -0.0234 -0.0701 -0.9973
vn 0.9914 -0.0784 -0.1044
vn -0.0000 0.0000 -1.0000
vn -0.2660 0.9518 -0.1526
vn 0.0000 0.7074 -0.7068
vn -0.6397 0.7685 0.0121
vn -0.5284 0.8490 0.0030
vn -0.5073 0.8538 0.1168
vn 0.2787 0.9351 -0.2189
vn 0.2582 0.9289 -0.2655
vn 0.1894 0.9487 -0.2532
usemtl Shape
s off
f 77//120 83//120 85//120
f 65//121 66//121 68//121
f 64//122 65//122 70//122
f 65//123 68//123 70//123
f 68//124 69//124 70//124
f 66//125 65//125 71//125
f 72//126 67//126 73//126
f 66//127 72//127 73//127
f 65//128 64//128 74//128
f 71//129 65//129 74//129
f 72//130 71//130 74//130
f 68//131 66//131 75//131
f 69//132 68//132 75//132
f 67//133 64//133 76//133
f 64//134 70//134 76//134
f 70//135 69//135 76//135
f 75//136 66//136 77//136
f 75//137 77//137 78//137
f 67//133 76//133 78//133
f 77//138 67//138 78//138
f 72//139 74//139 79//139
f 79//140 74//140 80//140
f 74//141 64//141 80//141
f 64//133 67//133 81//133
f 67//126 72//126 81//126
f 72//142 79//142 81//142
f 79//143 80//143 81//143
f 80//144 64//144 81//144
f 69//145 75//145 82//145
f 76//146 69//146 82//146
f 75//147 78//147 82//147
f 78//133 76//133 82//133
f 66//148 73//148 83//148
f 77//149 66//149 83//149
f 66//150 71//150 84//150
f 72//151 66//151 84//151
f 71//152 72//152 84//152
f 73//153 67//153 85//153
f 67//154 77//154 85//154
f 83//155 73//155 85//155
