# Blender v2.79 (sub 0) OBJ File: ''
# www.blender.org
mtllib model.mtl
o Shape_IndexedFaceSet.009
v 0.350870 0.018969 0.103821
v 0.053682 -0.018969 -0.111163
v 0.053682 0.018969 -0.111163
v 0.053682 -0.018969 0.110147
v 0.350870 -0.018969 -0.104837
v 0.053682 0.018969 0.110147
v 0.344528 0.018969 -0.111163
v 0.344528 -0.018969 0.110147
v 0.344528 -0.018969 -0.111163
v 0.344528 0.018969 0.110147
v 0.350870 0.018969 -0.104837
v 0.350870 -0.018969 0.103821
vn 0.0000 -1.0000 -0.0000
vn -1.0000 0.0000 0.0000
vn -0.0000 1.0000 0.0000
vn 0.0000 0.0000 -1.0000
vn 0.0000 0.0000 1.0000
vn 0.7062 0.0000 -0.7080
vn 0.7062 0.0000 0.7080
vn 1.0000 0.0000 0.0000
usemtl Shape.009
s off
f 8//1 5//1 12//1
f 3//2 2//2 4//2
f 4//1 2//1 5//1
f 1//3 3//3 6//3
f 3//2 4//2 6//2
f 3//3 1//3 7//3
f 2//4 3//4 7//4
f 4//1 5//1 8//1
f 6//5 4//5 8//5
f 5//1 2//1 9//1
f 2//4 7//4 9//4
f 7//6 5//6 9//6
f 1//3 6//3 10//3
f 8//7 1//7 10//7
f 6//5 8//5 10//5
f 1//8 5//8 11//8
f 7//3 1//3 11//3
f 5//6 7//6 11//6
f 5//8 1//8 12//8
f 1//7 8//7 12//7
o Shape_IndexedFaceSet.008
v 0.053678 0.018959 0.110147
v 0.009425 -0.063214 -0.111163
v 0.047353 -0.063214 -0.111163
v 0.009425 0.025275 -0.111163
v 0.009425 -0.063214 0.110147
v 0.009425 0.025275 0.110147
v 0.053678 0.018959 -0.111163
v 0.047353 -0.063214 0.110147
v 0.053678 -0.018969 -0.111163
v 0.047353 0.025275 -0.111163
v 0.053678 -0.018969 0.110147
v 0.047353 0.025275 0.110147
vn 0.0000 1.0000 0.0000
vn 0.0000 0.0000 -1.0000
vn 0.0000 -1.0000 -0.0000
vn -1.0000 0.0000 0.0000
vn 0.0000 0.0000 1.0000
vn 1.0000 0.0000 0.0000
vn 0.9899 -0.1415 -0.0000
vn 0.7066 0.7076 0.0000
usemtl Shape.008
s off
f 22//9 18//9 24//9
f 15//10 14//10 16//10
f 14//11 15//11 17//11
f 16//12 14//12 17//12
f 17//13 13//13 18//13
f 16//12 17//12 18//12
f 15//10 16//10 19//10
f 13//13 17//13 20//13
f 17//11 15//11 20//11
f 19//14 13//14 21//14
f 15//10 19//10 21//10
f 20//15 15//15 21//15
f 16//9 18//9 22//9
f 13//16 19//16 22//16
f 19//10 16//10 22//10
f 13//13 20//13 23//13
f 21//14 13//14 23//14
f 20//15 21//15 23//15
f 18//13 13//13 24//13
f 13//16 22//16 24//16
o Shape_IndexedFaceSet.007
v 0.009421 -0.063231 0.110147
v 0.009421 -0.208663 -0.111163
v 0.047359 -0.208663 -0.111163
v 0.009421 -0.208663 0.110147
v 0.047359 -0.063231 -0.111163
v 0.047359 -0.208663 0.110147
v -0.000387 -0.105085 -0.098743
v 0.047359 -0.063231 0.110147
v -0.003226 -0.139108 0.110147
v 0.009421 -0.063231 -0.111163
v -0.003226 -0.139108 -0.111163
v -0.000387 -0.105085 0.097728
vn -0.9965 0.0832 0.0000
vn 0.0000 -1.0000 0.0000
vn 0.0000 0.0000 -1.0000
vn 0.0000 -0.0000 1.0000
vn 1.0000 0.0000 0.0000
vn 0.0000 1.0000 0.0000
vn -0.9839 -0.1789 0.0000
vn -0.9736 0.2282 0.0000
vn -0.9624 0.1604 -0.2194
vn -0.9623 0.1604 0.2194
usemtl Shape.007
s off
f 31//17 33//17 36//17
f 26//18 27//18 28//18
f 27//19 26//19 29//19
f 28//18 27//18 30//18
f 25//20 28//20 30//20
f 27//21 29//21 30//21
f 29//22 25//22 32//22
f 25//20 30//20 32//20
f 30//21 29//21 32//21
f 26//23 28//23 33//23
f 28//20 25//20 33//20
f 25//22 29//22 34//22
f 29//19 26//19 34//19
f 31//24 25//24 34//24
f 31//25 34//25 35//25
f 26//23 33//23 35//23
f 33//17 31//17 35//17
f 34//19 26//19 35//19
f 25//24 31//24 36//24
f 33//26 25//26 36//26
o Shape_IndexedFaceSet.006
v -0.287712 -0.101170 0.110147
v -0.281633 -0.132095 -0.106325
v -0.288207 -0.132146 -0.100617
v -0.007685 -0.132301 0.106754
v -0.003226 -0.101170 -0.111163
v -0.287712 -0.101170 -0.111163
v -0.003226 -0.101170 0.110147
v -0.007685 -0.132301 -0.107770
v -0.282473 -0.132190 0.105978
v -0.294090 -0.101170 0.103821
v -0.294090 -0.101170 -0.104837
v -0.288710 -0.132201 0.099962
vn -0.9824 -0.1869 -0.0025
vn -0.6354 -0.2397 -0.7340
vn 0.0000 1.0000 0.0000
vn 0.0000 -0.1083 0.9941
vn 0.9899 -0.1418 0.0000
vn -0.0008 -1.0000 -0.0099
vn -0.0053 -0.1556 -0.9878
vn 0.0000 -0.1083 -0.9941
vn -0.0029 -0.1337 0.9910
vn -0.6862 -0.2246 -0.6919
vn -0.9853 -0.1708 -0.0000
vn -0.0006 -1.0000 -0.0003
vn -0.0004 -1.0000 0.0000
vn -0.6787 -0.2092 0.7040
vn -0.0004 -1.0000 0.0023
vn -0.6891 -0.2059 0.6948
usemtl Shape.006
s off
f 47//27 39//27 48//27
f 38//28 39//28 42//28
f 37//29 41//29 42//29
f 37//30 40//30 43//30
f 41//29 37//29 43//29
f 40//31 41//31 43//31
f 39//32 38//32 44//32
f 41//31 40//31 44//31
f 38//33 42//33 44//33
f 42//34 41//34 44//34
f 40//35 37//35 45//35
f 37//29 42//29 46//29
f 42//36 39//36 47//36
f 46//29 42//29 47//29
f 46//37 47//37 48//37
f 39//38 44//38 48//38
f 44//39 40//39 48//39
f 45//40 37//40 48//40
f 40//41 45//41 48//41
f 37//42 46//42 48//42
o Shape_IndexedFaceSet.005
v -0.000605 0.105114 -0.099698
v 0.047359 0.252925 0.110147
v 0.047359 0.252925 -0.111163
v 0.047359 0.025293 0.110147
v 0.009421 0.252925 0.110147
v 0.047359 0.025293 -0.111163
v 0.009421 0.025293 0.110147
v 0.009421 0.252925 -0.111163
v 0.009421 0.025293 -0.111163
v -0.003226 0.139109 0.110147
v -0.003226 0.139109 -0.111163
v -0.000605 0.105114 0.098682
vn -0.9889 -0.1099 0.0998
vn 1.0000 0.0000 0.0000
vn 0.0000 1.0000 0.0000
vn 0.0000 -0.0000 1.0000
vn 0.0000 -1.0000 -0.0000
vn 0.0000 0.0000 -1.0000
vn -0.9922 -0.1246 0.0000
vn -0.9939 0.1104 0.0000
vn -0.9889 -0.1099 -0.0998
vn -0.9970 -0.0769 0.0000
usemtl Shape.005
s off
f 55//43 58//43 60//43
f 51//44 50//44 52//44
f 50//45 51//45 53//45
f 52//46 50//46 53//46
f 51//44 52//44 54//44
f 54//47 52//47 55//47
f 52//46 53//46 55//46
f 53//45 51//45 56//45
f 51//48 54//48 56//48
f 56//48 54//48 57//48
f 54//47 55//47 57//47
f 55//49 49//49 57//49
f 55//46 53//46 58//46
f 53//50 56//50 58//50
f 58//50 56//50 59//50
f 56//48 57//48 59//48
f 57//51 49//51 59//51
f 49//52 58//52 59//52
f 49//49 55//49 60//49
f 58//52 49//52 60//52
o Shape_IndexedFaceSet.004
v -0.282473 0.132190 0.105978
v -0.287712 0.101170 -0.111163
v -0.294090 0.101170 -0.104837
v -0.003226 0.101170 0.110147
v -0.007685 0.132301 -0.107770
v -0.003226 0.101170 -0.111163
v -0.287712 0.101170 0.110147
v -0.007685 0.132301 0.106754
v -0.281633 0.132095 -0.106325
v -0.288710 0.132201 0.099962
v -0.288207 0.132146 -0.100617
v -0.294090 0.101170 0.103821
vn -0.9853 0.1708 0.0000
vn -0.0000 -1.0000 0.0000
vn 0.0000 0.1083 -0.9941
vn 0.9899 0.1418 0.0000
vn 0.0000 0.1083 0.9941
vn -0.0029 0.1337 0.9910
vn -0.0053 0.1556 -0.9878
vn -0.6787 0.2092 0.7040
vn -0.0004 1.0000 0.0023
vn -0.0004 1.0000 0.0000
vn -0.6862 0.2246 -0.6919
vn -0.6354 0.2397 -0.7340
vn -0.0008 1.0000 -0.0099
vn -0.0006 1.0000 -0.0003
vn -0.9824 0.1869 -0.0025
vn -0.6891 0.2059 0.6948
usemtl Shape.004
s off
f 70//53 63//53 72//53
f 63//54 62//54 64//54
f 62//55 65//55 66//55
f 64//54 62//54 66//54
f 65//56 64//56 66//56
f 63//54 64//54 67//54
f 67//57 64//57 68//57
f 64//56 65//56 68//56
f 61//58 67//58 68//58
f 65//59 62//59 69//59
f 67//60 61//60 70//60
f 61//61 68//61 70//61
f 68//62 65//62 70//62
f 62//63 63//63 71//63
f 69//64 62//64 71//64
f 65//65 69//65 71//65
f 70//66 65//66 71//66
f 63//67 70//67 71//67
f 63//54 67//54 72//54
f 67//68 70//68 72//68
o Shape_IndexedFaceSet.003
v 0.344430 0.373065 0.110147
v -0.287713 0.341453 -0.111163
v -0.294090 0.341453 -0.104837
v 0.350870 0.341453 0.103821
v 0.344430 0.373065 -0.111163
v -0.287713 0.373065 0.110147
v -0.287713 0.341453 0.110147
v -0.287713 0.373065 -0.111163
v 0.344430 0.341453 -0.111163
v 0.008311 0.339015 0.087477
v 0.008311 0.339015 -0.088492
v 0.344430 0.341453 0.110147
v 0.350870 0.373065 -0.104837
v -0.294090 0.373065 0.103821
v 0.350870 0.341453 -0.104837
v -0.294090 0.341453 0.103821
v 0.350870 0.373065 0.103821
v -0.294090 0.373065 -0.104837
vn 0.0000 1.0000 0.0000
vn 0.0000 0.0000 1.0000
vn -0.7043 0.0000 -0.7099
vn 0.0000 0.0000 -1.0000
vn -0.0076 -0.9999 -0.0077
vn 0.0000 -0.9943 -0.1069
vn -0.0081 -1.0000 0.0000
vn 0.0071 -1.0000 0.0000
vn 0.7008 0.0000 0.7134
vn 0.0000 -0.9943 0.1069
vn 0.0068 -1.0000 0.0069
vn 0.7008 0.0000 -0.7134
vn -0.7043 0.0000 0.7099
vn 0.0068 -1.0000 -0.0069
vn 1.0000 0.0000 0.0000
vn -0.0076 -0.9999 0.0077
vn -1.0000 0.0000 0.0000
usemtl Shape.003
s off
f 86//69 80//69 90//69
f 73//69 77//69 78//69
f 73//70 78//70 79//70
f 74//71 75//71 80//71
f 77//72 74//72 80//72
f 78//69 77//69 80//69
f 74//72 77//72 81//72
f 75//73 74//73 83//73
f 74//74 81//74 83//74
f 82//75 75//75 83//75
f 76//76 82//76 83//76
f 76//77 73//77 84//77
f 73//70 79//70 84//70
f 79//78 82//78 84//78
f 82//79 76//79 84//79
f 77//69 73//69 85//69
f 81//80 77//80 85//80
f 79//81 78//81 86//81
f 78//69 80//69 86//69
f 83//82 81//82 87//82
f 76//76 83//76 87//76
f 85//83 76//83 87//83
f 81//80 85//80 87//80
f 75//75 82//75 88//75
f 82//84 79//84 88//84
f 79//81 86//81 88//81
f 86//85 75//85 88//85
f 73//77 76//77 89//77
f 85//69 73//69 89//69
f 76//83 85//83 89//83
f 80//71 75//71 90//71
f 75//85 86//85 90//85
o Shape_IndexedFaceSet.002
v 0.047356 0.335118 0.110147
v 0.009428 0.252925 -0.111163
v 0.047356 0.252925 -0.111163
v 0.009428 0.252925 0.110147
v 0.009428 0.335118 -0.111163
v 0.047356 0.335118 -0.111163
v 0.047356 0.252925 0.110147
v 0.009428 0.335118 0.110147
vn -1.0000 -0.0000 0.0000
vn 0.0000 -1.0000 0.0000
vn 0.0000 0.0000 -1.0000
vn 1.0000 0.0000 0.0000
vn 0.0000 1.0000 0.0000
vn 0.0000 -0.0000 1.0000
usemtl Shape.002
s off
f 95//86 94//86 98//86
f 92//87 93//87 94//87
f 93//88 92//88 95//88
f 92//86 94//86 95//86
f 91//89 93//89 96//89
f 95//90 91//90 96//90
f 93//88 95//88 96//88
f 93//89 91//89 97//89
f 94//87 93//87 97//87
f 91//91 94//91 97//91
f 94//91 91//91 98//91
f 91//90 95//90 98//90
o Shape_IndexedFaceSet.001
v 0.047356 -0.208663 0.110147
v 0.009428 -0.335126 -0.111163
v 0.047356 -0.335126 -0.111163
v 0.009428 -0.335126 0.110147
v 0.009428 -0.208663 -0.111163
v 0.047356 -0.208663 -0.111163
v 0.047356 -0.335126 0.110147
v 0.009428 -0.208663 0.110147
vn -1.0000 -0.0000 0.0000
vn 0.0000 -1.0000 0.0000
vn 0.0000 0.0000 -1.0000
vn 1.0000 0.0000 0.0000
vn 0.0000 1.0000 0.0000
vn 0.0000 -0.0000 1.0000
usemtl Shape.001
s off
f 103//92 102//92 106//92
f 100//93 101//93 102//93
f 101//94 100//94 103//94
f 100//92 102//92 103//92
f 99//95 101//95 104//95
f 103//96 99//96 104//96
f 101//94 103//94 104//94
f 101//95 99//95 105//95
f 102//93 101//93 105//93
f 99//97 102//97 105//97
f 102//97 99//97 106//97
f 99//96 103//96 106//96
o Shape_IndexedFaceSet
v 0.344430 -0.341453 0.110147
v -0.287713 -0.373065 -0.111163
v -0.294090 -0.373065 -0.104837
v 0.350870 -0.373065 0.103821
v 0.344430 -0.341453 -0.111163
v -0.287713 -0.341453 0.110147
v -0.287713 -0.373065 0.110147
v -0.287713 -0.341453 -0.111163
v 0.344430 -0.373065 -0.111163
v 0.008312 -0.339016 0.087473
v 0.008312 -0.339016 -0.088489
v 0.344430 -0.373065 0.110147
v 0.350870 -0.341453 -0.104837
v -0.294090 -0.341453 0.103821
v 0.350870 -0.341453 0.103821
v -0.294090 -0.341453 -0.104837
v 0.350870 -0.373065 -0.104837
v -0.294090 -0.373065 0.103821
vn -1.0000 0.0000 0.0000
vn 0.0000 -1.0000 0.0000
vn 0.0000 0.0000 1.0000
vn -0.7043 0.0000 -0.7099
vn 0.0000 0.0000 -1.0000
vn 0.0000 0.9943 0.1069
vn 0.0000 0.9943 -0.1069
vn 0.7008 0.0000 0.7134
vn 0.7008 0.0000 -0.7134
vn 0.0071 1.0000 0.0000
vn 0.0068 1.0000 -0.0069
vn -0.7043 0.0000 0.7099
vn -0.0076 0.9999 0.0077
vn -0.0081 1.0000 0.0000
vn 0.0068 1.0000 0.0069
vn 1.0000 0.0000 0.0000
vn -0.0076 0.9999 -0.0077
usemtl Shape
s off
f 120//98 109//98 124//98
f 109//99 108//99 110//99
f 107//100 112//100 113//100
f 109//99 110//99 113//99
f 108//101 109//101 114//101
f 111//102 108//102 114//102
f 110//99 108//99 115//99
f 108//102 111//102 115//102
f 112//103 107//103 116//103
f 111//104 114//104 117//104
f 110//105 107//105 118//105
f 107//100 113//100 118//100
f 113//99 110//99 118//99
f 115//106 111//106 119//106
f 117//107 116//107 119//107
f 111//108 117//108 119//108
f 113//109 112//109 120//109
f 112//110 116//110 120//110
f 116//111 117//111 120//111
f 107//105 110//105 121//105
f 116//112 107//112 121//112
f 110//113 119//113 121//113
f 119//107 116//107 121//107
f 114//101 109//101 122//101
f 117//114 114//114 122//114
f 109//98 120//98 122//98
f 120//111 117//111 122//111
f 110//99 115//99 123//99
f 119//113 110//113 123//113
f 115//106 119//106 123//106
f 109//99 113//99 124//99
f 113//109 120//109 124//109
