# File produced by Open Asset Import Library (http://www.assimp.sf.net)
# (assimp v3.2.202087883)

mtllib model_normalized.mtl

# 64 vertex positions
v -0.314805 -0.177036 0.197341
v 0.314806 -0.177036 -0.197341
v 0.314806 -0.177036 0.197341
v -0.314805 -0.177036 -0.197341
v 0.364141 0.034400 0.246676
v -0.364141 0.034400 0.246676
v -0.364141 0.034400 -0.246676
v 0.364141 0.034400 -0.246676
v 0.391549 0.034400 0.274084
v -0.391549 0.034400 0.274084
v -0.391549 0.034400 -0.274084
v 0.391549 0.034400 -0.274084
v -0.393371 0.033744 0.275906
v 0.393371 0.033744 0.275906
v -0.393371 0.033744 -0.275906
v 0.393371 0.033744 -0.275906
v -0.394956 0.032651 0.277491
v -0.394956 0.032651 -0.277491
v 0.394956 0.032651 0.277491
v 0.394956 0.032651 -0.277491
v -0.396196 0.031196 0.278731
v 0.396196 0.031196 0.278731
v 0.396196 0.031196 -0.278731
v -0.396196 0.031196 -0.278731
v -0.397007 0.029478 0.279543
v 0.397008 0.029478 0.279543
v 0.397008 0.029478 -0.279543
v -0.397007 0.029478 -0.279543
v -0.397335 0.027614 0.279870
v 0.397335 0.027614 0.279870
v 0.397335 0.027614 -0.279870
v -0.397335 0.027614 -0.279870
v -0.397155 0.025730 0.279690
v -0.397155 0.025730 -0.279691
v 0.397155 0.025730 -0.279691
v 0.397155 0.025730 0.279690
v -0.396481 0.023957 0.279016
v -0.396481 0.023957 -0.279017
v 0.396481 0.023957 -0.279017
v 0.396481 0.023957 0.279016
v -0.395360 0.022412 0.277895
v -0.395360 0.022412 -0.277894
v 0.395359 0.022412 -0.277894
v 0.395359 0.022412 0.277895
v 0.393865 0.021205 0.276401
v -0.393866 0.021205 -0.276400
v 0.393865 0.021205 -0.276400
v -0.393866 0.021205 0.276401
v 0.392100 0.020414 0.274636
v -0.392100 0.020414 -0.274636
v 0.392100 0.020414 -0.274636
v -0.392100 0.020414 0.274636
v 0.390186 0.020096 0.272722
v -0.390187 0.020096 -0.272721
v 0.390186 0.020096 -0.272721
v -0.390187 0.020096 0.272722
v 0.388252 0.020270 0.270788
v -0.388252 0.020270 -0.270788
v 0.388252 0.020270 -0.270788
v -0.388252 0.020270 0.270788
v -0.336732 -0.200529 0.219267
v -0.336732 -0.200529 -0.219268
v 0.336732 -0.200529 -0.219268
v 0.336732 -0.200529 0.219267

# 239 UV coordinates
vt -0.451 0.301 0
vt -0.049 0.049 0
vt -0.049 0.301 0
vt -0.451 0.049 0
vt -0.049 0.003473 0
vt -0.3325 0.1421 0
vt -0.301 0.003473 0
vt -0.0175 0.22163 0
vt -0.451 0.083004 0
vt -0.049 0.083004 0
vt 0.3325 0.255714 0
vt 0.049 0.117088 0
vt 0.301 0.117088 0
vt 0.4825 0.1421 0
vt 0.049 0.003473 0
vt 0.451 0.003473 0
vt -0.0175 0.1421 0
vt -0.4825 0.22163 0
vt 0.0175 0.255714 0
vt 0.0175 0.1421 0
vt 0.0175 0.3325 0
vt -0 0.35 0
vt 0.0175 0.0175 0
vt 0.5 0.35 0
vt 0.4825 0.3325 0
vt 0.4825 0.0175 0
vt 0.5 0 0
vt -0 0 0
vt -0.501163 -0.279676 0
vt 0 -0.27844 0
vt -0.5 -0.27844 0
vt -0.351163 0.049606 0
vt -0 0.050842 0
vt -0.35 0.050842 0
vt -0.001163 -0.420797 0
vt 0.35 -0.419561 0
vt 0 -0.419561 0
vt 0.501163 0.049606 0
vt 0.5 0.050842 0
vt 0.001163 -0.279676 0
vt 0.351163 -0.420797 0
vt 0.001163 0.049606 0
vt -0.001163 0.049606 0
vt -0.502175 -0.205408 0
vt 0.001163 -0.204179 0
vt -0.501163 -0.204179 0
vt -0.002175 -0.328895 0
vt 0.351163 -0.327666 0
vt -0.001163 -0.327666 0
vt -0.352175 0.082728 0
vt 0.001163 0.083957 0
vt -0.351163 0.083957 0
vt -0.001163 0.083957 0
vt 0.502175 0.082728 0
vt 0.501163 0.083957 0
vt 0.002175 -0.205408 0
vt 0.352175 -0.328895 0
vt 0.002175 0.082728 0
vt -0.002175 0.082728 0
vt -0.502967 -0.116386 0
vt 0.002175 -0.115166 0
vt -0.502175 -0.115166 0
vt -0.002175 -0.212476 0
vt 0.352967 -0.213697 0
vt 0.352175 -0.212476 0
vt -0.352967 0.11067 0
vt 0.002175 0.111891 0
vt -0.352175 0.111891 0
vt -0.002967 0.11067 0
vt 0.502175 0.111891 0
vt -0.002175 0.111891 0
vt 0.002967 -0.116386 0
vt -0.002967 -0.213697 0
vt 0.002967 0.11067 0
vt 0.502967 0.11067 0
vt -0.503485 -0.018158 0
vt 0.002967 -0.016944 0
vt -0.502967 -0.016944 0
vt -0.002967 -0.081 0
vt 0.353485 -0.082213 0
vt 0.352967 -0.081 0
vt -0.353485 0.131305 0
vt 0.002967 0.132518 0
vt -0.352967 0.132518 0
vt -0.003485 0.131305 0
vt 0.502967 0.132518 0
vt -0.002967 0.132518 0
vt 0.003485 -0.018158 0
vt -0.003485 -0.082213 0
vt 0.003485 0.131305 0
vt 0.503485 0.131305 0
vt -0.503694 0.082339 0
vt 0.003485 0.083547 0
vt -0.503485 0.083547 0
vt -0.003485 0.05762 0
vt 0.353694 0.056412 0
vt 0.353485 0.05762 0
vt -0.353694 0.142836 0
vt 0.003485 0.144044 0
vt -0.353485 0.144044 0
vt -0.003694 0.142836 0
vt 0.503485 0.144044 0
vt -0.003485 0.144044 0
vt 0.003694 0.082339 0
vt -0.003694 0.056412 0
vt 0.003694 0.142836 0
vt 0.503694 0.142836 0
vt -0.503579 0.177355 0
vt 0.003694 0.178563 0
vt -0.503694 0.178563 0
vt -0.003579 0.191584 0
vt 0.353694 0.192792 0
vt -0.003694 0.192792 0
vt -0.353694 0.14536 0
vt 0.003579 0.144152 0
vt 0.003694 0.14536 0
vt -0.003579 0.144152 0
vt 0.503694 0.14536 0
vt -0.003694 0.14536 0
vt 0.003579 0.177355 0
vt 0.353579 0.191584 0
vt 0.503579 0.144152 0
vt -0.353579 0.144152 0
vt -0.503149 0.259401 0
vt 0.003579 0.260613 0
vt -0.503579 0.260613 0
vt -0.003149 0.31267 0
vt 0.353579 0.313882 0
vt -0.003579 0.313882 0
vt -0.003149 0.135108 0
vt 0.503579 0.136319 0
vt -0.003579 0.136319 0
vt -0.353579 0.136319 0
vt 0.003149 0.135108 0
vt 0.003579 0.136319 0
vt 0.003149 0.259401 0
vt 0.353149 0.31267 0
vt 0.503149 0.135108 0
vt -0.353149 0.135108 0
vt -0.502433 0.32239 0
vt 0.003149 0.323608 0
vt -0.503149 0.323608 0
vt -0.002433 0.410603 0
vt 0.353149 0.411821 0
vt -0.003149 0.411821 0
vt -0.002433 0.11656 0
vt 0.503149 0.117778 0
vt -0.003149 0.117778 0
vt -0.353149 0.117778 0
vt 0.002433 0.11656 0
vt 0.003149 0.117778 0
vt 0.002433 0.32239 0
vt 0.352433 0.410603 0
vt 0.502433 0.11656 0
vt -0.352433 0.11656 0
vt -0.502433 0.363563 0
vt 0.001479 0.362336 0
vt 0.002433 0.363563 0
vt -0.001479 0.478984 0
vt 0.352433 0.480211 0
vt -0.002433 0.480211 0
vt -0.001479 0.090157 0
vt 0.502433 0.091383 0
vt -0.002433 0.091383 0
vt -0.351479 0.090157 0
vt 0.002433 0.091383 0
vt -0.352433 0.091383 0
vt -0.501479 0.362336 0
vt 0.351479 0.478984 0
vt 0.501479 0.090157 0
vt 0.001479 0.090157 0
vt -0.501479 0.378644 0
vt 0.000352 0.37741 0
vt 0.001479 0.378644 0
vt -0.000352 0.514307 0
vt 0.351479 0.515541 0
vt -0.001479 0.515541 0
vt -0.000352 0.057984 0
vt 0.501479 0.059219 0
vt -0.001479 0.059219 0
vt -0.350352 0.057984 0
vt 0.001479 0.059219 0
vt -0.351479 0.059219 0
vt -0.500352 0.37741 0
vt 0.350352 0.514307 0
vt 0.500352 0.057984 0
vt 0.000352 0.057984 0
vt -0.500352 0.368758 0
vt -0.00087 0.367519 0
vt 0.000352 0.368758 0
vt 0.00087 0.515484 0
vt 0.350352 0.516723 0
vt -0.000352 0.516723 0
vt 0.00087 0.022268 0
vt 0.500352 0.023507 0
vt -0.000352 0.023507 0
vt -0.34913 0.022268 0
vt 0.000352 0.023507 0
vt -0.350352 0.023507 0
vt -0.49913 0.367519 0
vt 0.34913 0.515484 0
vt 0.49913 0.022268 0
vt -0.00087 0.022268 0
vt 0.49913 -0.335034 0
vt 0.002105 -0.333794 0
vt 0.00087 -0.335034 0
vt -0.002105 -0.483185 0
vt -0.34913 -0.484425 0
vt -0.00087 -0.484425 0
vt -0.002105 0.014785 0
vt -0.49913 0.013546 0
vt -0.00087 0.013546 0
vt 0.347895 0.014785 0
vt 0.00087 0.013546 0
vt 0.34913 0.013546 0
vt 0.497895 -0.333794 0
vt -0.347895 -0.483185 0
vt -0.497895 0.014785 0
vt 0.002105 0.014785 0
vt -0.465 0.071577 0
vt -0.002105 0.216343 0
vt -0.497895 0.216343 0
vt 0.035 0.105662 0
vt 0.347895 0.250427 0
vt 0.002105 0.250427 0
vt 0.035 -0.007953 0
vt 0.497895 0.136812 0
vt 0.002105 0.136812 0
vt -0.347895 0.136812 0
vt -0.035 -0.007953 0
vt -0.002105 0.136812 0
vt -0.035 0.071577 0
vt 0.315 0.105662 0
vt 0.465 -0.007953 0
vt -0.315 -0.007953 0
vt -0.465 0.315 0
vt -0.035 0.035 0
vt -0.035 0.315 0
vt -0.465 0.035 0

# 114 vertex normals
vn 0 -0.0254 0
vn 0 0.0254 0
vn 0.0247356 -0.00577164 0
vn -0.0247356 0.00577164 0
vn 0 -0.00577164 0.0247356
vn 0 0.00577164 -0.0247356
vn -0.0247356 -0.00577164 0
vn 0.0247356 0.00577164 0
vn 0 -0.00577164 -0.0247356
vn 0 0.00577164 0.0247356
vn 0 0.022591 0.0116106
vn 0 0.0238965 0.00860923
vn 0 -0.0238965 -0.00860923
vn 0 -0.022591 -0.0116106
vn 0.0116106 0.022591 0
vn 0.00860923 0.0238965 0
vn -0.00860923 -0.0238965 0
vn -0.0116106 -0.022591 0
vn -0.0116106 0.022591 0
vn -0.00860923 0.0238965 0
vn 0.00860923 -0.0238965 0
vn 0.0116106 -0.022591 0
vn 0 0.0238965 -0.00860923
vn 0 0.022591 -0.0116106
vn 0 -0.0238965 0.00860923
vn 0 -0.022591 0.0116106
vn 0 0.0188547 0.0170194
vn 0 -0.0188547 -0.0170194
vn -0.0170194 0.0188547 0
vn 0.0170194 -0.0188547 0
vn 0.0170194 0.0188547 0
vn -0.0170194 -0.0188547 0
vn 0 0.0188547 -0.0170194
vn 0 -0.0188547 0.0170194
vn 0 0.0137828 0.0213353
vn 0 -0.0137828 -0.0213353
vn -0.0213353 0.0137828 0
vn 0.0213353 -0.0137828 0
vn 0.0213353 0.0137828 0
vn -0.0213353 -0.0137828 0
vn 0 0.0137828 -0.0213353
vn 0 -0.0137828 0.0213353
vn 0 0.00768718 0.0242088
vn 0 -0.00768718 -0.0242088
vn -0.0242088 0.00768718 0
vn 0.0242088 -0.00768718 0
vn 0.0242088 0.00768718 0
vn -0.0242088 -0.00768718 0
vn 0 0.00768718 -0.0242088
vn 0 -0.00768718 0.0242088
vn 0 0.000999414 0.0253803
vn 0 -0.000999414 -0.0253803
vn -0.0253803 0.000999414 0
vn 0.0253803 -0.000999414 0
vn 0.0253803 0.000999414 0
vn -0.0253803 -0.000999414 0
vn 0 0.000999414 -0.0253803
vn 0 -0.000999414 0.0253803
vn 0 -0.00576656 0.0247368
vn 0 0.00576656 -0.0247368
vn -0.0247368 -0.00576656 0
vn 0.0247368 0.00576656 0
vn 0.0247368 -0.00576656 0
vn -0.0247368 0.00576656 0
vn -0 -0.00576656 -0.0247368
vn 0 0.00576656 0.0247368
vn 0 -0.0120852 0.0223407
vn 0 0.0120852 -0.0223407
vn -0.0223407 -0.0120852 0
vn 0.0223407 0.0120852 0
vn -0 -0.0120852 -0.0223407
vn 0 0.0120852 0.0223407
vn 0.0223407 -0.0120852 0
vn -0.0223407 0.0120852 0
vn 0 -0.0174951 0.0184142
vn 0 0.0174951 -0.0184142
vn -0.0184142 -0.0174951 0
vn 0.0184142 0.0174951 0
vn -0 -0.0174951 -0.0184142
vn 0 0.0174951 0.0184142
vn 0.0184142 -0.0174951 0
vn -0.0184142 0.0174951 0
vn 0 -0.0216478 0.0132866
vn 0 0.0216478 -0.0132866
vn -0.0132866 -0.0216478 0
vn 0.0132866 0.0216478 0
vn -0 -0.0216478 -0.0132866
vn 0 0.0216478 0.0132866
vn 0.0132866 -0.0216478 0
vn -0.0132866 0.0216478 0
vn 0 -0.0243175 0.00733623
vn 0 0.0243175 -0.00733623
vn -0.00733623 -0.0243175 0
vn 0.00733623 0.0243175 0
vn -0 -0.0243175 -0.00733623
vn 0 0.0243175 0.00733623
vn 0.00733623 -0.0243175 0
vn -0.00733623 0.0243175 0
vn 0 -0.0253822 0.000949579
vn 0 0.0253822 -0.000949579
vn -0.000949579 -0.0253822 0
vn 0.000949579 0.0253822 0
vn -0 -0.0253822 -0.000949579
vn 0 0.0253822 0.000949579
vn 0.000949579 -0.0253822 0
vn -0.000949579 0.0253822 0
vn -0 -0.0252969 -0.00228618
vn 0 0.0252969 0.00228618
vn 0.00228618 -0.0252969 0
vn -0.00228618 0.0252969 0
vn 0 -0.0252969 0.00228618
vn 0 0.0252969 -0.00228618
vn -0.00228618 -0.0252969 0
vn 0.00228618 0.0252969 0

# Mesh 'mesh1_mesh1-geometry' with 248 faces
g mesh1_mesh1-geometry
usemtl material_0_1_8
f  1/1/1 2/2/1 3/3/1
f  2/2/1 1/1/1 4/4/1
f  3/3/2 2/2/2 1/1/2
f  4/4/2 1/1/2 2/2/2
f  2/5/3 5/6/3 3/7/3
f  3/7/4 5/6/4 2/5/4
f  5/8/5 1/9/5 3/10/5
f  3/10/6 1/9/6 5/8/6
f  6/11/7 4/12/7 1/13/7
f  1/13/8 4/12/8 6/11/8
f  7/14/9 2/15/9 4/16/9
f  4/16/10 2/15/10 7/14/10
f  5/6/3 2/5/3 8/17/3
f  8/17/4 2/5/4 5/6/4
f  1/9/5 5/8/5 6/18/5
f  6/18/6 5/8/6 1/9/6
f  4/12/7 6/11/7 7/19/7
f  7/19/8 6/11/8 4/12/8
f  2/15/9 7/14/9 8/20/9
f  8/20/10 7/14/10 2/15/10
f  5/21/2 9/22/2 8/23/2
f  8/23/1 9/22/1 5/21/1
f  10/24/2 5/21/2 6/25/2
f  6/25/1 5/21/1 10/24/1
f  7/26/2 11/27/2 6/25/2
f  6/25/1 11/27/1 7/26/1
f  8/23/2 11/27/2 7/26/2
f  7/26/1 11/27/1 8/23/1
f  9/22/2 5/21/2 10/24/2
f  10/24/1 5/21/1 9/22/1
f  12/28/2 8/23/2 9/22/2
f  9/22/1 8/23/1 12/28/1
f  10/24/2 6/25/2 11/27/2
f  11/27/1 6/25/1 10/24/1
f  8/23/2 12/28/2 11/27/2
f  11/27/1 12/28/1 8/23/1
f  13/29/11 9/30/12 10/31/12
f  10/31/13 9/30/13 13/29/14
f  14/32/15 12/33/16 9/34/16
f  9/34/17 12/33/17 14/32/18
f  15/35/19 10/36/20 11/37/20
f  11/37/21 10/36/21 15/35/22
f  12/33/23 15/38/24 11/39/23
f  11/39/25 15/38/26 12/33/25
f  9/30/12 13/29/11 14/40/11
f  14/40/14 13/29/14 9/30/13
f  10/36/20 15/35/19 13/41/19
f  13/41/22 15/35/22 10/36/21
f  12/33/16 14/32/15 16/42/15
f  16/42/18 14/32/18 12/33/17
f  15/38/24 12/33/23 16/43/24
f  16/43/26 12/33/25 15/38/26
f  17/44/27 14/45/11 13/46/11
f  13/46/14 14/45/14 17/44/28
f  18/47/29 13/48/19 15/49/19
f  15/49/22 13/48/22 18/47/30
f  19/50/31 16/51/15 14/52/15
f  14/52/18 16/51/18 19/50/32
f  16/53/24 18/54/33 15/55/24
f  15/55/26 18/54/34 16/53/26
f  14/45/11 17/44/27 19/56/27
f  19/56/28 17/44/28 14/45/14
f  13/48/19 18/47/29 17/57/29
f  17/57/30 18/47/30 13/48/22
f  16/51/15 19/50/31 20/58/31
f  20/58/32 19/50/32 16/51/18
f  18/54/33 16/53/24 20/59/33
f  20/59/34 16/53/26 18/54/34
f  21/60/35 19/61/27 17/62/27
f  17/62/28 19/61/28 21/60/36
f  18/63/29 21/64/37 17/65/29
f  17/65/30 21/64/38 18/63/30
f  22/66/39 20/67/31 19/68/31
f  19/68/32 20/67/32 22/66/40
f  23/69/41 18/70/33 20/71/33
f  20/71/34 18/70/34 23/69/42
f  19/61/27 21/60/35 22/72/35
f  22/72/36 21/60/36 19/61/28
f  21/64/37 18/63/29 24/73/37
f  24/73/38 18/63/30 21/64/38
f  20/67/31 22/66/39 23/74/39
f  23/74/40 22/66/40 20/67/32
f  18/70/33 23/69/41 24/75/41
f  24/75/42 23/69/42 18/70/34
f  25/76/43 22/77/35 21/78/35
f  21/78/36 22/77/36 25/76/44
f  24/79/37 25/80/45 21/81/37
f  21/81/38 25/80/46 24/79/38
f  26/82/47 23/83/39 22/84/39
f  22/84/40 23/83/40 26/82/48
f  27/85/49 24/86/41 23/87/41
f  23/87/42 24/86/42 27/85/50
f  22/77/35 25/76/43 26/88/43
f  26/88/44 25/76/44 22/77/36
f  25/80/45 24/79/37 28/89/45
f  28/89/46 24/79/38 25/80/46
f  23/83/39 26/82/47 27/90/47
f  27/90/48 26/82/48 23/83/40
f  24/86/41 27/85/49 28/91/49
f  28/91/50 27/85/50 24/86/42
f  29/92/51 26/93/43 25/94/43
f  25/94/44 26/93/44 29/92/52
f  28/95/45 29/96/53 25/97/45
f  25/97/46 29/96/54 28/95/46
f  30/98/55 27/99/47 26/100/47
f  26/100/48 27/99/48 30/98/56
f  31/101/57 28/102/49 27/103/49
f  27/103/50 28/102/50 31/101/58
f  26/93/43 29/92/51 30/104/51
f  30/104/52 29/92/52 26/93/44
f  29/96/53 28/95/45 32/105/53
f  32/105/54 28/95/46 29/96/54
f  27/99/47 30/98/55 31/106/55
f  31/106/56 30/98/56 27/99/48
f  28/102/49 31/101/57 32/107/57
f  32/107/58 31/101/58 28/102/50
f  33/108/59 30/109/51 29/110/51
f  29/110/52 30/109/52 33/108/60
f  34/111/61 29/112/53 32/113/53
f  32/113/54 29/112/54 34/111/62
f  30/114/55 35/115/63 31/116/55
f  31/116/56 35/115/64 30/114/56
f  35/117/65 32/118/57 31/119/57
f  31/119/58 32/118/58 35/117/66
f  30/109/51 33/108/59 36/120/59
f  36/120/60 33/108/60 30/109/52
f  29/112/53 34/111/61 33/121/61
f  33/121/62 34/111/62 29/112/54
f  32/118/57 35/117/65 34/122/65
f  34/122/66 35/117/66 32/118/58
f  35/115/63 30/114/55 36/123/63
f  36/123/64 30/114/56 35/115/64
f  37/124/67 36/125/59 33/126/59
f  33/126/60 36/125/60 37/124/68
f  38/127/69 33/128/61 34/129/61
f  34/129/62 33/128/62 38/127/70
f  39/130/71 34/131/65 35/132/65
f  35/132/66 34/131/66 39/130/72
f  36/133/63 39/134/73 35/135/63
f  35/135/64 39/134/74 36/133/64
f  36/125/59 37/124/67 40/136/67
f  40/136/68 37/124/68 36/125/60
f  33/128/61 38/127/69 37/137/69
f  37/137/70 38/127/70 33/128/62
f  34/131/65 39/130/71 38/138/71
f  38/138/72 39/130/72 34/131/66
f  39/134/73 36/133/63 40/139/73
f  40/139/74 36/133/64 39/134/74
f  41/140/75 40/141/67 37/142/67
f  37/142/68 40/141/68 41/140/76
f  42/143/77 37/144/69 38/145/69
f  38/145/70 37/144/70 42/143/78
f  43/146/79 38/147/71 39/148/71
f  39/148/72 38/147/72 43/146/80
f  40/149/73 43/150/81 39/151/73
f  39/151/74 43/150/82 40/149/74
f  40/141/67 41/140/75 44/152/75
f  44/152/76 41/140/76 40/141/68
f  37/144/69 42/143/77 41/153/77
f  41/153/78 42/143/78 37/144/70
f  38/147/71 43/146/79 42/154/79
f  42/154/80 43/146/80 38/147/72
f  43/150/81 40/149/73 44/155/81
f  44/155/82 40/149/74 43/150/82
f  41/156/75 45/157/83 44/158/75
f  44/158/76 45/157/84 41/156/76
f  46/159/85 41/160/77 42/161/77
f  42/161/78 41/160/78 46/159/86
f  47/162/87 42/163/79 43/164/79
f  43/164/80 42/163/80 47/162/88
f  45/165/89 43/166/81 44/167/81
f  44/167/82 43/166/82 45/165/90
f  45/157/83 41/156/75 48/168/83
f  48/168/84 41/156/76 45/157/84
f  41/160/77 46/159/85 48/169/85
f  48/169/86 46/159/86 41/160/78
f  42/163/79 47/162/87 46/170/87
f  46/170/88 47/162/88 42/163/80
f  43/166/81 45/165/89 47/171/89
f  47/171/90 45/165/90 43/166/82
f  48/172/83 49/173/91 45/174/83
f  45/174/84 49/173/92 48/172/84
f  50/175/93 48/176/85 46/177/85
f  46/177/86 48/176/86 50/175/94
f  51/178/95 46/179/87 47/180/87
f  47/180/88 46/179/88 51/178/96
f  49/181/97 47/182/89 45/183/89
f  45/183/90 47/182/90 49/181/98
f  49/173/91 48/172/83 52/184/91
f  52/184/92 48/172/84 49/173/92
f  48/176/85 50/175/93 52/185/93
f  52/185/94 50/175/94 48/176/86
f  46/179/87 51/178/95 50/186/95
f  50/186/96 51/178/96 46/179/88
f  47/182/89 49/181/97 51/187/97
f  51/187/98 49/181/98 47/182/90
f  52/188/91 53/189/99 49/190/91
f  49/190/92 53/189/100 52/188/92
f  54/191/101 52/192/93 50/193/93
f  50/193/94 52/192/94 54/191/102
f  55/194/103 50/195/95 51/196/95
f  51/196/96 50/195/96 55/194/104
f  53/197/105 51/198/97 49/199/97
f  49/199/98 51/198/98 53/197/106
f  53/189/99 52/188/91 56/200/99
f  56/200/100 52/188/92 53/189/100
f  52/192/93 54/191/101 56/201/101
f  56/201/102 54/191/102 52/192/94
f  50/195/95 55/194/103 54/202/103
f  54/202/104 55/194/104 50/195/96
f  51/198/97 53/197/105 55/203/105
f  55/203/106 53/197/106 51/198/98
f  56/204/99 57/205/107 53/206/99
f  53/206/100 57/205/108 56/204/100
f  58/207/109 56/208/101 54/209/101
f  54/209/102 56/208/102 58/207/110
f  59/210/111 54/211/103 55/212/103
f  55/212/104 54/211/104 59/210/112
f  57/213/113 55/214/105 53/215/105
f  53/215/106 55/214/106 57/213/114
f  57/205/107 56/204/99 60/216/107
f  60/216/108 56/204/100 57/205/108
f  56/208/101 58/207/109 60/217/109
f  60/217/110 58/207/110 56/208/102
f  54/211/103 59/210/111 58/218/111
f  58/218/112 59/210/112 54/211/104
f  55/214/105 57/213/113 59/219/113
f  59/219/114 57/213/114 55/214/106
f  61/220/5 57/221/5 60/222/5
f  60/222/6 57/221/6 61/220/6
f  62/223/7 60/224/7 58/225/7
f  58/225/8 60/224/8 62/223/8
f  63/226/9 58/227/9 59/228/9
f  59/228/10 58/227/10 63/226/10
f  57/229/3 63/230/3 59/231/3
f  59/231/4 63/230/4 57/229/4
f  57/221/5 61/220/5 64/232/5
f  64/232/6 61/220/6 57/221/6
f  60/224/7 62/223/7 61/233/7
f  61/233/8 62/223/8 60/224/8
f  58/227/9 63/226/9 62/234/9
f  62/234/10 63/226/10 58/227/10
f  63/230/3 57/229/3 64/235/3
f  64/235/4 57/229/4 63/230/4
f  61/236/1 63/237/1 64/238/1
f  64/238/2 63/237/2 61/236/2
f  63/237/1 61/236/1 62/239/1
f  62/239/2 61/236/2 63/237/2

