# Blender v2.79 (sub 0) OBJ File: ''
# www.blender.org
mtllib model.mtl
o Shape_IndexedFaceSet.001
v 0.055000 -0.053466 0.529981
v -0.096180 -0.054434 0.343832
v -0.095611 -0.054104 0.460392
v -0.111613 0.059923 0.445270
v 0.109423 0.058583 0.346477
v 0.091649 -0.054536 0.343646
v 0.111981 0.059923 0.445270
v -0.021090 0.006671 0.551733
v -0.108951 0.058529 0.346571
v -0.069383 -0.053303 0.519787
v 0.089763 -0.053384 0.480090
v 0.058731 0.006671 0.535747
v -0.074340 0.006671 0.525096
v -0.020030 -0.054282 0.546432
v 0.111981 0.027960 0.344164
v -0.111613 0.027960 0.344164
v 0.021458 0.006671 0.551733
v 0.090686 0.006671 0.498481
v 0.111981 0.027960 0.445270
v -0.086203 -0.054536 0.496062
v -0.111613 0.027960 0.445270
v 0.020327 -0.054085 0.546074
v -0.053044 0.006671 0.541083
v -0.095636 0.006671 0.487851
v 0.065775 -0.054139 0.520927
v -0.049889 -0.053726 0.535403
v 0.080027 0.006671 0.514467
v 0.084912 -0.053462 0.495086
v 0.045688 -0.054257 0.536271
v -0.042385 0.006671 0.546397
v 0.037435 0.006671 0.546397
v -0.084955 0.006671 0.509131
v -0.090276 -0.053922 0.485469
vn -0.9468 -0.0958 0.3073
vn 0.0000 0.9999 -0.0136
vn 0.0000 0.8944 0.4474
vn -0.0003 0.9999 -0.0141
vn 0.9960 0.0852 -0.0269
vn -0.0010 0.0038 -1.0000
vn -0.9956 0.0889 -0.0281
vn -0.0004 0.0785 -0.9969
vn 0.0000 0.0063 -1.0000
vn 0.0000 0.0753 -0.9972
vn 0.0000 -0.0866 0.9962
vn 0.9662 -0.2573 0.0155
vn 0.9709 -0.2393 -0.0000
vn 1.0000 0.0000 0.0000
vn 0.9284 0.0000 0.3715
vn -0.0576 -0.9983 0.0031
vn -0.0005 -1.0000 -0.0006
vn -0.8072 -0.1179 0.5784
vn -0.9817 -0.1904 0.0053
vn -0.9829 -0.1841 -0.0000
vn -1.0000 0.0000 0.0000
vn 0.0093 -0.0929 0.9956
vn -0.4737 0.6143 0.6310
vn -0.9363 0.0000 0.3513
vn 0.0469 -0.9989 0.0091
vn 0.6351 -0.1127 0.7642
vn -0.6223 -0.1199 0.7736
vn -0.1433 -0.9779 0.1524
vn -0.0397 -0.9976 0.0572
vn -0.5970 -0.1060 0.7952
vn 0.6335 0.4437 0.6339
vn 0.8123 0.2164 0.5416
vn 0.7040 -0.0901 0.7045
vn 0.7989 -0.1247 0.5884
vn 0.9439 -0.1274 0.3047
vn 0.9372 -0.1087 0.3316
vn 0.0503 -0.9987 0.0111
vn 0.8269 -0.1105 0.5514
vn 0.5627 -0.1134 0.8188
vn 0.0016 -1.0000 0.0018
vn 0.0010 -1.0000 0.0038
vn 0.0052 -0.9995 0.0309
vn 0.0085 -1.0000 0.0035
vn 0.4569 -0.6630 0.5930
vn -0.1332 0.8364 0.5316
vn -0.2421 -0.0882 0.9662
vn -0.2972 0.7458 0.5962
vn -0.3458 -0.1263 0.9298
vn -0.4436 -0.1069 0.8898
vn 0.3050 0.7313 0.6100
vn 0.1879 0.8052 0.5625
vn 0.3154 -0.0938 0.9443
vn 0.4456 -0.0877 0.8909
vn 0.3579 -0.1057 0.9278
vn -0.8084 0.2399 0.5375
vn -0.8285 -0.1007 0.5509
vn -0.8901 0.0902 0.4468
vn -0.8911 -0.0773 0.4472
vn -0.3538 -0.9317 0.0820
vn -0.9668 -0.1504 0.2068
vn -0.9309 -0.0962 0.3524
usemtl Shape.001
s off
f 24//1 21//1 33//1
f 5//2 4//2 7//2
f 7//3 4//3 8//3
f 4//4 5//4 9//4
f 5//5 7//5 15//5
f 6//6 2//6 16//6
f 4//7 9//7 16//7
f 9//8 5//8 16//8
f 15//9 6//9 16//9
f 5//10 15//10 16//10
f 7//3 8//3 17//3
f 8//11 14//11 17//11
f 11//12 6//12 19//12
f 6//13 15//13 19//13
f 15//14 7//14 19//14
f 7//15 18//15 19//15
f 3//16 2//16 20//16
f 2//17 6//17 20//17
f 10//18 13//18 20//18
f 2//19 3//19 21//19
f 16//20 2//20 21//20
f 4//21 16//21 21//21
f 17//22 14//22 22//22
f 4//23 13//23 23//23
f 4//24 21//24 24//24
f 6//25 11//25 25//25
f 12//26 1//26 25//26
f 13//27 10//27 26//27
f 10//28 20//28 26//28
f 20//29 14//29 26//29
f 23//30 13//30 26//30
f 7//31 12//31 27//31
f 18//32 7//32 27//32
f 12//33 25//33 27//33
f 27//34 25//34 28//34
f 11//35 19//35 28//35
f 19//36 18//36 28//36
f 25//37 11//37 28//37
f 18//38 27//38 28//38
f 1//39 12//39 29//39
f 20//40 6//40 29//40
f 14//41 20//41 29//41
f 22//42 14//42 29//42
f 6//43 25//43 29//43
f 25//44 1//44 29//44
f 8//45 4//45 30//45
f 14//46 8//46 30//46
f 4//47 23//47 30//47
f 26//48 14//48 30//48
f 23//49 26//49 30//49
f 12//50 7//50 31//50
f 7//51 17//51 31//51
f 17//52 22//52 31//52
f 29//53 12//53 31//53
f 22//54 29//54 31//54
f 13//55 4//55 32//55
f 20//56 13//56 32//56
f 4//57 24//57 32//57
f 24//58 20//58 32//58
f 3//59 20//59 33//59
f 21//60 3//60 33//60
f 20//61 24//61 33//61
o Shape_IndexedFaceSet
v -0.015785 0.017326 -0.411822
v 0.096002 0.006677 0.338732
v 0.016505 0.007194 0.346207
v -0.004935 -0.054536 -0.355770
v -0.093949 -0.054536 0.311687
v 0.088986 -0.054536 -0.222196
v -0.100965 0.017326 -0.220159
v 0.088986 -0.054536 0.311618
v 0.096002 0.017326 -0.257344
v -0.074339 0.017326 0.258923
v -0.088989 -0.054536 -0.227248
v -0.100965 0.006677 0.338807
v 0.064055 0.017326 0.274870
v 0.048091 0.017326 -0.374488
v 0.066517 -0.050595 -0.299928
v -0.063677 0.017326 -0.347884
v -0.071318 -0.050523 -0.289117
v -0.093949 -0.054536 -0.202471
v 0.015518 -0.050794 -0.363393
v -0.015785 0.017326 0.306838
v 0.005501 0.017326 -0.422478
v -0.010206 -0.050834 -0.368931
v -0.090303 0.017326 -0.278731
v 0.080019 0.017326 -0.315916
v 0.074698 0.017326 0.242901
v -0.031749 0.017326 -0.395800
v 0.081422 -0.045354 -0.268090
v 0.046191 -0.050666 -0.331294
v -0.030617 -0.045512 -0.351448
v 0.049430 -0.054536 -0.311269
v -0.086354 -0.045345 -0.252705
v -0.074339 0.017326 -0.326647
v 0.032127 0.017326 -0.395800
v 0.032127 0.017326 0.301473
v -0.049433 -0.054536 -0.311269
v 0.096002 0.017326 -0.209503
v -0.047713 0.017326 -0.374562
v -0.095625 0.017326 -0.257419
v 0.058734 0.017326 -0.358541
v -0.058356 0.017326 0.285526
v -0.005123 0.017326 -0.422478
v 0.076603 -0.050543 -0.279064
v 0.010822 0.017326 0.306838
v 0.085340 0.017326 -0.299969
v -0.100965 0.017326 -0.209503
v 0.079083 -0.054536 -0.256801
vn 0.7016 -0.6837 -0.2008
vn 0.0000 -1.0000 -0.0000
vn 0.0827 -0.4115 0.9076
vn 0.0003 -0.4885 0.8725
vn 0.9935 -0.1139 -0.0000
vn 0.9952 -0.0980 -0.0018
vn -0.0000 1.0000 0.0000
vn -0.0556 -0.4098 0.9105
vn -0.9935 -0.1139 -0.0000
vn -0.9952 -0.0976 -0.0019
vn -0.0210 0.9639 0.2653
vn 0.1640 -0.6325 -0.7570
vn 0.0648 -0.9536 -0.2942
vn 0.1958 0.9785 0.0652
vn -0.6331 -0.4487 -0.6308
vn 0.9619 -0.1900 -0.1966
vn -0.6461 -0.4478 -0.6180
vn 0.1233 -0.9809 -0.1506
vn 0.3628 -0.9023 -0.2330
vn 0.2352 -0.9465 -0.2210
vn -0.8209 -0.5047 -0.2672
vn -0.9484 -0.2540 -0.1899
vn -0.9319 -0.1877 -0.3105
vn -0.8588 -0.2767 -0.4312
vn -0.9106 -0.2304 -0.3432
vn 0.6309 -0.4534 -0.6296
vn 0.7423 -0.3740 -0.5560
vn 0.6463 -0.4506 -0.6158
vn 0.0969 0.9885 0.1163
vn -0.3267 -0.9325 -0.1538
vn -0.1932 -0.9619 -0.1932
vn -0.5580 -0.7146 -0.4218
vn -0.5478 -0.7240 -0.4192
vn 1.0000 -0.0000 0.0000
vn 0.3813 0.9243 0.0180
vn -0.8104 -0.3288 -0.4849
vn -0.7533 -0.3976 -0.5239
vn -0.7321 -0.4016 -0.5503
vn -0.9814 -0.1304 -0.1407
vn -0.9719 -0.1570 -0.1757
vn -0.9578 -0.1597 -0.2392
vn 0.8608 -0.2723 -0.4299
vn 0.7786 -0.3519 -0.5196
vn 0.7868 -0.3491 -0.5090
vn -0.1408 0.9864 0.0846
vn -0.0706 0.9875 0.1409
vn 0.0000 -0.6178 -0.7864
vn -0.6315 -0.4493 -0.6319
vn 0.8669 -0.2708 -0.4184
vn 0.9028 -0.3680 -0.2224
vn 0.0294 0.9690 0.2452
vn 0.0000 0.9684 0.2492
vn 0.0492 0.9795 0.1955
vn 0.9541 -0.1810 -0.2386
vn 0.9265 -0.2145 -0.3091
vn 0.9276 -0.2138 -0.3063
vn -1.0000 0.0001 0.0000
vn -0.3233 0.9461 0.0184
vn 0.3340 -0.9249 -0.1818
vn 0.4298 -0.8792 -0.2056
usemtl Shape
s off
f 75//62 39//62 79//62
f 38//63 37//63 39//63
f 35//64 36//64 41//64
f 36//65 38//65 41//65
f 39//66 35//66 41//66
f 38//63 39//63 41//63
f 35//67 39//67 42//67
f 34//68 40//68 42//68
f 42//68 40//68 43//68
f 37//63 38//63 44//63
f 38//69 36//69 45//69
f 42//68 43//68 46//68
f 34//68 42//68 47//68
f 40//68 34//68 49//68
f 44//63 38//63 51//63
f 38//70 45//70 51//70
f 45//71 40//71 51//71
f 45//72 36//72 53//72
f 46//68 43//68 53//68
f 34//68 47//68 54//68
f 54//73 52//73 55//73
f 52//74 37//74 55//74
f 40//68 49//68 56//68
f 47//68 42//68 57//68
f 46//75 35//75 58//75
f 42//68 46//68 58//68
f 49//68 34//68 59//68
f 34//76 55//76 59//76
f 42//77 39//77 60//77
f 59//78 55//78 62//78
f 39//63 37//63 63//63
f 37//79 52//79 63//79
f 61//80 48//80 63//80
f 52//81 61//81 63//81
f 50//82 44//82 64//82
f 44//83 51//83 64//83
f 64//84 56//84 65//84
f 49//85 50//85 65//85
f 56//68 49//68 65//68
f 50//86 64//86 65//86
f 54//68 47//68 66//68
f 52//87 54//87 66//87
f 47//88 61//88 66//88
f 61//89 52//89 66//89
f 35//90 46//90 67//90
f 46//68 53//68 67//68
f 37//63 44//63 68//63
f 44//91 50//91 68//91
f 55//92 37//92 68//92
f 50//93 62//93 68//93
f 62//94 55//94 68//94
f 35//95 42//95 69//95
f 58//96 35//96 69//96
f 42//68 58//68 69//68
f 50//97 49//97 70//97
f 49//68 59//68 70//68
f 62//98 50//98 70//98
f 59//99 62//99 70//99
f 51//100 40//100 71//100
f 40//68 56//68 71//68
f 64//101 51//101 71//101
f 56//102 64//102 71//102
f 47//68 57//68 72//68
f 57//103 48//103 72//103
f 61//104 47//104 72//104
f 48//105 61//105 72//105
f 43//106 45//106 73//106
f 45//107 53//107 73//107
f 53//68 43//68 73//68
f 34//68 54//68 74//68
f 54//108 55//108 74//108
f 55//109 34//109 74//109
f 48//110 57//110 75//110
f 60//111 39//111 75//111
f 36//112 35//112 76//112
f 53//113 36//113 76//113
f 35//114 67//114 76//114
f 67//68 53//68 76//68
f 57//68 42//68 77//68
f 42//115 60//115 77//115
f 75//116 57//116 77//116
f 60//117 75//117 77//117
f 43//68 40//68 78//68
f 40//118 45//118 78//118
f 45//119 43//119 78//119
f 39//63 63//63 79//63
f 63//120 48//120 79//120
f 48//121 75//121 79//121
