# File produced by Open Asset Import Library (http://www.assimp.sf.net)
# (assimp v3.2.202087883)

mtllib model_normalized.mtl

# 108 vertex positions
v 0.232572 0.053968 -0.142791
v 0.253113 0.053968 0.082467
v 0.256643 0.053968 -0.069942
v 0.246416 0.053968 0.009028
v 0.251405 0.053968 0.156190
v 0.207654 -0.058671 -0.086751
v 0.231402 0.053968 -0.063171
v 0.191412 -0.049602 0.088863
v 0.266957 0.053968 0.234288
v 0.196614 -0.049602 0.145909
v 0.229145 -0.058671 -0.021706
v 0.178896 -0.058671 -0.148925
v 0.200364 0.053968 -0.212427
v 0.179750 -0.049602 0.032780
v 0.272263 0.053968 0.005175
v 0.247875 0.053968 0.308601
v 0.195288 -0.049602 0.203177
v 0.221317 -0.058671 0.316274
v 0.196837 -0.058671 0.380258
v 0.208266 0.053968 -0.133191
v 0.161778 -0.049602 -0.021611
v 0.277454 0.053968 0.158284
v 0.241315 0.053968 0.229238
v 0.238354 -0.058671 0.249924
v 0.243092 -0.058671 0.045362
v 0.143248 -0.058671 -0.207422
v 0.000000 -0.058671 0.380258
v 0.177309 0.053968 -0.200122
v 0.279231 0.053968 0.081581
v 0.247727 -0.058671 0.182067
v 0.220457 0.053968 0.380258
v 0.187450 -0.049602 0.259922
v 0.160438 0.053968 -0.277944
v 0.137731 -0.049602 -0.073602
v 0.249313 -0.058671 0.113582
v 0.222975 0.053968 0.300666
v 0.101171 -0.058671 -0.261480
v 0.000000 0.053968 0.380258
v 0.138934 0.053968 -0.263094
v 0.202505 0.053968 0.354167
v 0.173204 -0.049602 0.315405
v 0.113312 0.053968 -0.338488
v 0.053215 -0.058671 -0.310396
v 0.107922 -0.049602 -0.122518
v 0.000000 -0.058671 -0.353534
v 0.000000 0.053968 0.354167
v 0.093638 0.053968 -0.321287
v 0.157303 -0.049602 0.356961
v 0.059600 0.053968 -0.393274
v 0.000000 0.053968 -0.441589
v 0.072737 -0.049602 -0.167721
v 0.000000 -0.049602 0.356961
v 0.042013 0.053968 -0.373945
v 0.032635 -0.049602 -0.208625
v 0.026090 0.053968 -0.386852
v 0.000000 0.053968 -0.386852
v 0.020267 -0.049602 -0.218651
v 0.000000 -0.049602 -0.218651
v -0.256643 0.053968 -0.069942
v -0.253113 0.053968 0.082467
v -0.232572 0.053968 -0.142791
v -0.251405 0.053968 0.156190
v -0.246416 0.053968 0.009028
v -0.207654 -0.058671 -0.086751
v -0.266956 0.053968 0.234288
v -0.196614 -0.049602 0.145909
v -0.231402 0.053968 -0.063171
v -0.191413 -0.049602 0.088863
v -0.178896 -0.058671 -0.148925
v -0.229146 -0.058671 -0.021706
v -0.272264 0.053968 0.005175
v -0.247875 0.053968 0.308601
v -0.195288 -0.049602 0.203177
v -0.200364 0.053968 -0.212427
v -0.179750 -0.049602 0.032780
v -0.196836 -0.058671 0.380258
v -0.221317 -0.058671 0.316274
v -0.277454 0.053968 0.158284
v -0.241315 0.053968 0.229238
v -0.238354 -0.058671 0.249924
v -0.208266 0.053968 -0.133191
v -0.161778 -0.049602 -0.021611
v -0.143248 -0.058671 -0.207422
v -0.243093 -0.058671 0.045362
v -0.279231 0.053968 0.081581
v -0.247727 -0.058671 0.182067
v -0.220457 0.053968 0.380258
v -0.187450 -0.049602 0.259922
v -0.177309 0.053968 -0.200122
v -0.160438 0.053968 -0.277944
v -0.249313 -0.058671 0.113582
v -0.222975 0.053968 0.300666
v -0.137731 -0.049602 -0.073602
v -0.101172 -0.058671 -0.261480
v -0.202505 0.053968 0.354167
v -0.173204 -0.049602 0.315405
v -0.138933 0.053968 -0.263094
v -0.113312 0.053968 -0.338488
v -0.053214 -0.058671 -0.310396
v -0.107922 -0.049602 -0.122518
v -0.157303 -0.049602 0.356961
v -0.093638 0.053968 -0.321287
v -0.059600 0.053968 -0.393274
v -0.072737 -0.049602 -0.167721
v -0.042012 0.053968 -0.373945
v -0.032635 -0.049602 -0.208625
v -0.026091 0.053968 -0.386852
v -0.020267 -0.049602 -0.218651

# 0 UV coordinates

# 112 vertex normals
vn 0 0.0254 0
vn 0 -0.0254 -0
vn 0.023182 -0.00831835 -0.00620972
vn 0.0220252 -0.00919536 -0.00868883
vn -0.0220252 0.00919536 0.00868883
vn -0.023182 0.00831835 0.00620972
vn -0.02118 0.0136651 0.0031355
vn -0.0220979 0.0125023 0.00073086
vn 0.02118 -0.0136651 -0.0031355
vn 0.0220979 -0.0125023 -0.00073086
vn -0.0226132 0.0114212 -0.00183233
vn 0.0226132 -0.0114212 0.00183233
vn 0.0205655 -0.0101004 -0.0109636
vn -0.0205655 0.0101004 0.0109636
vn -0.0199078 0.0148523 0.005315
vn 0.0199078 -0.0148523 -0.005315
vn 0.0240059 -0.00749125 -0.00357155
vn -0.0240059 0.00749125 0.00357155
vn -0.0183479 0.0160126 0.00721878
vn 0.0183479 -0.0160126 -0.00721878
vn 0.0237129 -0.00507596 0.00755617
vn 0.0243275 -0.00551233 0.00479044
vn -0.0243275 0.00551233 -0.00479044
vn -0.0237129 0.00507596 -0.00755617
vn -0.0227 0.0104793 -0.00447822
vn 0.0227 -0.0104793 0.00447822
vn 0.0188415 -0.0110119 -0.012996
vn -0.0188415 0.0110119 0.012996
vn 0.0245844 -0.00607004 0.00198036
vn -0.0245844 0.00607004 -0.00198036
vn 0.0244769 -0.00673532 -0.000824205
vn -0.0244769 0.00673532 0.000824205
vn 0.0232804 -0.00488188 0.00890773
vn -0.0232804 0.00488188 -0.00890773
vn 0 0 0.0254
vn 0 0 -0.0254
vn -0.0165776 0.0171056 0.008817
vn 0.0165776 -0.0171056 -0.008817
vn -0.0223541 0.00972795 -0.00712902
vn 0.0223541 -0.00972795 0.00712902
vn 0.0168981 -0.0119101 -0.0147568
vn -0.0168981 0.0119101 0.0147568
vn -0.0146755 0.0181042 0.0101009
vn 0.0146755 -0.0181042 -0.0101009
vn -0.0220414 0.00939206 -0.00843364
vn 0.0220414 -0.00939206 0.00843364
vn 0.0147839 -0.0127778 -0.0162272
vn -0.0147839 0.0127778 0.0162272
vn -0.0127131 0.018994 0.0110799
vn 0.0127131 -0.018994 -0.0110799
vn 0.0136717 -0.013184 -0.016865
vn -0.0136717 0.013184 0.016865
vn -0 -0.000685317 -0.0253908
vn 0 0.000685317 0.0253908
vn -0.01075 0.0197714 0.0117767
vn 0.01075 -0.0197714 -0.0117767
vn -0.00976663 0.0201152 0.0120479
vn 0.00976663 -0.0201152 -0.0120479
vn 0 0.0216286 0.0133179
vn -0 -0.0216286 -0.0133179
vn -0.0220252 -0.00919536 -0.00868883
vn -0.023182 -0.00831835 -0.00620972
vn 0.023182 0.00831835 0.00620972
vn 0.0220252 0.00919536 0.00868883
vn 0.0220979 0.0125023 0.00073086
vn 0.0226132 0.0114212 -0.00183233
vn -0.0220979 -0.0125023 -0.00073086
vn -0.0226132 -0.0114212 0.00183233
vn 0.02118 0.0136651 0.0031355
vn -0.02118 -0.0136651 -0.0031355
vn -0.0205655 -0.0101004 -0.0109636
vn 0.0205655 0.0101004 0.0109636
vn 0.0199078 0.0148523 0.005315
vn -0.0199078 -0.0148523 -0.005315
vn -0.0240059 -0.00749125 -0.00357155
vn 0.0240059 0.00749125 0.00357155
vn -0.0243275 -0.00551233 0.00479044
vn -0.0237129 -0.00507596 0.00755617
vn 0.0237129 0.00507596 -0.00755617
vn 0.0243275 0.00551233 -0.00479044
vn 0.0227 0.0104793 -0.00447822
vn -0.0227 -0.0104793 0.00447822
vn 0.0183479 0.0160126 0.00721878
vn -0.0183479 -0.0160126 -0.00721878
vn -0.0188415 -0.0110119 -0.012996
vn 0.0188415 0.0110119 0.012996
vn -0.0245844 -0.00607004 0.00198036
vn 0.0245844 0.00607004 -0.00198036
vn -0.0232804 -0.00488188 0.00890773
vn 0.0232804 0.00488188 -0.00890773
vn -0.0244769 -0.00673532 -0.000824205
vn 0.0244769 0.00673532 0.000824205
vn 0.0223541 0.00972795 -0.00712902
vn -0.0223541 -0.00972795 0.00712902
vn 0.0165776 0.0171056 0.008817
vn -0.0165776 -0.0171056 -0.008817
vn -0.0168981 -0.0119101 -0.0147568
vn 0.0168981 0.0119101 0.0147568
vn 0.0146755 0.0181042 0.0101009
vn -0.0146755 -0.0181042 -0.0101009
vn 0.0220414 0.00939206 -0.00843364
vn -0.0220414 -0.00939206 0.00843364
vn -0.0147839 -0.0127778 -0.0162272
vn 0.0147839 0.0127778 0.0162272
vn 0.0127131 0.018994 0.0110799
vn -0.0127131 -0.018994 -0.0110799
vn -0.0136717 -0.013184 -0.016865
vn 0.0136717 0.013184 0.016865
vn 0.01075 0.0197714 0.0117767
vn -0.01075 -0.0197714 -0.0117767
vn 0.00976663 0.0201152 0.0120479
vn -0.00976663 -0.0201152 -0.0120479

# Mesh 'mesh1_mesh1-geometry' with 186 faces
g mesh1_mesh1-geometry
usemtl material_0_24
f  1//1 2//1 3//1
f  2//1 1//1 4//1
f  3//2 2//2 1//2
f  4//2 1//2 2//2
f  5//1 3//1 2//1
f  2//2 3//2 5//2
f  3//3 6//4 1//4
f  1//5 6//5 3//6
f  4//1 1//1 7//1
f  7//2 1//2 4//2
f  8//7 2//8 4//7
f  4//9 2//10 8//9
f  9//1 3//1 5//1
f  5//2 3//2 9//2
f  10//8 5//11 2//8
f  2//10 5//12 10//10
f  6//4 3//3 11//3
f  11//6 3//6 6//5
f  12//13 1//4 6//4
f  6//5 1//5 12//14
f  7//1 1//1 13//1
f  13//2 1//2 7//2
f  14//15 4//7 7//15
f  7//16 4//9 14//16
f  2//8 8//7 10//8
f  10//10 8//9 2//10
f  4//7 14//15 8//7
f  8//9 14//16 4//9
f  9//1 15//1 3//1
f  3//2 15//2 9//2
f  9//1 5//1 16//1
f  16//2 5//2 9//2
f  5//11 10//8 17//11
f  17//12 10//10 5//12
f  15//17 11//3 3//3
f  3//6 11//6 15//18
f  11//2 18//2 6//2
f  6//1 18//1 11//1
f  1//4 12//13 13//13
f  13//14 12//14 1//5
f  6//2 19//2 12//2
f  12//1 19//1 6//1
f  7//1 13//1 20//1
f  20//2 13//2 7//2
f  7//15 21//19 14//15
f  14//16 21//20 7//16
f  22//1 15//1 9//1
f  9//2 15//2 22//2
f  16//1 5//1 23//1
f  23//2 5//2 16//2
f  16//21 24//22 9//22
f  9//23 24//23 16//24
f  17//11 23//25 5//11
f  5//12 23//26 17//12
f  11//3 15//17 25//17
f  25//18 15//18 11//6
f  11//2 24//2 18//2
f  18//1 24//1 11//1
f  6//2 18//2 19//2
f  19//1 18//1 6//1
f  26//27 13//13 12//13
f  12//14 13//14 26//28
f  12//2 19//2 27//2
f  27//1 19//1 12//1
f  20//1 13//1 28//1
f  28//2 13//2 20//2
f  21//19 7//15 20//19
f  20//20 7//16 21//20
f  15//1 22//1 29//1
f  29//2 22//2 15//2
f  9//22 30//29 22//29
f  22//30 30//30 9//23
f  16//1 23//1 31//1
f  31//2 23//2 16//2
f  24//22 16//21 18//21
f  18//24 16//24 24//23
f  30//29 9//22 24//22
f  24//23 9//23 30//30
f  23//25 17//11 32//25
f  32//26 17//12 23//26
f  29//31 25//17 15//17
f  15//18 25//18 29//32
f  25//2 24//2 11//2
f  11//1 24//1 25//1
f  18//21 31//33 19//33
f  19//34 31//34 18//24
f  13//13 26//27 33//27
f  33//28 26//28 13//14
f  12//2 27//2 26//2
f  26//1 27//1 12//1
f  31//35 27//35 19//35
f  19//36 27//36 31//36
f  28//1 13//1 33//1
f  33//2 13//2 28//2
f  34//37 20//19 28//37
f  28//38 20//20 34//38
f  20//19 34//37 21//19
f  21//20 34//38 20//20
f  22//29 35//31 29//31
f  29//32 35//32 22//30
f  35//31 22//29 30//29
f  30//30 22//30 35//32
f  31//1 23//1 36//1
f  36//2 23//2 31//2
f  31//33 18//21 16//21
f  16//24 18//24 31//34
f  25//2 30//2 24//2
f  24//1 30//1 25//1
f  32//25 36//39 23//25
f  23//26 36//40 32//26
f  25//17 29//31 35//31
f  35//32 29//32 25//18
f  37//41 33//27 26//27
f  26//28 33//28 37//42
f  26//2 27//2 37//2
f  37//1 27//1 26//1
f  27//35 31//35 38//35
f  38//36 31//36 27//36
f  28//1 33//1 39//1
f  39//2 33//2 28//2
f  39//43 34//37 28//37
f  28//38 34//38 39//44
f  30//2 25//2 35//2
f  35//1 25//1 30//1
f  31//1 36//1 40//1
f  40//2 36//2 31//2
f  36//39 32//25 41//39
f  41//40 32//26 36//40
f  33//27 37//41 42//41
f  42//42 37//42 33//28
f  37//2 27//2 43//2
f  43//1 27//1 37//1
f  31//1 40//1 38//1
f  38//2 40//2 31//2
f  39//1 33//1 42//1
f  42//2 33//2 39//2
f  34//37 39//43 44//43
f  44//44 39//44 34//38
f  41//39 40//45 36//39
f  36//40 40//46 41//40
f  43//47 42//41 37//41
f  37//42 42//42 43//48
f  43//2 27//2 45//2
f  45//1 27//1 43//1
f  38//1 40//1 46//1
f  46//2 40//2 38//2
f  39//1 42//1 47//1
f  47//2 42//2 39//2
f  47//49 44//43 39//43
f  39//44 44//44 47//50
f  40//45 41//39 48//45
f  48//46 41//40 40//46
f  42//41 43//47 49//47
f  49//48 43//48 42//42
f  50//51 43//47 45//51
f  45//52 43//48 50//52
f  48//53 46//53 40//53
f  40//54 46//54 48//54
f  47//1 42//1 49//1
f  49//2 42//2 47//2
f  44//43 47//49 51//49
f  51//50 47//50 44//44
f  43//47 50//51 49//47
f  49//48 50//52 43//48
f  46//53 48//53 52//53
f  52//54 48//54 46//54
f  47//1 49//1 53//1
f  53//2 49//2 47//2
f  53//55 51//49 47//49
f  47//50 51//50 53//56
f  53//1 49//1 50//1
f  50//2 49//2 53//2
f  51//49 53//55 54//55
f  54//56 53//56 51//50
f  53//1 50//1 55//1
f  55//2 50//2 53//2
f  55//57 54//55 53//55
f  53//56 54//56 55//58
f  55//1 50//1 56//1
f  56//2 50//2 55//2
f  54//55 55//57 57//57
f  57//58 55//58 54//56
f  56//59 57//59 55//59
f  55//60 57//60 56//60
f  57//59 56//59 58//59
f  58//60 56//60 57//60

# Mesh 'mesh2_mesh2-geometry' with 186 faces
g mesh2_mesh2-geometry
usemtl material_0_24
f  59//1 60//1 61//1
f  60//1 59//1 62//1
f  61//2 60//2 59//2
f  62//2 59//2 60//2
f  63//1 61//1 60//1
f  60//2 61//2 63//2
f  61//61 64//61 59//62
f  59//63 64//64 61//64
f  62//1 59//1 65//1
f  65//2 59//2 62//2
f  60//65 62//66 66//65
f  66//67 62//68 60//67
f  67//1 61//1 63//1
f  63//2 61//2 67//2
f  63//69 60//65 68//69
f  68//70 60//67 63//70
f  64//61 61//61 69//71
f  69//72 61//64 64//64
f  70//62 59//62 64//61
f  64//64 59//63 70//63
f  59//1 71//1 65//1
f  65//2 71//2 59//2
f  72//1 62//1 65//1
f  65//2 62//2 72//2
f  73//66 66//65 62//66
f  62//68 66//67 73//68
f  66//65 68//69 60//65
f  60//67 68//70 66//67
f  74//1 61//1 67//1
f  67//2 61//2 74//2
f  67//73 63//69 75//73
f  75//74 63//70 67//74
f  68//69 75//73 63//69
f  63//70 75//74 68//70
f  74//71 69//71 61//61
f  61//64 69//72 74//72
f  69//2 76//2 64//2
f  64//1 76//1 69//1
f  59//62 70//62 71//75
f  71//76 70//63 59//63
f  64//2 77//2 70//2
f  70//1 77//1 64//1
f  65//1 71//1 78//1
f  78//2 71//2 65//2
f  79//1 62//1 72//1
f  72//2 62//2 79//2
f  65//77 80//77 72//78
f  72//79 80//80 65//80
f  62//66 79//81 73//66
f  73//68 79//82 62//68
f  81//1 74//1 67//1
f  67//2 74//2 81//2
f  75//73 82//83 67//73
f  67//74 82//84 75//74
f  69//71 74//71 83//85
f  83//86 74//72 69//72
f  27//2 76//2 69//2
f  69//1 76//1 27//1
f  76//2 77//2 64//2
f  64//1 77//1 76//1
f  84//75 71//75 70//62
f  70//63 71//76 84//76
f  77//2 80//2 70//2
f  70//1 80//1 77//1
f  85//1 78//1 71//1
f  71//2 78//2 85//2
f  78//87 86//87 65//77
f  65//80 86//88 78//88
f  87//1 79//1 72//1
f  72//2 79//2 87//2
f  80//77 65//77 86//87
f  86//88 65//80 80//80
f  77//78 72//78 80//77
f  80//80 72//79 77//79
f  88//81 73//66 79//81
f  79//82 73//68 88//82
f  89//1 74//1 81//1
f  81//2 74//2 89//2
f  81//83 67//73 82//83
f  82//84 67//74 81//84
f  90//85 83//85 74//71
f  74//72 83//86 90//86
f  83//2 27//2 69//2
f  69//1 27//1 83//1
f  76//35 27//35 87//35
f  87//36 27//36 76//36
f  76//89 87//89 77//78
f  77//79 87//90 76//90
f  71//75 84//75 85//91
f  85//92 84//76 71//76
f  70//2 80//2 84//2
f  84//1 80//1 70//1
f  85//91 91//91 78//87
f  78//88 91//92 85//92
f  86//87 78//87 91//91
f  91//92 78//88 86//88
f  92//1 79//1 87//1
f  87//2 79//2 92//2
f  72//78 77//78 87//89
f  87//90 77//79 72//79
f  80//2 86//2 84//2
f  84//1 86//1 80//1
f  79//81 92//93 88//81
f  88//82 92//94 79//82
f  90//1 74//1 89//1
f  89//2 74//2 90//2
f  89//95 81//83 93//95
f  93//96 81//84 89//96
f  82//83 93//95 81//83
f  81//84 93//96 82//84
f  83//85 90//85 94//97
f  94//98 90//86 83//86
f  94//2 27//2 83//2
f  83//1 27//1 94//1
f  38//35 87//35 27//35
f  27//36 87//36 38//36
f  91//91 85//91 84//75
f  84//76 85//92 91//92
f  91//2 84//2 86//2
f  86//1 84//1 91//1
f  95//1 92//1 87//1
f  87//2 92//2 95//2
f  96//93 88//81 92//93
f  92//94 88//82 96//94
f  97//1 90//1 89//1
f  89//2 90//2 97//2
f  89//95 93//95 97//99
f  97//100 93//96 89//96
f  98//97 94//97 90//85
f  90//86 94//98 98//98
f  99//2 27//2 94//2
f  94//1 27//1 99//1
f  38//1 95//1 87//1
f  87//2 95//2 38//2
f  92//93 95//101 96//93
f  96//94 95//102 92//94
f  98//1 90//1 97//1
f  97//2 90//2 98//2
f  100//99 97//99 93//95
f  93//96 97//100 100//100
f  94//97 98//97 99//103
f  99//104 98//98 94//98
f  45//2 27//2 99//2
f  99//1 27//1 45//1
f  46//1 95//1 38//1
f  38//2 95//2 46//2
f  101//101 96//93 95//101
f  95//102 96//94 101//102
f  102//1 98//1 97//1
f  97//2 98//2 102//2
f  97//99 100//99 102//105
f  102//106 100//100 97//100
f  103//103 99//103 98//97
f  98//98 99//104 103//104
f  45//107 99//103 50//107
f  50//108 99//104 45//108
f  95//53 46//53 101//53
f  101//54 46//54 95//54
f  103//1 98//1 102//1
f  102//2 98//2 103//2
f  104//105 102//105 100//99
f  100//100 102//106 104//106
f  103//103 50//107 99//103
f  99//104 50//108 103//104
f  52//53 101//53 46//53
f  46//54 101//54 52//54
f  105//1 103//1 102//1
f  102//2 103//2 105//2
f  102//105 104//105 105//109
f  105//110 104//106 102//106
f  50//1 103//1 105//1
f  105//2 103//2 50//2
f  106//109 105//109 104//105
f  104//106 105//110 106//110
f  107//1 50//1 105//1
f  105//2 50//2 107//2
f  105//109 106//109 107//111
f  107//112 106//110 105//110
f  56//1 50//1 107//1
f  107//2 50//2 56//2
f  108//111 107//111 106//109
f  106//110 107//112 108//112
f  107//59 108//59 56//59
f  56//60 108//60 107//60
f  58//59 56//59 108//59
f  108//60 56//60 58//60

